<mxfile host="65bd71144e" modified="2021-03-05T11:46:45.331Z" agent="5.0 (Macintosh; Intel Mac OS X 11_2_1) AppleWebKit/537.36 (KHTML, like Gecko) Code/1.53.2 Chrome/87.0.4280.141 Electron/11.2.1 Safari/537.36" etag="G_zjwHwJr52FrRbFOK2X" version="14.2.4" type="embed">
    <diagram id="gsUUC5bKEg0x1V-4-cX3" name="Page-1">
        <mxGraphModel dx="1073" dy="735" grid="1" gridSize="10" guides="1" tooltips="1" connect="1" arrows="1" fold="1" page="1" pageScale="1" pageWidth="827" pageHeight="1169" math="0" shadow="0">
            <root>
                <mxCell id="0"/>
                <mxCell id="1" parent="0"/>
                <mxCell id="28" value="" style="shape=image;imageAspect=0;aspect=fixed;verticalLabelPosition=bottom;verticalAlign=top;image=data:image/png,iVBORw0KGgoAAAANSUhEUgAAA4MAAALACAIAAACmTjDbAAAAKXRFWHRjb3B5bGVmdABHZW5lcmF0ZWQgYnkgaHR0cDovL3BsYW50dW1sLmNvbREwORwAAAKBaVRYdHBsYW50dW1sAAEAAAB4nO1WTU8TQRi+T7L/4Q0X4FAoRIzuwRSLH9QSG1rg4mXYHdqR7SzuzjZ662xJJJQeEY0xXgzUz5oYMRqi/8U3oJ78C063mLZQ/IgeODTZbGbemfd55n32nSeb8CX1ZFB0wGe3AiYsZpDRQbDZEhcMVvQat/gKFdKHwVGDUEu6HmBlGyt7GO7qt0EM0jmH2AUYmHTYbQrZZe44A2BCxxS+vn23X928IbC8EYWxrLIOtZa/3auiWkW1rQOftxr6wXItIuQlKlk3pkG6KSLOhSykaXHRpk1KrDzDsIFhHcP3WFkziHA1iMfzBWnqbYGwCrPNgn15lQrbYV4XVRuqydQB3KM4rLyIOB5h5Y0eGMRmJyIdOXOXbhqpvBFJgeo5qqeoXh3s3Nfjg/XNL/VPqLZQfUT1AFX1+97jSJzf6a4BO6T8J8kyri9zbnS8aSGZOJ2yHVar6qieoNrFcPWwp8IQwzUMa5GKOrLz10KiajQzT4GQUS5MZqZ7cp0oYzvcBtDoHWht8GSBCsGO9VCrE48nHS3/F1+2k/tPC0461A1sWKDSKkDazfstlpcYvt6/+2F//eEp6rZadEl1k7Uaq4umy8AMkmDC1sZrEJLoYcJ9p+07bd9p+07bd9r/6bQZR//Kzs2kocQ8n7sCxkbG4+NjI/H4UDYQkKI6Eoex8+b4hBmfgFQ2B831YTJ0JZMG3w08i4HNfenxxUBqgGGSoiUKs4GQvMhMuL7CRGrq2s8AXBIl7rmiqNuPpOZn2hvOnold5BKyzNNHgfkZMsWWaOBInWG5Nhd5E+Zyl2PnSJqKfEDzGvsmJUlX43p3TEhlyA8/b85pliybQgAAgABJREFUeF7snQdYFMf7xxVUrFjBbhR7iTX2LvbeSyS2WGOJGk3UaDQq+jf28tNYsIuAKFYSC3axoEGNjSZqxAI2rCBw93+9iZtl927Y47iDY7+f53149mZmd2ffuZ373N7ekUELAAAAAABAapBBWgAAAAAAAIBFgIkCAAAAAIDUASYKAAAAAABSB5goAAAAAABIHWCiAAAAAAAgdbCEiWri4p8evxy2Yd+NWevpLy1TibQRAAAAAABQGeY10Y+v3lz/eeWevM09MtQRx568La7/vIZqpSsAAAAAAADVYEYTfXH51v5i7Zh6/lGl26WhE/+eOZv+0jIr3F+s44vLt6WrAQAAAAAAdWAuEyUN3ZW9MenmsYZfP7vko9H8JQ4qoXKq3ZW9CWQUAAAAAECdmMVEP756w66GXhgwLuHjZYmGsqByqqU2PoXbPQ67Fx0dHRMTI90QAAAAAABIv5jFRK9PW8GuhsbHBsgdVAiqZVdGj347Mzg4OCIiAj4KAAAAAKAeUt5ENXHxe/K1IL+UfygvD2pDLT1zNT11/ERgYGB4eHhUVBRkFAAAAABADaS8iUaevPLpK0pfdpV7p944WKnLp2/Tz13u5+fHZDQ6Olq6UQAAAAAAkO5IeRMNW/fpMmfA8Ily6dQbF4dOoPY7hvy0e/duJqMRERG4LAoAAAAAkO5JeRO9NW8zmeW1qb/IpVNv/PXjdGq/vee4bdu2+fj4nDp1Kjg4GJdFAQAAAADSPSlvosZeEz03aDy7Jrpp0yZ3d3dfX9/AwMCoqCjpdgEAAAAAQPoi5U3U2PtE95brTO13zviNTJRdFvX394+IiJBuFwAAAAAApC9S3kR13513Vvjd+aiLny6geuRs4rHDnUx069atu3fvPnXqVHh4uHS7AAAAAAAgfZHyJqr99HuiqxX+nuiBmr0//YpTt7Genp6bN2/esmWLl5eXn59fcHCwdKMAAAAAACB9YRYT1f2PpY4eSf2PpRO9vvukofmdPTdthYkCAAAAAKgNs5io9tP/nb+9K3sTdmVU/jF91EUfdjXUw66h5/wVpKEeHh74dB4AAAAAQFWYy0S1OhndU6jtJ93MUOdgxS4n233r19TFr/XgvWU/fUXp36uhOg0l3N0/3SeKbywBAAAAAKgHM5oo8Tjs3tGhszxzfro4mihyNPbsPo59KM8uiJKD4lecAAAAAABUhXlNNDo6Ojg4+NTxE7tnL9tZsy85KP3dOf03jx3ugoOSfTINxS/bAwAAAACoCvOaaExMTERERGBgoJ+f364+E8lEt3cdvUnHZh1smWko/tsnAAAAAICqMK+JanWXRcPDw8kvDwyc9umaaI9x69evX7du3VodtEAP3d3dfXx8mIZSY1wQBQAAAABQA2Y30ZiYmKioKPLLYyPnkIn69P9x27ZtW7Zs2aiDFuihr6/vqVOnmIZSY1wQBQAAAABQA2Y3Ua1ORqOjo8//sOTTjzqNnHPgwAEfH59dOmiBHpKDBgcHR0REUDNoKAAAAACASrCEiTKuTl9DJnrpx+UBAQHnzp07pYMW6GFUVBQcFAAAAABAbaSAiT49ceXGrPVJxvFmI8lE6e/pcQskIW9M25TuBgAAAAAApC9SwERJHKU/F2py0DaluwEAAAAAAOmLFDBRXBMFAAAAAADJIAVMVMzr16+fPXv26NGj+/fvhyaGjJNMlP5elCFpKUAboU3RBmmzuIsUAAAAACCdARMFAAAAAACpA0wUAAAAAACkDjBRAAAAAACQOsBEAQAAAABA6gATBQAAAAAAqUMKmyiHG7qfHaW/Ut8MDZU2BQAAAAAAKgAmCgAAAAAAUgeYKAAAAAAASB1gogAAAAAAIHWAiQIAAAAAgNQBJgoAAAAAAFIHmCgAAAAAAEgdYKIAAAAAACB1gIkCAAAAAIDUASYKAAAAAABSB5goAAAAAABIHSxkovHvY3wr9CYTpb/BN27BRAEAAAAAgCVMVJOQcLb7T6ShLA63GRMSHAwTBQAAAABQOZYw0cAJS0lA9+Rr+dDnJP2l5RODZ8JEAVDOx5evn564ovL4+OqNNC8ykKjkBXIrhJJUaFWTDYuFkrQj59YYSkbW7CYavNKL1NPLrlHkySv0MOLoBc8sDankzPSVt3WQicbExEhXAwCIoPNZ+FRBtcHmED5IVPICuRVCSSq0qsmGxUJJ2pFzawwlI2teE43Yf9rTtp5Hxrr3tv9BD8k4X79+fXHxZirxsKnrv3IbM1EqhIwCwIFNwXeWLnp6wkOFcWfJIoUzmsoTlYxAboVQngqtCrJhsVCeduTcukL5yJrRRF9cvu2doyn148bsDdrPGvrs2TNSz5Pj/o/KvbI1/sv7D3pIhZBRADiwKZjObY3mLxXGk+MeCmc0lScqGYHcCqE8FVoVZMNioTztyLl1hfKRNZeJvrv/eF/h9tSJi4NmsxKmoY8ePSL1vH379p9dJlDtbofWt05foEImo4m3AQD4F5VPwWxG+3PJen9//8DAwODg4IiIiOjoaGmaVJ+oZARyK4TyVGhVkA2LhfK0I+fWFcpH1iwm+vHVmz+q9KMenHAenfAxTqu7IMo09P79+8xEb/1942C9QdRmX7ked2/cZjKKy6IA6EXlUzCb0bxmLd6/f7+fn9+lS5doUouKipKmSfWJSkYgt0IoT4VWBdmwWChPO3JuXaF8ZFPeREk9SUBp9ySj7DtT7HN5QUMFggKvk4ZSS98GQ+6F3aUG+IweAL2ofApmM9q2qfPc3d19fHxoUqN32PT2Wpom1ScqGYHcCqE8FVoVZMNioTztyLl1hfKRTXkTvThoNu17X+H27+4/1opuDxU0lBYefSY84NoexzbU/liPyVSOG0YB0IvKp2A2o22d4rp582aa1Ogdtr+/f3h4uDRNqk9UMgK5FUJ5KrQqyIbFQnnakXPrCuUjm8ImemP2Btqxd46mLy7f1oo0lN0eKmgoM05WFfznmV3Zm9Bap8f/JlRBRgEQo/IpmM1onjMX0Yy2ZcsWLy8vensdHBwsTZPqE5WMQG6FUJ4KrQqyYbFQnnbk3LpC+cimpIne2/6HR8a6nrb1Ivaf1ibWUHZBVKyhMTpYgxtb9rEfe7qyfDtkFAA5Kp+Clc9oKk9UMgK5FUJ5KrQqyIbFQnnakXPrCuUjm2ImGnnyipddI9pr8EovrQINZWsJzS67frqY6pml4d+evvJmAKgcU6bg5ct/XLhwgrw8ZePNm3NXr3reu+cbH39ZKFSya3EbQ+2Vz2imJEph6D1Sc4ehzMhj3Lh+u3cvlpcbihTMrd7MKO+5JJK9YrJDeSq0SWUjFVPx9q3/tWte4eGH4uJSYNcpFZwOKE87P+csUvfwjT37UiosdoBGhfKRTRkTjb4dzv6NZ+CEpVrFGsoQGp8dPpe24J2nxZ3j/oYaA6BOlEzBISH7bW1tatSoICl3dq5Tv35VefsUjC1b5uTIkS2DjqxZsxw7tpaVG9p169b1GzWqLm9jqL3yGS15iaIXrZw5s48a1UsoqV69fL58uRMSrrCHK1dOyZ8/t8bwkYqjYcPqtLq83JQwlBl52NllmTRpgLzcUKRUbg1lRnnPJaF8RfmAsqCBsNFB/SlfvuRvv41n5Q0aVJM31hiTCi03G6mVisBAj1q1KmbMmJHtOlMm23LlvjBqC+YLTgeUp52Tc03aOHz52ad8bjElFB6gOaYmTigf2RQw0Q9PXxwo1ZX2d7b7T5qEBK3op0OFbynxzZLJaFRk5LH239N29hTrEPrX38Iq0tYAqA/+FMzil1+Gsyn42jUvcbnCSSrZQVNt0aKOdepUuXBh6+XL7uPHf33mzEZWZWjXM2YM+/HHgfI2htorn9GSnajmzWtXquTEll+/PktmQw3u3PFhJV27NqfgHKk46BC+/LKMvNyUMJQZechfC/mRIrnlZEZ5zyWhfEW9A6rRDUSJEoU2bJg5ZEgXerGnBocPr6byunWrVKtWTr4d5anQGs5GaqXiyhX3LFky58qVY+PGWffu+ZKWkXlTN5RvwazB6YDytBvKuSbNHL7es0/J3CLflBCbNv06bdq38nJxKDxAc0xNnFA+silgoud6T6OdHa07OP79J8uMSfzToeyCKEdDGUxGIx8+OlSjP23tcPtxwmVUzloAqATOFMyC3mGXKlWUXYmZPPlfyWMhn6SosfCOXGFwVvnzz//RTt3d58ur5LuWh4VN1FCiyGYyZswYFXWClo8dW8vMZuvWufQwPv5ynjy5Vqz4iXOk4uBM95w0slq9y5rEmdG7BaFQ/lrI32mK5JaTGfmYcvojLpevqDcMDahGNxDCFaBVq6ZQg19/HaUxs4mmViq6dGlG+z1xYr28SqPs+aO3nLMKp0q+Nc4hKE+7oZxrjDl8FvIeiqvkhfwQVpGffRplc4t4U5IOdOvWvHLl0pJtspbCcpLjy4IzNfFXNBT8VZSPbAqY6IenL0hG6a9W30+HMqHkayiDrXvv+u2jHcffvviXUesCkL7hTMEsaAqm2e3336fny5e7SBEH8d1p4knq/fsLI0f2pDY0/Y0f/zW7lerGDe8qVcpMmNCftXn37nzTprV+/vnfd+EbN85q27ZB7tw5HR3zzZw5Qr7rK1fcade0WXmVeNezZo0kLQgNPUDLQ4d269+/vbyN/AWDhfIZLdmJOnr0dyrfs2cxLc+dO7pgwfw2NjZjx/alh5cubaeqmzd3c45UHHqne0NpZKnYufP/KlVyypvXfsaMYW/enOvbt03OnNmbNKlJe2TNWGbWrZtRtmwJsi5qEB19hlV9+HCBNkLrUp9py5kzZxJeCw3tVBwpkltOZsRjaqg/MTEX6fnm5FTU1tamaFHHtWunS1YUP3kkYWhANYlNlDWbONFFY2YTTZVUREYeJ9ehZuJCcbAt+PgsYR8Ni5XdUE/YM1PvKpwqvTOM0AGhmTiUp91QzhUePls2dLyUeTqQ4sULZsmSuWbNCuzyOYvu3VuwqYCChJJOVeGdBufsE0LJ3KIx0DGyWJoKqEu0UxeXT3Mm5xmid0TEoXdq4hw4vRawo3NwyEtdoo0Ld6NeverZo4czzUW0uzlzRsv3pTFmZFPARMWwz+UlGqr8umbyrqcCkO4xNAULMWRIF5qwSGK++653hs+fQrIQz8LUjCaOpUsnkfHQbLh69TRW/uOPA2kt8iFapldrehV5+PAwqxo+vPuYMX28vRf16dOa2ty75yvfe61aFamqU6cmwloshF1v3jybGrBJU1zOWRaH8hkt2YmikkyZbJmpdOzYeNCgzmTn7NO9+fPHFS5cgDUzdKTi0DvdG0ojHTL1h732tG5dn6pIkshB580ba2+fQ+zr2bNnpReeqVOHtGhRm5oJr1XDhnWn179Ro3p5eCyoV+9LqhJeCw3tVBwplVtDmRGPqaH+0KsdPfzmmw779i1j157FK0qePJIwNKCaxCZKzag2IGCHxswmqkmNVJw/v5XKXV3HSMqFoC3kypWDzuvRo3v37NmSGtMqrMpQTzircKoMzTCGTm2NMWk3lHMlh59k5uk8ohlg4MBO69f/Qk8bUtsLF/49qKpVy3bu3JQtP358lNZatWqKsJahs08IhXOL3o6dPbupRo0K9BbLzW3WwYMrNIafIYZGRBx6pybOgdNeyHdpTHftWtis2Vfio6NNkRzv3buUOkY9ke9LY8zImstEGcm411N8jykDJgqAoSmYxdu3/jQN0VRCyzSJsHlKqBVm4UePjtJrA5sQNbrptWnTWmw5NvYSvTyT+mzbNpfa0OQi38vt23toy3qrXr483a5dQ6olJ/Dy+k0oZ7s+fXojvdsWrrkK5fxlcSif0UxJFGWgdu3KtODgkHfduhk0QdvZZYmJudiqVT12NUJj+EjFoXe6F0KSRjpkSvvly5+ufVKiqKpr1+YfPwZodJ/KffFFYaEZvWLdv/8He1izZgV62dPortDQC2G/fm1ZOa1IqZa/FnLGLqVyaygzesdU3B/2tBS+XCJZUf7kEQd/QGl1egknd6cXfpZYVm5uE7V8Kug9JG1ky5Y58iphC2Qbvr6raJn8mBrPnSu9jiV/ZhpaxVAVZ4bRe+wslKfdUM6VHL587+LjJb+knvfo4cyqnj07QUJGJyB7aMhEFZ59GmVzixCSgRB/Os95hugdEUnIpybOgUdEHBFXxcVdFh9doUL56Q0znYCSXYhD+ciaxUQffSYZEsk+ozdxIwCkMwxNwSxIH2nqWbPmZ5rCKEhZcuTIRm/EWa0wC/v5fbpFiWppYqWgl8lSpYoKG7l79yApETVo27aBeOPv31/YunXud9/1bt++EduLvAMa3Q1DGzfOIi2giYxdW9Xodl20qGOBAnlatKgt/lEVQ/ap9wVDY8yMZkqiaJKl2fyvv3Zm0H1etmHDTFqgl/9s2ezo0ISN6D1Sccine43hNIoP+epVT6ry9FzAHg4Y0LFYsYLyZhQjR/a0tbUh4zl7dhOtsmTJJKFKfKeaoZ2KI6VyqzGQGXHP9faHPS3lgmXoySMO/oDSfkkUKlYsRU9pShG98LNyc5uoxuKpOHx4Na24bNlkeZWwBWHX8fGXM4iuqevtCX8VQ1WcGcbQqa0xJu2Gcm7U4es9XnbzxtKl/51HJH+C8BkyUf7ZJw4lc4vejmkSmyjnGaJ3RCQhn5o4B85uaV2+/EehSnx0s2d/R7X0tKS0G/o9O+UjaxYTFUieQQoyauJ2AEg3GJqCWdAb6wwyhCsEwiTFbleid/Br105nQS/kwkaCgvayr32MGdNHKKR3+U2b1qKXwIkTXVavnpbBgM0IcevWHnrf7Pz5hi1aKF68YJEiDvQGmkxXaCaeNw0ti0P5jGZKovbtW0YPyf/y5//0Gyv0gkEP2UddwsVIISRHKg75dM9Jo/iQlZvoqFG9qOWLF6fYa/DmzbOFKuHVgrNTcaRUboWQPwdYzw31hz0tp08fKtmOoSePOPgDWl/06bw4LGCiLCyWitDQAxl0T115lbAFvaZiqCecVThVnBnG0KmtMSbthnKu/PANHS/7ntm6dTOEVb76qlLJkkXYsiET5Zx9kkhybjHUMU1iE+U8Q/SOiCTkUxPnwNmHDOJJQ3J0NFPR+cVGXLxNIZSPbMqbqJhk6yOT0RTZFADpAENTMMWDB3/Y2Nj8+OPAe/d8WdA7b1tbG3qRZg2ESSoi4kjGjBk7dGgs30hs7KXatSvXqlVx2LDuNLMI9/3s3buUHm7a9Kvm84c+wo1fhqJ8+ZISfyLByp07Z4UKJZ89+/TtUaGcvywO5TOaKYlin0xl0N3hp9Fd1sqTJxc9LFu2hHxrmsRHKg75dM9Jo/iQlZsojRS9aGl0PwpDriN8neKff/7MlMmWvVpwdiqOFMmtJOTPAY3h/tAypV2uhoaePEIkOaD1U9tENZZKBclHlSplaOjJfSVV4i0IjTN8NhVDPeGswqnizDCGTm2NMWk3lHPlh2/oeMnvaXnQoM6sPbuzU3gi0YgItxmwH2FgJso5+ySR5NxiqGMa3felhEvL/GcIWzbKRDkHTttxcMjbp09rVsVugZAcHbXp3789nXTy56TGmJFNYRONSYy02hgkmzJxawBYNYamYIp588bS67Hkyyj0YkCF7AsT4klq4MBONGtMmTL4+nWvc+c2C+/mp04dkiNHtjt3fD58uMC+fcneqV+8uI1mnxEjehw8uKJNm/oZEl8xZUFzKK0eGOgRGXn8f/+bSm2oS6xK2LWf31qashs2rP7+/QVJlwwti0P5jGZKoihomqb+z58/jj1khyx8D5pzpOKgQyhZssixY2uF8PVdZSiN4kPmm2jmzJlcXceEhR2YNWskvVoIP27QvHltelVbsOD7DRtm0n6FVwslY6dJodxyMiMcIKc/9GJGD+k17+TJDe7u8318lohXlDx5hEhyQOunhommSio0uotb5Cj58+emk5qeJDdv7l67dvpXX1WS7FqT2FQ4PTG0Cr/K0Axj6NTWGJN2QznXKD58zvG2b9+I/aBSQMAO9p0h9m13je67RLly5fDy+m369KF2dlkyiL6xZOjskwd/buF0jM56enjo0EoSX01SzxCNbETEIZ+aHj06yjlwMlR6SGkkN/3ii8K0TCOr0Zn0d9/13r9/eWjoAeqto2M+4ZYYcSgf2RQ20eQRFxe3Y8eOFy8+/Q4UAEAOZwquUqVM69b1JYXe3oto1li0aCItt2xZt0GDaqyc5rIhQ7qQx1AtmQ1773vmzEZ68RY+oCEfzZkzu/A/kFxc2lN7Cpp6OnduKp6FWZA5Cf9RpkgRB5pb3707z6rEu6ZJk14q2P3v4nJDy+JQPqOZkigK9v3r06c3soc0m9ND4UsnnCMVBx0CayOwadOvhtIoPuRr17wyiHZHL+rFi/9nojVrVqCXBGpAaezbt42waxq+ggXzU7m9fY7163/JmvW/T9AM7VQcKZJbTmbEB2ioP69enenduxU9Cakke/as7EdhDD15hEhyQA39L6V69b40n4mmSipYkKeWLVuC7ZraVKrkJIiOeAvMVOj9DL8nnFU4VXpnGMkqklCedkM5Z6Hw8A0d7+PHR9u2bcCuXNIEuHjxD8KWSdHKlfuCysnG2Ofs9B6DVXHOPknw5xaN4Y6Fhx+ipzE9dNbd5pHkM0QyIuLQOzVxDpz8cvz4r+l8obmIek47nT37O43ORCtWLMX6ULVqWWbD8lA+shY10cjIyDt37ggPY2NjAwMD3d3dO3fuPGnSpAULFojaAgD+gz8FGxsxMRdDQvYLX+BIMiIjj7O34zQB0bQo/zVjKgkLO3D1qqe8KkVC+YyWsomShylHmmQaOUEvP2zdhw8Pv3x5WlJLrz137x5k37iXRJI7TancKswMpz/0skcl8Qa+/WCBUJ4KLTcbqZuKqKgTFy5s1ftpqaHg9CR5YdQMozztnJwLoeTwOccbHX3GUOYfPPj0MZE8OGefscHpGO1d/EV1U54heoNz4Cy2b3cl7/Tw+PcTG43ulyuET5P0hvKRtaiJbtiwoXLlysLDJ0+eZPh0u+79woULHzt2rFSpUqK2AID/UDIFp+NQPqOpPFHJCORWCOWp0KogGxYL5WlHzi0cM2YM69ev7YoVP40d27dAgTwlSxaJjb0kb2YolI+sfhO9ePFiv379Bg8ePOQztNy1a9erV69KmxoD9aZatWrCw6ioKDJR+kuGev369ZcvX4raAgD+Q+VTsPIZTeWJSkYgt0IoT4VWBdmwWChPO3Ju4di2bW6fPq2rVStXt26VkSN7RkQckbfhhPKR1W+it27d+uGHH6aJmDhxIlnjkSNHpE0V8Pz5861bt+7atWvMmDElSpTw/gwJqO42hU3UP3d3d+lqAIDPqHwKVj6jqTxRyQjkVgjlqdCqIBsWC+VpR86tK5SPrH4TlUNuStb48OFDaYUC7t69W6tWrYYNG5YtWzZHjhwNP1O79qf/WVevXr0GDRq0bNlSuhoA4DMqn4KVz2gqT1QyArkVQnkqtCrIhsVCedqRc+sK5SOr1EQPHDhAEikpjIyMjI6OfmOA169fS74OL/l0/sGDB2Sib9++FTUxepsAqAGVT8HKZzSVJyoZgdwKoTwVWhVkw2KhPO3IuXWF8pFVaqLLli2rUaOGpNDJyenzTwHop3Tp0uL2EhO9ffs2tYmLixM1MXqbAKgBlU/Bymc0lScqGYHcCqE8FVoVZMNioTztyLl1hfKRVWqiQ4YMcXFxkRSG6Qg3AFWFhISI27u5uYm/O+/r65s3b15R/SeM3SYAakDlU7DyGU3liUpGILdCKE+FVgXZsFgoTztybl2hfGSVmmjNmjV/++03aamRPH78+MKFC8LD77//vnPnzqJ6AIB+2BR8Z8kiOrdVGHTgCmc0lScqGYHcCqE8FVoVZMNioTztyLl1hfKR1WOiS5cuXbJkybLE2NnZDRo0iBaoynQlJY4ePWpjY+Pp6SmtAADIYFOwykPJjIZEJS+QWyGUpEKrmmxYLJSkHTm3xlAysnpMtE+fPl26dOlmAKrq27evdB1jiI+Pd3d3L1CggPzjfgCAXj6+ehN58gqLP5es95q1eNvUeVunuNJJrqLYtDXJGQ2JSmYgt0IoSIVWPdmwWChIO3JulaFgZPWYqFkJCQkpXbq0o6Pj2rVrExISpNUAgKTw9/ffv38/vZ3brErowOnwKQnh4eHS1CRG5YlKBsitgPJUaFWQDYuhPO3IuXXBH1lLm6hGo1m9enV0dLS0AgCgjMDAQHpn6ePjQ+f2FpVBh0wHTodPSYiIiJCmJjFqTlQyQG4FjEqFNr1nw2IYlXbk3IpIcmQtbaIAABMJDg6+dOkSndX0FtNLZdAh04HT4VMSoqKipKlJjJoTlQyQWwGjUqFN79mwGEalHTm3IpIcWYua6I1Z66VFAAAjofeUdD7Tm0t/f38/y7J55DRpkWWhQ6YDp8OnJCT50UoqJopDqufQEGk2t5bPmFGp0Fo2G8nD8jlMBkalPe3nPBlYxTAlgyRH1qIm6pGhjrQIAGAkdCbT20o6pcPDw4Mty/LMNaVFloUOmQ6cDp+SEBMTI01NYlIxURxSPYeGSLO5tXzGjEqF1rLZSB6Wz2EyMCrtaT/nycAqhikZJDmyMFEAgFJwCpsOcmgsyJjpIIdWgWqHCSYKAFAKTmHTQQ6NBRkzHeTQKlDtMMFEAQBKwSlsOsihsSBjpoMcWgWqHSaLmii+sQSAVYNT2HSQQ2NBxkwHObQKVDtMFjVRAAAAAAAABGCiAAAAAAAgdYCJAgAAAACA1AEmCgAAAAAAUgeLmqhq78YFIH2AU9h0kENjQcZMBzm0ClQ7TBY1UdX+QgEA6QOcwqaDHBoLMmY6yKFVoNphgokCAJSCU9h0kENjQcZMBzm0ClQ7TDBRAIBScAqbDnJoLMiY6SCHVoFqhwkmCgBQCk5h00EOjQUZMx3k0CpQ7TBZ1ERVezcuAOkDnMKmgxwaCzJmOsihVaDaYbKoiSaDkJCQR48eSUvNhpLdidvw20+ZMuXw4cO0oNFoXr58GRcXFx8fT38/fPggtKGSx48fnzx5cvbs2ZMnT6aSGzduTJgwQWgAAAAAAJBeSUMmGhgYOGnSpKtXr4oLq1SpMmbMGHFJSvHPP/8sWLDA2dl5wIABq1evZoWGdrd48eK9e/eyZXEbQ+1JPenvN998s3//floICgoqUKBACR0ODg69evWiwjdv3pQrV45KihYtWrdu3ZUrV1IGqPzChQtNmjRJvD0AAAAAgHRIGjLRPn36ZMiQwcXFRVxoSPVMJCEhoUyZMhUqVJg5c2aXLl1q1arFyg3trmHDhj/++CNbVmKilStXzpYtm60OOzs7Nzc3oYqM9uuvv6aFmzdvLlq0iCSYxLRTp060sHDhwidPnpCJkh//ty0AAAAAgHRKWjHRqKioLDpI4F6+fCmUy1WPXW40kYMHD5L1Xrp0iT0UtinfnRwlJkqH8+rVq379+nl6etLymzdvhCrBRM+fPz9u3LjJkye3bNmyfv36tDBhwoSOHTuS9ebPn5/clMpJTP/bKAAAAABA+sKiJsq5G3fRokV2dnabNm0iQVy1apVQLla9e/futW7dOmvWrCVLlvTx8aGSa9euVahQYfHixazB9u3ba9So8ezZM1qeM2dO3bp1aZtVq1Y9evTo5+39y7lz52hH8+bNk5QLu3v06BGtPnv2bFZOXkgblLSRLAvQur6+vidOnHB2dnZ1dfXz87t8+fL//ve/tTq+++67vn37spYuLi6km+XLly9TpkwrHYcPH/7pp59IRvfv3+/o6Mi5CRUAy8M5hYFCkENjQcZMBzm0ClQ7TBY1Uc4vFJBQ9u/fPz4+vlixYtWrVxfKBdVLSEioVq0aeRtZ3dixYwsVKsQa/Prrr7a2tseOHbt7926uXLlI9Vj5/Pnzvb29b9682ahRo+bNmwsbFGjbti3JaMeOHUNCQoRCtrvo6GjaV4sWLWJjY8Xl/GWBq1evjho1ijpJEtymTRtadnNzy5w580ody5cv37dvH2tZuXJlUmrawuDBg0mXixYtSoVr1qwZOXIkLdAxii8PA5DqcE5hoBDk0FiQMdNBDq0C1Q5TmjDRU6dOkRTSX1qeOXMmLZNusipB9c6fP0/l5Jfnzp3z8vKiZfbdJo1GQzZZoECBmjVrdurUSbTVT7x9+3bq1KlkqJJyrU5t58yZk03H9u3bWSHtbtiwYWSuJJHko0JjQ/ap10QJ0k2yz++//37Hjh2sJHv27EKtsGUyUTqibt26tW/fftmyZY6OjlT4888/k17TQp48eWJiYoS1AEh1DJ3CQDnIobEgY6aDHFoFqh2mNGGiLi4uZJb9+vX7+uuvW7RoQcvsoqBWpHoeHh5U7uTkVPkz3t7erE1QUBBVZcyY8cGDB8I2V69eXbx48YIFC9Iqek2UERoa+tVXX9G69+/f1+p2lyVLFtqa+DtGrFyvfRoy0VGjRq1fv55MtFixYuXLl1+6dKnYREeMGOHp6UkLFStWbNq0admyZamTrVq1yp8/v1Z3sZZdNM2RI4ewCgBpAUOnMFAOcmgsyJjpIIdWgWqHKfVN9MWLF1mzZiUH/e0zderUyZ0797t377Sya6Kkd5LVExISWrZsWaNGDfK2IUOGsMKTJ09S4w0bNtDywoULOSZK+Pv7C1um3ZFE9uzZM1u2bLQRoY0h+zRkom3atGnXrh1VsWui8fHxdIxPnjx58+bN48eP69evf+TIESqknW7fvn3gwIG9evWiltu2baNsUG+fP39OLR0cHKTbBSBV0XsKA6NADo0FGTMd5NAqUO0wWdRE9d6Nu3z5ctI+MjChhH2xffPmzVqR6sXFxVWvXr1cuXKHDx+OiYm5evUqu4o5a9YsMraIiAh3d3dai90n6uPjQ8t79+49ffp0o0aNbG1tX79+LWyfOH78OLUMDw9/+/bthAkT7OzswsLChN3Fxsa2bduWjDAgIIC1N2Sfek2U9lWgQIEuXbpkz55d+HR+/PjxX331VdWqVWvXrj1ixIgPHz7QXhYsWLBy5cru3bt37Nhx2bJlP/zww/z58/v370/tr1+/Xq1atUTbBSC10XsKA6NADo0FGTMd5NAqUO0wWdRE9UJyNmjQIHFJQkJC8eLFmzZtSstffvnl2LFjWTmJIxWyD+Lz5s27b9++kydPZsqUif0fI2LcuHHklFeuXCFtdXZ2ppb29vaurq5khBUqVPi8+U9s3LiRWlKDzJkzk+Ay69WKdvfu3TtS2Pz58wcFBYnLOcsC5NatW7cmXR49enT58uWpwerVq7du3UquTGK6adOmxYsX0x7Pnj07fPjwXr16UZt8+fJVrly5YsWKpLCk0b6+vuTH33zzjWTLAAAAAADpidQ3UWOJjo5W+NtGT58+JSXV6i5Sir9+xIiPj79z54741tKUYu3atUeOHGHLz54927Bhw88//0yWPHLkyBEjRtDf77///sCBA2FhYSSm5KP3799n/VywYMHvv/9+4cKFnj179u7d+8aNG4m2CwAAAACQvrA+EwUAAAAAAOkDmCgAAAAAAEgdLGqiqr0bN90THR0dEBCQ5F0TCpuBNAtOYdNBDo0FGTMd5NAqUO0wWdREjfqFgrt379rY2LB/Rr9o0SJpdWJCQkLSiN8kryeG1lq4cOEvv/wyc+ZM+uvq6hoTEzN16lShZO7cudIVLI6bm1u/fv3GjRu3cuXKMWPGdOjQYfny5cL/pjK2GUjjGHUKA70gh8aCjJkOcmgVqHaY0rSJCv/SU0xgYOCkSZPYP1gS0PtrSubmn3/+WbBggbOz84ABA1avXs0Kk9cTQ2uVL1+eHO7gwYMHDhwoWLDgu3fvHB0dD+rYvn07+++gWt1vsp45cybxqkr5+PHjs2fPwsLCHj58KK3j8uHDh/79+69Zs0ZSTiUjRowQHipsBqwCo05hoBfk0FiQMdNBDq0C1Q6T9Zlonz59MmTI4OLiIi40ZHLmIyEhoUyZMhUqVJg5c2aXLl1q1arFypPXE0NrVa5c2cnJqWLFirQj8s6YmBhbW9uKOmjvVMWaHT58uHjx4olX1d64cUPi60uXLh08eHCnTp0aNmxYqVKlwoULZ8uWLcNnJk+eLG6cJFOmTBH/+L8YKnd1dWXLCpsBq8CoUxjoBTk0FmTMdJBDq0C1w2RlJhoVFcU+ryeFevnypVAuNzmNRiN+mOKwn9+/dOkSeyjsTt4TJRhai8oDAwNfvHjx/PlzEkcyUTLOFzqCg4NLlSrFmp06daps2bKJV9XOmDGD/PXDhw9CyciRI/v37z9t2rQVK1bs3LnTz89v0KBBefPmpZbkrG/fvhWtnQTXrl37/vvvpaUixo4dGxoaqrCZtBSkVYw6hYFekENjQcZMBzm0ClQ7TBY1UaPuxtVroosWLbKzs9u0aRNZ4KpVq4Ryscndu3evdevWWbNmLVmypI+Pj1anTeRkixcvZg22b99eo0aNZ8+e0fKcOXPq1q1L26xaterRo0c/by9pzp07R32YN2+epFzcE70bf/jwYe/evR0cHKi8XLlyJJfitR49ekSrzJ49W9havXr1nJ2dmzdv/tVXX71//97JyalFixZU0rBhQ8FESYiLFSvGlgXIQcuUKSNsSgKp85AhQ5o1a6b3/tQkoQPnGyTVrl+/XmEzaSlIqxh1CgO9IIfGgoyZDnJoFah2mCxqokah10RJKPv37x8fH0/iVb16daFcMLmEhIRq1aq1bNny8uXLY8eOFbbw66+/2traHjt2jDabK1cu9k9Bifnz53t7e9+8ebNRo0Zke8IGldC2bVuS0Y4dO4aEhAiFYhOVb5z9z9J8+fKRFt+6dWvfvn10LMJa0dHR1HkSTeGrPFROHf7jjz/27NnjI2Lv3r1k0sKn88HBwXny5GHLYkh/7e3txRePBdasWUNqa9R1UDFDhw6VFiWGTJfyr7CZ8HDWrFnPnz8X1QMAAAAgPZOmTbRw4cLiklOnTpH50V9anjlzJi2TbrIqwf/Onz9P5aSA586d8/LyomV2ryQZDyljgQIFatas2alTJ9FWP0FCNnXqVDJUSTkfst45c+Zk07F9+3ZWKP+cXbxx1r1JkyaJG2h1aw0bNoxstWrVquJ/B8VMdN26dVRL4rhs2TJqMH78+OXLl4tNlFbJmDHj69ev2bKwOlGnTp2VK1eKSxi07p9//iktVczw4cOlRTK+/fZbhc2EZXrnQMcrqgQAAABAeibtmijx/v178UMXFxfSuH79+n399dctWrSg5ZEjR7Iqwf88PDyonDSr8me8vb1Zm6CgoAy6/1kv/g+fq1evLl68eMGCBWkVY02UERoaSo5Im71//742sYnKN866d/DgQfEWtLq1smTJQlVubm6Scur2mTNnyEG7d+/+119/NW3adMuWLWfPnn348KFgolrdt+zZ1+cnTpy4YsUKofznn39u1qyZ8JDx8eNHGxsbU5zP1dX1xYsX0lIRVEvCrbCZ8BAmCgAAAKiKNG2iYkhZsmbNSg7622fq1KmTO3fud+/eaWXXROW3HiYkJLRs2bJGjRo5cuQYMmQIKzx58iQ13rBhg1b3y51MFkko9V5E5ODv7y/sVOiJ3o2zlmSHiTfwaa1Ro0b17NkzW7Zs4m+aU/nff/9Nwk0HSw46YcKEMmXK9O3bl0rCwsLEJjp06NDhw4drNJovvvji0KFDQvmJEyfokNk9AGKqV68+c+ZMSaFW8eFTnoU7HPRCtSTcCpsJD2GiAAAAgKqwqImacjfu8uXLydLEF9jYt9c3b96sFfkfuxGzXLlyhw8fjomJuXr1KrtUOWvWLAcHh4iICHd3d1qL6ZGPjw8t79279/Tp040aNbK1tX39+nVwcDDJ3ODBg/nfvj9+/DhtJDw8/O3btySIdnZ2pIZaUU/0bpy6V7VqVfKtrVu3PnnyZP/+/WKTjo2Nbdu2LTlrQEAA2wv7dJ4WmjRpcvbsWVro3r37xYsXaUH86bxW99v4ZOq1a9euVKmS2Dtpm8I9DGLIiWlH5L7Hjh1jX95iKDx8Mvthw4axQ5ZD5QMGDNAqbiYAE03jmHIKAwZyaCzImOkgh1aBaofJoiZqyi8UkMANGjRIXEKWU7x48aZNm9Lyl19+KXzxheyQCtkH8Xnz5t23b9/JkyczZcpEbsoajBs3jsTxypUr5IXOzs7U0t7e3tXVNXv27BUqVNDqvt5epEiRadOm/bsnfWzcuJE2QutmzpyZ3JcJsVbUE0MbJ2UkX8ygg/ZCPipei8SUtDV//vxBQUH0kLSSdG3RokUNGjRgftmpU6fz58/TsZDFSn65iVR1xowZyr/xExoaOnToUOpD+fLlxeVKDl+r+4h/+PDhR44ckZRT37p16xYVFcUeKmzGgImmcUw5hQEDOTQWZMx0kEOrQLXDZDUmaizR0dEKf5/o6dOnZI208Pr1a+HrPv7+/iSsidrJIDW8c+eO+K5TOXo3rtX9MKoSZaxRowbtYu7cuYKx/e9//6OSESNGdO7cWXw/qCnIe6Lk8LU6bybJ7tev3y+//LJ9+3b6O2DAgHnz5rFDVt5s1apVhXTY2NjQGwnxusBMvH8UFbbOJ/Z5ou+3JYklT+H0CnJoLMiY6SCHVoFqhyndmiiwGGTkISEhx48fj4iIkNaJ4DSLjY19/RlJFTAfkSeveOdqfrz5d5Gn/pLWGQCnsOkgh8aCjJkOcmgVqHaYYKIAqJfIE5e9MjWgE9PHsc2NWRuSvESKU9h0kENjQcZMBzm0ClQ7TBY1UdXejQtAmoVkdFe2xjQDemSs55m5Af8SKU5h00EOjQUZMx3k0CpQ7TBZ1EQBAGmQ/2RUF+SjCi+RAgAAACZiURMVXuoQCESaDU+ber4VetHC7jzOj/7wlzeQhPQ8BwAAABRjURMFAKRBrk5a7qlzyn2F259sPe5g2R6+lfoELd3JronyXZNfCwAAAPCBiQKgapiG+pbv6dd01O48zuddZkaduSpuwHdNfi0AAADAx6Imqtq7cQFIm9z+vy1emRt62tYTXwSVwHdNqnV1dXVzcztz5oy0DugD06CxIGOmgxxaBaodJouaKP8lDQBgSSJPXtmTv5X8IqgE/mlLtTNnzly+fPnRo0eldUAf/HwCOciY6SCHVoFqhwkmCoAaUf4/lvinLUzUWPj5BHKQMdNBDq0C1Q4TTBQAwIN/2sJEjYWfTyAHGTMd5NAqUO0wwUQBADz4py1M1Fj4+QRykDHTQQ6tAtUOk0VNVLV34wJgvfAnR5iosWAaNBZkzHSQQ6tAtcNkURMFAFgdMFEAAADmAyYKAOABEwUAAGA+YKIAAB4wUQAAAOYDJgoA4AETBSDZxL/7IC0CACTGoiaq2rtxAbBeYKIpC38apHwi0lkEL98pHWaLw3/WgTSCaofJoibqwX1JAwCkQfinrQdM1EiSzGdc3E+IdBM0oN7Z66e6jPKfdSCNoNphgokCAHjwT1uYqLEkmU+5zSCsN2hAHx8bkeoyyn/WgTSCaocJJgoA4ME/bWGixpJkPuU2g7DeYAP6SUaz1Ts9ZWl4eHhUVFRMTIx04M0M/1kH0giqHSaYKACAB/+0hYkaS5L5lNsMwnpDGFAmo8cmLggODra8jPKfdSCNoNphsqiJqvZuXACsF/7kCBM1Fv40CBNNZyEeUCajR8bPt7yM8p91II2g2mGyqIkCAKwOU0z02bNn8fHxwsO4uLjnz5+L6hOxdu3aQ4cOSUvNxpMnT37//feEhARpRaoCE01nIRnQVJRRANIsMFEAAA9TTNTW1vb69evCw1OnTuXLl09U/x9v3rzJnz//wYMHpRVGEhAQ4Onp6eXl5eHhsWPHjq1bt7q5ue3bt0/aTqu9efMmdU9amtqkBRO9c2f4gwej5eWqisjI769d+5Ytm5IQ+YBCRgGQABMFAPAwxUTt7Oxu374tPPT39y9UqJCo/j9mzJiRIUOGrl27dujQoXXr1s2aNRs8eLC4QXsdHRNDJe3atRM3mz59upOTU7Vq1WrVqlWvXr1GjRrlzp27UqVK4jaMoKCgzJkzS0tTG7m4UMyb19TdvYu83ExRubLDd9/VlJdTNyZOrEMxf36z69f/tbRUD0ly3r6dRD08fdpF3tKoWLOmDT0hP378tGwoIUpC74BCRgEQAxMFAPAwxUSzZs2qxESvX79OLSdPnrxw4cJly5atXr26bt26LVq0ELehvcydO9fV1XXMmDHU2FXHXB3iZhKePHlib2+/bds2aYXORLNkySItTW30iouTU56BA7+Ul5spDIkXdaNUqTxt2jjZ29uRpW3c2EHexgLh7z+AQngoSc6zZ+Opb8uXt5KvaFSY1UTjIKMAiLCoiar2blwArJcUNNFz584VK1ZMVP+JFy9e1KxZc/36/yaHuLg4EtadO/X//uLVq1cNfcQvZ+DAgWXLlhXfqypAJmpra3vr1i1phZnhT4N6xSXtmOiQIdXidNcdCxXK0bRpCXEtkzYTQ8lG6tUrOmBAFeFhqpiokn6y8JD9y6XEUffE/7ZaQEb5zzqQRlDtMFnURPkvaQCANAj/tOWbqOTT+RMnTpQpU0ZUr71x40bp0qWXLFkiLvTw8ChSpMjHjx/FhQLKTfT8+fM2NjZ//PGHtEIHmSjV0qbq16/v5uZmVg8Qk2Q+5Taj10R//bVxnTpF7Oxsv/zS4c8/+7DChg2LCRK2ZIlzkybF2XLHjmV++aXRhAl1ChbMUbWq4+HDfVn5vXvf9epVwcEhO22nbNl8pJhxOvEaMaKGvLFgohS1axemYMuhoaNatSqVNWumL77I7e3dnRWGhY1ydi6ZLVumChXy01q0cWZvhnqodyP79vVs1KhYliy2RYvmunVrGJX88ENd6mquXFlog5s3d2S94pio3iwZyoa4zz16lNdronr7SRucOrV+376VcuTIHBIyUuhMkkHDvX//fn9/f3PLKP9ZB9IIqh0mmCgAgAf/tOWYqEajqVixYkhIiFCyc+fOr776StREe/z48QULFohL6PW4YMGCa9asEReKUWii9NJesmTJhg0bUjekdTrYp/Pv3r1bvXp1+fLlixYtumrVKvOpgECS+ZT7il4TdXVt6unZ9fr1b8ntmjX79/Jk4cI5Z8xoyJanTWtQvLg9WyaXypTJpnXrUl5e3cgg69cvSoUfPkyuVs0xX76sCxe2+PvvoXv29IiJ+dFQY9YNcsqgoBHUnixt5crWVBgb+yPJHAncxYsDR4+uVahQjjjdJcPq1QvSdv74o8+RI33JAgWr09tDvRuhzpAiDxtWPTR0JMkiKSYVkudVqeLQrl3p8+cHRESMZb2iTpLUsqC0iE1Ub5b0HiCnz4KJ6u0na5AxY4ZvvqlC6vz69Q+sUEnQcG/fvt0CMsp/1oE0gmqHCSYKAODBP205JiqnT58+Q4YMkZaKoJfh9u3bd+rUSVohQomJXrlyxdHRsXPnzqSYHTt2fPHihbRF4vtEyVY3b95cpEiRUaNGJW6V8iSZT7mv6DVRFq9eTfzpp3q5cmVhD/V6XpxOlRo1Kvb+/WRanju3abZsmWjh7NlvSLYmTpTuUW/jOF03Mnxm9uwmzNLYRkj4Tp922bmzCy1fuTKYRI0W1q1rx1YUf9Ktt4d6N0LtixTJWbNmIZJOcffkn86XKGHfrVs5Fh06lBabKAtJlvQeIKfPgonq7Sdr0KaNk3iPCoOGe9OmTe7u7r6+vpcuXQoPD4+OjpY+J1IC/rMOpBFUO0wwUQAAD/5pq9xEjxw5Ymdnd+HCBWnFZ8gXGzduXK1ataioKEnVtWvXSByDdezZsyd37txsmaDymzdvihsfOHDA3t7+22+/jY+Pf/XqFamtk5NTaGiouI1W3zeW3r59q9dZU5Yk8yn3Fb0mumpVa9K4ggVzlCqVR4mJCp8vL17szNxrx47O5FL79vWUbFlv4zhdN3r1qhAQMChv3qzt25dmhWwj1IdKlQqw8PTsyiyNWrI2SZqo3o3E6cyvbNl8VEV++ejRpyugcfpMlPPpvN4s6T1ATp+F9ob6Kd6gUUHDTW+BtmzZ4uXl5efnd+PGDfmTP0XgP+tAGkG1w2RRE1Xt3bgAWC/8yVGJiZLezZgxgzTU0GfuGo3G29u7TJky7dq1e/PmjbRaq61duzYZanV9UDnVsmYBAQHdu3cnDXVzcxPWTUhIGDhwYKFChUhnhUKtPhO1DPxpUKGJ+vl9LVzAW7CgudhEp0ypz5a//roS30TPnHGhjUyd+m97IfQ2jhPdJ7p1aydakariPl8mXLu2rXgLgYFDqNDLqxt7uGJFK7GJynuodyMsaC1yxBw5Mv/4Yz1WQibq4lJZaMAxUUNZ0nuAnD5LronK+2mKiW7fvn3Tpk3sM/pLly5FRERInxMpAf9ZB9IIqh0mi5ooAMDqMNFE+/btS8LXoEEDQ1dDnz59WrNmTQcHh9WrV+v9krtyXFxcvvnmm4cPH0rKabM9evSYOHGiuPDmzZs2NjbiEqN4/ygqbJ1P7PMU/izVkIl2714+JGQki3v3vvP27k5KtHt39xMn+jdsWMzWNuOLFxOoZePGxevXL3rlyuDx42tTA76Jfvgw+csvHQoVyrFpU8eHD8f4+PSIjp5oqDHrhvCNpV69KmTJYnvp0iB2s2nZsvl8fXu/fTuJdh0WNooalChhTx07fdrFza0DeaRgdXp7qHcjr1//QM539+6ox4/HFS2aa/jwGmzX/ftXLlMmb1TUp9tGWa8MmaihLBk6QEN9Ftrr7adkg0YFDbeHhweZ6NatW3fv3n3q1Knw8HDpcwKA9A5MFADAw0QTvXjxYpK/lEQvxma6PU4gLi5OormRkZFr16415b99Rp68sidfy9MdJ0aduSqtSy6GTDSDiHLl8pEStWjxBS3b29vNmdMke/bM5cvnp5Z79vRwdMyeMWMGZ+eSo0fXEky0ShUHesiWlyxxpvZs+c6d4V99VZhttkiRnOSjnMZiE3369PvChXOWLp2XfDE0dGSTJsVpC7TfvHmzUh+owbZtncjwqJDWmjixTobPVmeoh/KNkFOWLJmbHtrZ2bZsWfKffz71LU53KfeLL+wzZbJhFzv1muiKFZ9M1FCWDB2guM8//FBX6LO4vbyfkgZGBQ23p6en+AP64OBg6XMCgPQOTBQAwMNEE03fkIx6ZWnokbHOviLtb/+2zfRLpHpN1FBERIwl2aKFFy8mPH/+7zXC9+8nkybKG3Pi8eNxxq4iD+qA5F9ivns36f79TyXiey7juD2UbyQqarxwaELQpu7eHcW+6Z9k6M2SoRD6zA95P5MXMFEAtDBRAAAfmCgfktHduZqRjHpmbuhl1+hUB5MukRplotYSEhNFCAETBUBrYRNV7d24AFgvMNEkEWT0021/GersytaYc4mUPw2mSxO9eHHg9On/fl8eIQ6LmSj/WQfSCKodJouaKP8lDQCQBuGftsy9EHrD277Foz/85eWSkORT7iuI9BoeljJRydMMpE1UO0wwUQAAD/5p64Frorprot7ZGjOt9MrScHeeFgdKdQ1aupNdE00ygZKHcl9BpNeAiQIxqh0mmCgAgAf/tIWJChq6O6/zrmxNzvX5WXKfaJIJlDyU+woivQZMFIhR7TDBRAEAPPinrcpN9NN35zM38MhYV3wRVEKSCXR1dXVzcztz5gx7KPcVRHoNmCgQo9phsqiJqvZuXACsF/7kqGYTZb8nKr8IKsGoBHrI7iJFpO+wjInixdcqUO0wWdREAQBWh4cxIqUelP+PpeQlkKSE1IQEhTTFE6RrLGCiAKRlYKIAAB7JEykgkLwE+vv779+/393dfTNQATTQNNw06Phvn0CFwEQBADySJ1JAIHkJDAwM9PPz8/HxIUfZAtI1NMQ00DTcNOgRERHipwEAagAmCgDgkTyRAgLJS2BwcPClS5fITvbv3+8F0jU0xDTQNNw06FFRUeKnAQBqwKImqtq7cQGwXpInUkAgeQmMiIggLwkMDPT39/dTN5tHTpMWpS9oiGmgabhp0KOjk77zOBngxdcqUO0wWdRE+TMyACANwj9tDYkUEEheAslIoqKiSE3Cw8OD1c3yzDWlRekLGmIaaBpuGvSYmBjx0yCl4D8JQRpBtcMEEwUA8OCftoZECggggSbCTyBQAnJoFah2mGCiAAAe/NMWIpUkSKCJ8BMIlIAcWgWqHSaYKACAB/+0hUglCRJoIvwEAiUgh1aBaofJoiaq2rtxAbBe+JMjRCpJkEATwQuH6SCHVoFqh8miJgoAsDogUiaCBAIAAAeYKACAB0TKRJBAAADgABMFAPCASJkIEggAABxgogAAHlYtUqdPnz548KC01LJYdQIBAMDcWNREVXs3LgDWi/lEyhw/4v3q1audO3ey5f379/fv33/QoEFHjhxJ3MqimC+BKgEvHKaDHFoFqh0mi5oof0YGAKRB+KdtskXq6dOnGTJkuH//vrQiMQEBAZ6enl5eXh4eHjt27Ni6daubm9u+ffuk7T4TFBSUI0cOtrxx48YVK1asX79+8eLFrOTJkyf/NTWMsTvlY6YEqgd+AoESkEOrQLXDBBMFAPDgn7bJFqlnz56RiUZFRUkrEjN9+nQnJ6dq1arVqlWrXr16jRo1yp07d6VKlcRt3rx5k5CQwJZDQ0OpAVv++PHj119/3atXrxcvXtBDalOqVCkXF5d3794J6+pFyU6VY6YEqgd+AoESkEOrQLXDBBMFAPDgn7bJFilmos+fP5dWcHny5Im9vf22bdvEhaSMGQzj7OwstDx//ryDg0Pt2rWZmwr4+PicOXNGXCJG706VY6YEqgd+AoESkEOrQLXDBBMFAPDgn7bJFqmoqCjSRIkRJsnAgQPLli0bHx8vLgwNDQ0KCgrW4efnlytXLrZMUHl4eLi48d27dytUqNClSxeh5PXr10WLFh0+fLioVSL07lQ5ZkqgeuAnECgBObQKVDtMFjVR1d6NC4D1wp8cky1SkZGRZKIvX76UlD9+/FhSInD+/HkbG5s//vhDWqH7olKdOnWePn0aFhbGPp2/cOFCnz59pO100E5JXoWHEyZMcHR0NHR1lrNThZgpgeoBLxymgxxaBaodJouaKADA6jCTSLFvLEVHR4sL79+/X6BAAZJIcSEjODi4ZMmSDRs21Gg00jqt1tvb28nJiRYEE3379m3evHlv3bolbZqY06dP29raCl+3l8DfqULMlEAAAEgfwEQBADzMJFJPnjwhE339+rVQEhERUbNmzV69esm178qVK46Ojp07dy5fvnzHjh3ln+k3adJkwYIFWpGJEj/++GO/fv0StRMRGxv7888/Z8mSZdmyZdI6HUnuVCFmSiAAAKQPYKIAAB5mEqnHjx+Tib5584aWST337NlD2kca+v79e0nLAwcO2Nvbf/vtt/Hx8a9evWrfvr2Tk5P44/VDhw5Rg8jISG1iE/3nn3+yZ8+u9worFVatWpVqab/SOh1J7lQ5ZkogAACkD2CiAAAeZhKpiIgIMtF9+/b9+uuvFSpUKFas2O+//y5pExAQ0L17dzJCNzc3oTAhIWHgwIGFChW6du2aVveBft68eTdv3sxqxSZKzJ8/v0SJEsx3X758Sc1++OGHcuXKZc2a9fvvv9d7T6qSnRqFmRIIAADpA4uaqGrvxgXAejFRpGKfR4et83n/SPq7oWSidnZ2X3zxxeDBgz09PT9+/ChpQLi4uHzzzTcPHz6UlMfHx/fo0WPixIlanSOKf3M+JCQkV65cwsO4uDgvLy+2HBkZWapUqeHDh+/du5e5qV6U7NQoTEwgwAuH6SCHVoFqh8miJsqfkQEAaRD+acsRqagzV8/1+XlP/laRJ69IqhjyL84rhxRT788qPXjwYPTo0dLSFMLQTvkkO4GAwU8gUAJyaBWodphgogAAHvzTVi5Ssc+jg5bu3P9FZ4+MdXZlbWxIQ9WDsQkEEvgJBEpADq0C1Q4TTBQAwIN/2opFKurM1bM9p3pla+yds5lX5vp78rSAhmqNSaC0DujgJxAoATm0ClQ7TDBRAAAP/mlLtbN/nLa+2ygvx9be9s09betTyS67htBQgSQT6Orq6ubmxvl3oyqHn0CgBOTQKlDtMFnURFV7Ny4A1gt/cqRa98yf7BOR7Fi+fLmXl9dff/0lTS7QgRcO00EOrQLVDpNFTRQAYHV4JGWicyZN3VSnr2fWRoJaHak1YK9Da1wTleDq6jozMVRCGrp169ajR48GBQVJVwAAABUAEwUA8EjSRIXbHB94HvWt3NcjYz0qPFi6G2RUgpub2/LEUImXlxel7q+//pL/bhQAAKgBmCgAgIdyE2UlH548vzhotneOph4Z69BfyKjAmTNnjiaGSshBg4KCSEOjo6OlKwAAgAqAiQIAeBhrogIPPI+ecB7D+T1RAAAAwKImqtq7cQGwXpJtogxD/2NJtWAaNBZkzHSQQ6tAtcNkURPlv6QBANIg/NM2SRMFEvj5BHKQMdNBDq0C1Q4TTBQAwIN/2sJEjYWfTyAHGTMd5NAqUO0wwUQBADz4py1M1Fj4+QRykDHTQQ6tAtUOE0wUAMCDf9rCRI2Fn08gBxkzHeTQKlDtMFnURFV7Ny4A1gt/coSJGgumQWNBxkwHObQKVDtMFjVRAIDVARMFAABgPmCiAAAeMFEAAADmAyZqUcLDw+Pi4qSlAKRhYKIAAADMh7Wa6N27d21sbLLoWLRokbT6MyEhIY8ePZKWJgVnrSdPnrx580Zaqg8yzj///PPdu3fsIa24Y8cOFxeXn3/+OXHDpBk9erSPjw8t3Lx5U1idXvt37dolbqawb9988427uzstxMbGTps2beZnJM2Cg4MnTpzo6urKHoaFhVWrVi1xk09oNJqrV6++f/9eWmGY/fv3h4aGSkv1MX/+/JcvX0pLP7N79+4LFy5ISw1AA5qQkCAtBQqAiQIAADAfFjXRFLwbl0y0UKFC4pJ//vlnwYIFzs7OAwYMWL16NSusUqXKmDFjxM2UwFmrV69eClWSvCdv3rwBAQHsITliuXLlPD09HR0dJR5GVWfOnKHX8oULF54+fTo+Pl5cSwwdOpSkk8Tx6dOnpUuXvnz5Mi0UKFDg77//joyMFJop7FufPn2YiUZHR+fMmXPZsmVLly7Nli2b0ODIkSPUSVJ8yuRvv/1WqlSpSpUqlS1blkoq66ASZsZanc5myJDhxo0bwupJ0qxZswMHDrDljx8/cgTRwcHh4cOH0tLPtGrVatOmTdLSxHz48GH69OnUZzrS/Pnz0xG9fv1a2ghwgYmmLCk4DaoEZMx0kEOrQLXDZFET5b+kGYXERMlmypQpU6FCBXpR7NKlS61atVg5xyk5cNaqWLEie8X9v//7P/JdNze3FStWkP916NBBo9FIGrdp02bDhg3CQ7I36tvt27fF7uXr65snT57ixYvb2tqSWtEC7T0oKIjVvnjxgnSTFHPx4sXz58/PlSsXNc6qw97enpZprWfPnrHGSfbt3r17x44da9myJWWJlDckJKR8+fJs3Rw5ctBfEjtySpJLEtzBgweTL8bExDx+/NjPz+/0Z2gLr169ojZsRWaihi4hM2hH/fv3nzFjBr1VIPF1cnLq2rUrlTRo0IAMmB0s9XDJkiV0jCSOEyZMGDFiBFkjHSblkBq3b9+eui3ZLI34xYsXhYfXrl0TVf7LpEmTChcuTO5Oy5cuXaLnzNixY6WNABf+aQsTNRZ+PoEcZMx0kEOrQLXDlE5M9ODBg+RDpBrsoSCFHKfkYGitjx8/Zs6cmeyQlknU6tSpU6NGDdIp8svx48dTraQ9SdXQoUOFh2FhYeJLmMTGjRtJAffs2UM+lyVLlgcPHrx7946sq2zZsqSA1ODw4cOlS5e2sbEh6aRdsLV+//33qVOnsmVBapX0be/eveTo+fPnJ4dr27btqlWryHHZ6mSElLRBgwbt2rXrn3/+uXLlSufOnUlkyZvJ9goUKND+M9Thp0+fsrW0ugu6lHm2X0PQUf/666+TJ08eNWrUwIEDixQp0r17d1dXVw8Pj8DAQOHG2Xr16lE5ZYw6PG3atLlz55J5z5kzh46XxJpcnDWjfpL4kvfQfsluyZ6jo6Pfvn1bsGBB+SVSsvOVK1cKDydOnEg5EdWDpOGftjBRY+HnE8hBxkwHObQKVDtM6cREz507R14yb948UZNPiJ2SnKZu3bp2dnZVq1YVXjUfPnzYu3dvBwcHKi9XrhzzP2EtMh5aZfbs2awxaZmjoyNbVsKxY8ecnJyeP3++bt26Vq1akSmSMQu1jx8/Jilkn1PfunUrd+7crJzMrFq1akuXLmUPSfVsbW1pO1ROPaSqwoUL04q0UKFChSFDhrBmyvvWv39/T0/PEydOFC9enPLGCtu0aUPKW7NmTbLMffv2de3aNWfOnCSs48aNu3z5cpMmTW5+pkSJEsJVWIKOjjJv1H2iJMF//vknLbx8+dLf319arRsU0kdvb++SJUuSFktqqVfU1UqVKtHxTpo0icySdJMGjsbU3t4+JCRE0l6QddJ9Gs0RI0YkrgdJwD9tYaLGws8nkIOMmQ5yaBWodpjSiYlqdX5DStSxY0exi4hNdP78+SQ35FKNGjVq3ry5Vud81atXz5cv3+LFi8kFycDYPZpsrejoaLK9Fi1aCJ9Enz17llTm87b/u/JqCObHuXLlIrHbtm2b+FIiMXfu3Pbt27PltWvX0o6Eql9++aVnz55seceOHbSRYsWKTZ069fr16zdu3KDaYcOG3dAREBDAvqWkvG9korQ72siyZcuuiRBuaSUePHhAOy1QoMDbt28p1cOHD//uM7QsvtWSZJ1acu71ZFDO6Q1A/fr1GzdunDdvXpLpUqVKffnll8JhCly5coVqabD69u1LW5abKHu3MH36dPY5O7sfl311aeLEifINMoKCgr766qtatWpFRERI67TaWbNmkVJLS4EO/mkLEzUWfj6BHGTMdJBDq0C1w2RRE03Bu3FJj8hXxCVkJHPmzMmmY/v27axQ/jk7qRUpHdkhLZ8/f55cZ9KkSeIGWt1apHpkqyRP5KNCua+vb6tWrdiyj49PmzZthCo5P/30U/78+X/77TdD3/7u3r37kiVL2DJpqPAtK63ue/FMTMm6ypcv36RJk1WrVlG3nZ2dBw8eTMbp4OBAC717927ZsiXpqVZZ38ggDxw4ULlyZZL4RYsW0S4oD/11kMFTKm7fvs1azpgxg6pq1KjRrFkzSkKdxFCJIKP37t3LlCnTf/v4DHXvyZMnwkMaHcp8ZGQk6Tjty9PTU9Q2EaNHj6a9a3U/BUBdOn78uLSFjooVK/r5+bFlUsxjx47RAllm1qxZg4ODEzXV3bpQsGDBcePGye+gYFBC6BklLQU6+JMjTNRYUnAaVAnImOkgh1aBaofJoiaasuj9RDg0NJS8JGPGjPfv39cmNlFSveLFi5ORODk5MRP18PAg1xF/Ys6gtbJkyUJVbm5u4vJ9+/aRRU2YMOGff/4pWbLk2bNnxbViqCWpkljF5Li4uLBbGG/cuJE9e3bxFdPWrVuTNtHCr7/+ym6d9Pb2Js0qV64cadbvv/9Ofbt161avXr2mTZvGVlHSNxL0bt261apVi4lgfHx8pUqVTp06pdFo+vTpM3HiRNaM1Jb09+uvv6b8LF68uG/fvmSo27Zt27Fjx5YtW54/f16iRAkh+WFhYXZ2dsIuGFeuXKH3A5KbRy9cuLBu3bqFCxeS4Ar3HsjZvHkz9Z8akEzTYa5fr+fMJD0tWrSocINp6dKl//77b7ZM7yvoiP5rqoMkKXfu3IY0VAsT5QITBQAAYD6s2EQN4e/vLxiMYKInT56kQvZNdpIhZqKspfyXj2itUaNG9ezZk3SKVhTKjx07VqdOHaqNjY3NmjWr+ONsCS1atFixYoW0NDEkdrVr17569Wq9evXmzp0rlJOukZiyewyOHDlCZslMlB76+fn98MMPjRs37ty5c86cOUkWhZ98Ut43dp8oWz5//jwpHR1py5YthZsQSGcPHTrEvjtPmyUTJYnv168feTl19dq1a2ITJd0k73/79i17SLx7946aDR8+XCjR6gSR7Hbq1Km0qZo1a1Jiq1evvnPnTnEbAR8fnylTptCxFylSRPgWmph27dr99ttvbDk6OjpTpkziW1flnDhxgg5KWioCJsoBJgoAAMB8pBMTPX78+Nq1a8PDw0mJyDns7OzCwsK0IhMluSHp3Lt37+nTpxs1amRra/v69eu4uLiqVauShWzduvXJkyf79+9nP0TP1iIza9u2LTmrYHU3b96kjcyaNYuWp02b5uDg0KlTp/Hjx5Mpkh2KbZJqa9SoQZ4nXIf78OHD33//zX5OiEFdpe2TNX777bdxOmhH5H+Ojo6+vr5CM63u90TZHa6jR48uU6ZMjx49SOnIdEnphNsolfdNbKIXLlxwcnKiFceNGyf8EhO71ig20TVr1tC+SHxLliwZGBgoNlGiVKlSs2fPZiXUDTqocuXKSe5JoL0IvyFK+Xd3dyfZrVChQtOmTeXfMdLqbiRo3bq1cB+tGNJxe3v7V69e0fsK0kd6X0EKLm2UmFu3bu3Zs0daKgImygEmCgAAwHykExPduHEj2ScZVebMmatXr75582ZW/uWXX7LvtZBdOTs7UwOSGFdX1+zZs5MGaXU/dVm7du0MOooUKcI+TxfWIjElbcqfPz/7zcuYmBgbGxv2vW+t7lN1Mip6Dd6xYwepsPg3NUlAp0yZQhuk9tmyZaNesV2PGjVKaMMQLmrSHgsUKDB8+HD5Z/pDhgyhIypWrNi8efOePXvG7hnV6o6aVmH/aUlJ36gNOVmzZs22bNmyc+fODh06FCxYkBoEBweTrWbJkoWcWBCyQYMGkZofPny4d+/etPf//e9/ERERly5dIhOlhJBY/9s5rfbUqVNkcnSYtDU6UhJW8c21jPXr1+fNm7dly5Zf6GDHSBsh36UuiVtS6qZPn06bateunfhSqwApPvvPT6S89I6C9si3TK3uB1aFnybQC0yUA0wUAACA+bCoiSZ5N27s8+iwdT7vH0VJKxRASnfnzp0HDx5IK0Q8ffqUXfB7/fq12JaioqIUfnU6ICBALGFJkpCQ8FyH8Nm3IaiBoS+8kwtu2rSJFI3MrGjRoqSkgnuRFwpfBk+yb9SNunXrdunS5fr166RxZIfi/w7q5+dHOxJ+H54cce/evb6+vsJvjmp134siZ5X/ODx1nlb866+/OIcZHh5+8ODBs2fP6vVLMQsWLDh06JC09DNkscJhUk7YV+mTBzl9IR0k8dQ9aTXQARNNWZKcBoEEZMx0kEOrQLXDZFETNfSSlhAT+/eMtcebj9qTv1XkySvSatVDepfkzySBZECJff0ZaR34jKHTlgETNRZ+PoEcZMx0kEOrQLXDlMom+uz838ebjvS0reeRsa53jqbQUADSGvLTVgxM1Fj4+QRykDHTQQ6tAtUOU+qYKLsI6uPYlkoo/BoP3+vYBhoKQBqEPznCRI2Fn08gBxkzHeTQKlDtMFnaRP+7CKpzUIrz/aZDQwFIs/AnR5iosfDzCeQgY6aDHFoFqh0mi5roeZdfvHM2o1x7ZaovmCgCgUjjIT2TRXjARI1EtV9KSDbImOkgh1aBaofJoiaq1X07PmjpzkPle+0t1G5vwX8/nd+dE3eIApBGgYkCAAAwH5Y2UYGoM1fPu8z0ztnsQKmuXpnqQ0YBSJvARAEAAJiPVDNRhnCJ1NOm7q6sjSCjAKQ1YKIAAADMRyqbqAC7RIrfEwUgrQETBQAAYD4saqJJ3o1ryv9YAgCYA5hoypLkNAgkIGOmgxxaBaodJouaKP8lDQCQBuGftjBRY+HnE8hBxkwHObQKVDtMMFEAAA/+aQsTNRZ+PoEcZMx0kEOrQLXDBBMFAPDgn7YwUWPh5xPIQcZMBzm0ClQ7TDBRAAAP/mkLEzUWfj6BHGTMdJBDq0C1w2RRE1Xt3bgAWC/8yREmaiyYBo0FGTMd5NAqUO0wWdREAQBWB0wUAACA+YCJAgB4wEQBAACYD2s10ejo6ICAgEePHkkrEqOwGQDAEDBRAAAA5iPtmujdu3dtbGyy6Fi0aJFQ7ubm1q9fv3Hjxq1cuXLMmDEdOnSgV8HY2FjRqkY0AwDwgYkCAAAwHxY1UaPuxiUTLVSokLjkw4cP/fv3X7NmjbiQoJIRI0YIDxU2AwAoASaashg1DQItMpYSIIdWgWqHyaImyn9JkyA30SlTppw8eVJcIkDlrq6ubFlhMwCAEvinLUzUWPj5BHKQMdNBDq0C1Q6T1ZjotWvXvv/+e1G9lLFjx4aGhipsJi0FABiAf9rCRI2Fn08gBxkzHeTQKlDtMFmNic6bN49vkFS7fv16hc2kpQAAA/BPW5iosfDzCeQgY6aDHFoFqh0mqzHRoUOHiir1oNFoxo4dq7CZ8HDWrFnPnz8X1QMAEsE/bWGixsLPJ5CDjJkOcmgVqHaYLGqiRt2NSyZauHBh4eHw4cNFlfr59ttvFTYTlkl2aUeiSgBAIviTI0zUWIyaBoEWGUsJkEOrQLXDZFETNZb3798Ly66uri9evBBVSqHaSZMmKWwmPISJAsAHJgoAAMB8pGkTFXP+/Pm1a9dKS0VQ7cGDBxU2Ex7CRAHgAxMFAABgPqzGRBMSEoYNGxYWFiat0EHlAwYM0CpuJgATBYAPTBQAAID5sBoTJT5+/Dh8+PAjR45Iyg8fPtytW7eoqCj2UGEzBkwUqJP3j6LC1vnEPo+WVsiAiQIAADAfFjVR0+/Gfffunaura79+/X755Zft27fT3wEDBsybNy8uLs6oZqtWrSqkw8bGJjw8XLwuACoh8uSV3bmbn+s1LerMVWmdCJhoymL6NKg2kDHTQQ6tAtUOk0VNlP+Sppz4+PiQkJDjx49HRERI60RwmsXGxr7+jKQKAPXw6NBZT9t6HhnrHCjZJWjpTr2XSPmnLUzUWPj5BHKQMdNBDq0C1Q6TVZooACClIBn1ylyfzk1v+xa7sjWWXyLln7YwUWPh5xPIQcZMBzm0ClQ7TDBRANSOIKMUnpka7M7dXHyJlH/awkSNhZ9PIAcZMx3k0CpQ7TBZ2kQRCETaD+8cTejv7jzOj/7w9+BOjh4wUSPh5xPIQcZMBzm0ClQ7TBY1UdXejQtAWib0992eGesyBz1Upvu+oh18K/bGNVEzgWnQWJAx00EOrQLVDpNFTRQAkNZgGuqdvYlvxT7e9s3Pu8zEfaIAAAD+n707gYui/P8AjiCHF4iIkjcoYuRRmIJn5o1XHnmjiJZlpiVqv36/pLIk/1aamWlmm1cKrIjiWSZeFKiEVx5xKHmgCELigeJy/L/u6DjMLM/usrDtMJ/363n52n3mmdnd7zyz+3F3djEbJFEA5XoUQ206RVj7Ct8EFUESBQCAioMkCqBQj35P1Lm39E1QESRRAACoOEiiAEqEv7EEAACWwKxJVLFn4wLIF5Jo+cLToLFQMdOhhrKg2N1k1iTKfkkDAAvEPmyRRI3FridIoWKmQw1lQbG7CUkUAFjYhy2SqLHY9QQpVMx0qKEsKHY3IYkCAAv7sEUSNRa7niCFipkONZQFxe4mJFEAYGEftkiixmLXE6RQMdOhhrKg2N1k1iSq2LNxAeSL/eSIJGosPA0aCxUzHWooC4rdTWZNogAgO0iiAGZWcO++uAug8kISBQAWJFFzonqioVFL/jpMPDkAKikkUQBgCUcSNSOqp0bzHzSFN5oGajs/hFFQCCRRAGBBEjUnJFE0jTaJpu99A2EUFMKsSVSxZ+MCyBeSaPliPw0iiaJptEmU/uXC6OH3v0pLS8vKynrw4IF4uhiMPevAQih2N5k1ibJf0gDAArEPWyRRY+mtpzSXoCmt8dOAC6P7ghclJyebEkbZsw4shGJ3E5IoALCwD1skUWPprac0l6AprQmnARdG97670JQwyp51YCEUu5uQRAGAhX3YspPozZs3CwoK+KsajSY7O1uwvIRVq1bt2rVL3FthMjIyvvvuu8LCQvGCCqa3ntJcgqa0JpoG2jDqa0oYZc86sBCK3U1IogDAwj5s2UnUxsbm9OnT/NVDhw7VqVNHsPypO3fuuLi47Ny5U7zASAkJCREREWq1Ojw8fOPGjevXr1epVNHR0eJxxcVnz56luyfurXh66ynNJZbZ/vpr6uXL06X97Fa2teTSMjPfOXVqCnfZlEcqnQYmhlH2rAMLodjdZNYkqtizcQHki/3kyE6i9vb258+f56/GxcW5ubkJlj8VEhJiZWU1dOjQgQMH9u3bt0ePHkFBQcIBA7QGlUQ9/v7+wmHz5s3z8PBo165d+/bt/fz8unbt6uTk5O3tLRzDSUpKsrW1FfdWPPbToDSCUPvss5eCgztS++ijrrt2jcrPf086xvD2/vuduK2JGiM2paW9tXBhj549m06Y0Hr58r5c53PPub71lo90MLuVtlZo6EthYa9I+yuoUUk3bXp6c3fvzqEKHD4cIB1pVFu5sh9N44cPH10u7ZEa0nROA1PCKHvWgYVQ7G4yaxIFANkxJYk6ODgYkkRPnz5NI+fOnfvFF18sXbp0xYoVvr6+PXv2FI6hW1mwYEFoaOjbb79Ng0O1FmgJh4lkZGQ4Ojpu2LBBvECbRO3s7MS9/zadEcTDo7a7e+3+/T1q17anoPPaa89Lx7BbXNxEatzliRPbjBnjTa1pU6eaNe24y9QuXJgmXZEaBd/mzZ29vFxCQroMGeLp4+PG9ZctaZW2VrNmTpMmtZX2C5vwURjbROtSSQMD2/BXb958lwr79dd9pCsa1So0iWpMC6MAFgtJFABYyjGJ/v77740aNRIsfyQnJ8fHx2f16qdvBmg0GgqsYWG6f0nx5MmTpX3ELxUYGOjp6Sk8V5VHSdTGxubcuXPiBf8qnRGEYtPkye002lDYooWzk5O9dAy7+fk1nDixtaiTemhr0sGiFh39KqWr+PjHMY6LWZqyJq3S1jIkiep8FPz9YTfRuv9KEjXwrmq0SZTZfA98ux5hFCoNJFEAYDEliYo+nT9w4ECLFi0Ey4vPnDnTvHnzJUuWCDvDw8MbNGjw8OFDYSfP8CQaHx9vbW29Z88e8QItSqK0lDbVqVMnlUplIa/o7CRKbejQlra21vfvz01Le4suOzs7UBs+3OvSpcefrVNw7Nq1kZ2dTcOGtc6de516Zs/2tbe3qVXLztOzztq1g/jNSpOozm0ePhxA6WrBgpeEIzUlk9b8+d06dmxAt9KmjevPP4/mOv/++62RI1u5ulanfrrpu3fnCNe6fHk6rfLxx924wcIkOmhQiw8/7DprVsf69Wu0bVvvl1/GaHQ9itTUaX36uDs4VG3a1CkycrhR67KTqM6Ho3PL1C5cmNarV7Nq1aq2auUyYoSXziRa2l397387jRnjXaOGbUrKm/yd0dtokmzfvj0uLg5hFCoHJFEAYClzEi0qKnr22WdTUlL4nrCwsBdffFEwpHj//v2LFi0S9tAra/369VeuXCnsFDIwidKLdLNmzbp06UJ3Q7xMi/t0/t69eytWrPDy8mrYsOHy5cv/9Rd1RhKlfBMbG0AxdNo0nwcP3nv++foUfbZsGU7Jhi74+Ljl579H/ZT8Xn/9+dTUNykqUcCi1SnltG7t6u/fPD5+Ynr6DH6zoiRa2jZpUb9+HhSwBg5s/tdfU/nxwqQVGvpSRMTQ06endOnSqEePJtRDWbldu3p16jh88UXPP/98LSpqBG2fXys7+10Kcy+/3PTevUfxVFMyidKYqlWt+/Z1V6uHdejwTKdODTWSR0F3jLZAEfDo0cDp09u7udUwfF2NtqS0dMmSXlyj+y9MotKHU9qWaadQ0WjRnj2j9+4dQ8lVmkQZd7VKFasJE1rTfx5u357NdRrSaJL89NNPCKNQaZg1iSr2bFwA+SpzEpUaPXr05MmTxb0C9II6YMCAwYMHixcIGJJEExMT69WrN2TIEIqYgwYNysnJEY8oeZ4opdW1a9c2aNBg2rRpJUeVP/bTYGlJtH79GpRgKOVQOqQs9fvvE+jyypX9uAHfftuXrh45EkgZqEGDmjSG/zCdazo/1xYl0dK2qdFmqfnzu1WrVpXaunWDuQHST59v3Qr+z3/8atWyo8u//fZoa8HB4odDa02Z0o7iHYU2yqN8vyiJdu3aKC9vLl1esOAlulGuX/gouO1TZDx8OCAs7BW6nJgYZOC6Gm1JmzRxHDasJdcoZEs/nRc+nNK2TOGSVvz+e39ujM5P5xl3lSK+8BYNbDRJ1qxZs2nTpt27dx87diwtLS03N1c8k0pizzqwEIrdTWZNouyXNACwQOzD1vAkunfvXnt7+yNHjogXPEF5sVu3bu3atcvKyhItOnXqFAXHZK2oqCgnJyfuMqH+s2fPCgfv2LHD0dFxypQpBQUFt27domjr4eGRmpoqHFOs6xtLd+/e1ZlZy5feekqTB8Wm7t0bq9XD/vjjUYKhtnHjEAo0x45N4q5SXqSr4eFDNdrc4+lZx0r7Fua1a4/fATUkiTK2ybWkpDfat3erUsWK+26TMIkuX963cWNHisvu7rW56MZtLTr6VeEtcmvZ2dnQotWrH6c3romSKL/lxYt76UyT3Pbp5ry963ItIuLRXTVkXY2+T+elD6e0LXPJMiHhcdF0JlFD7qpRjSYJ/cdp3bp1arU6JibmzJkz0kNGhD3rwEIodjchiQIAC/uwNSSJUrwLCQmhGFraZ+5FRUWRkZEtWrTw9/e/c+eOeHFxcYcOHSihPq8L9dNSblhCQsLw4cMphqpUKn7dwsLCwMBANzc3irN8Z7GuJGoeeuspTR7C80S5duDAeAo3a9Y8Punzhx8G0NXY2Mc/QkRJiBJSjRq2773nx/VQDgsIeE60WVESZW+Ta3SVOlet6q8RBKmYmHFWT94XXLToZS66cSP/+99OwtW5td5444URI7woydGKfL+BSZR/FNwbjdw9EW1f77oaZhLV+XBK2/KJE5NpMP0ngetftqyPNIkacleNauHaT+fXrFnDfUZ/7Nix9PR08UwqiT3rwEIodjchiQIAC/uw1ZtEx4wZQ4Gvc+fOpb0beuPGDR8fH1dX1xUrVuj8krvhAgICJkyYcPXqVVE/bXbEiBHBwcHCzrNnz1pbWwt7jJJ3LevC91vzs/V8Kiqlt57S5CFNonfvznF3r92lS6PTp6ckJgb5+jZo3tyZOm/fnk2J5+LFadevz2zYsNbUqS9w48ePf45CZ1bW00/DNZIkWto2f/117MqV/VJT37x1K/iddzrY29skJ7+hEQSpyMjhlLS2bBlOWZZWt7GpkpMz6/79uW3auLq51aBoe/Xq21u3jsjNDebXundvTr9+HhTyuE//NYYlUeGj4M5D9fSss3v3KLqTdIel79SWtq6GmUR1PhzGlps0caRhhw8HqFQDKf1Lk6ghd9WoRpMkPDyckuj69eu3bNly6NChtLQ08UwqiT3rwEIodjchiQIAC/uw1ZtEjx49qveXkuhlVe+JbibSaDSimJuZmblq1SpT/tpn5sHEqDq948aFZMWeFC8rnd56SpOHNIlSo0Dj7V3XSqtt23rHj0/WaBMVRboqVawoL/bu3ezKlbe5wbGxAU2bOlatas2f0aiRJNHStvnDDwNoa9Rja2tNiYryFje4dWvX6dPba7RJq2fPpjTA0dH+00+7V69u6+XlotH+kaEXX3yG21qDBjUpjwrXomBKAc7FpRr3BX8KwUFBj5MoP4bakiW9aIPcZdGjoHDcvXtj2jg9Xmdnh6ioEYavqzOJLlv2KImW9nBK2/KGDYMpldJ42ubs2b5WT5KocLzeu2pUo0kSEREh/IA+OTlZPJNKYs86sBCK3U1mTaKKPRsXQL7YT456k2jldmN/gtq2c3gV350thid9FWbIW6Tsp0GdSZTRrl2bkZExU9SZlfWu8MtAXKN4dPHiNO4L7Owm3Satdfbs67S6dDDf0tNnUIajCzk5s4S3fv36zBs33pGOL1uTPgq6LcZfh2Kvy2ilPRyd7d69OfyvaDGa4XeV3cqQRNmzDiyEYneTWZMoAMgOkigbhdHNDl2pDtueGbC5xkvGvkUqYmwSRVNgK0MSBbBkSKIAwIIkqhcfRqltqdkjyqWP4W+RiiCJoultSKJQySCJAgCL3iSKVlqLdOx5bU+ctF/URPWUJg80NGELRxKFygVJFABYRFFJJBzviWq/urTF8eUIa18uWartumyt3//spyruPVG9BRRdlSYPNDRhQxKFSsasSVSxZ+MCyJfeIKXwJPo0hlr7Rdh2OdD7bdF5onoLKLoqTR5oaMJWhiSKF19ZUOxuMmsSZT8jA4AFYh+2Ck+iFEM32z86Q1T4JqiI3gKGhoaqVKrY2FjuqjR5oKEJWxmSKHsSgoVQ7G5CEgUAFvZhq+Qkyv2e6IE+M9hfljeqgOGSs0jR0KQNSbRSUuxuQhIFABb2YRuu1CRq+N9YKlsBKV5QyKCoQYEjQuHCw8U9gCRaGSl2NyGJAgAL+7AtLUgBr2wFjIuL2759+6ZNm9Yq3tdzPxR3gRZND5okNFXw1z4rB8XuJrMmUcWejQsgX+wnx9KCFPDKVsATJ07ExMRs3bqV0sY6ZVv23kfiLli3jiYGTQ+aJDRV0tPThZNHCi++sqDY3WTWJAoAslO2IAW8shUwOTn52LFjlDO2b9+uBpCgiUHTgyYJTZWsrCzh5AGQFyRRAGApW5ACXtkKmJ6eTgnjxIkTcXFxMQASNDFoetAkoamSm6v/fGUAi4UkCgAsZQtSwCtbASlbZGVlUchIS0tLBpCgiUHTgyYJTZUHDx4IJw+AvCCJAgBL2YIU8FBAAAAGsyZRxZ6NCyBfCFImQgFNhBcO06GGsqDY3WTWJMp+RgYAC8Q+bBGk9EIBTcQuIBgCNZQFxe4mJFEAYGEftghSeqGAJmIXEAyBGsqCYncTkigAsLAPWwQpvVBAE7ELCIZADWVBsbsJSRQAWNiHLYKUXiigidgFBEOghrKg2N1k1iSq2LNxAeSL/eSIIKUXCmgivHCYDjWUBcXuJrMmUQCQHVkHqcOHD+/cuVPca16yLiAAQEVDEgUAlooLUhXxc9y3bt0KCwvjLm/fvn38+PGTJk3au3dvyVFmVXEFBACoBJBEAYClgoLUjRs3rKysLl26JF5QUkJCQkREhFqtDg8P37hx4/r161UqVXR0tHjcE0lJSTVq1OAu//jjj8uWLVu9evXixYu5noyMjKdDS2fsjbJVUAEBACoHJFEAYKmgIHXz5k1KollZWeIFJc2bN8/Dw6Ndu3bt27f38/Pr2rWrk5OTt7e3cMydO3cKCwu5y6mpqTSAu/zw4cNx48aNHDkyJyeHrtIYd3f3gICAe/fu8evqZMiNGq6CCggAUDmYNYkq9mxcAPmqoCDFJdHs7GzxAqaMjAxHR8cNGzYIOykyWpWuV69e/Mj4+HhXV9cOHTpw2ZS3devW2NhYYY+Qzhs1XAUVUDnwwmE61FAWFLubzJpE2c/IAGCB2IdtmYNUVlYWxURRItQrMDDQ09OzoKBA2JmampqUlJSsFRMTU6tWLe4yof60tDTh4IsXL7Zq1eqVV17he27fvt2wYcOpU6cKRpWg80YNV0EFVA52AcEQqKEsKHY3IYkCAAv7sC1zkMrMzKQk+s8//4j6r1+/LurhxcfHW1tb79mzR7xA+0Wljh073rhx48KFC9yn80eOHBk9erR4nBbdKIVX/uqsWbPq1atX2ruzjBs1UAUVUDnYBQRDoIayoNjdhCQKACzsw7bMQYr7xlJubq6w89KlS3Xr1qUQKezkJCcnN2vWrEuXLkVFReJlxcWRkZEeHh50gU+id+/edXZ2PnfunHhoSYcPH7axseG/bi/CvlEDVVABlYNdQDAEaigLit1NSKIAwMI+bMscpDIyMiiJ3r59m+9JT0/38fEZOXKkNPYlJibWq1dvyJAhXl5egwYNkn6m371790WLFhULkih57733xo4dW2KcQH5+/gcffGBnZ7d06VLxMi29N2qgCiqgcrALCIZADWVBsbvJrElUsWfjAsgX+8mxzEHq+vXrlETv3LlDlyl6RkVFUeyjGJqXlycauWPHDkdHxylTphQUFNy6dWvAgAEeHh7Cj9d37dpFAzIzM4tLJtErV65Ur15d5zus1Nm2bVtaSrcrXqal90YNV0EFVA68cJgONZQFxe4msyZRAJCdCgpS6enplESjo6Pnz5/fqlWrRo0afffdd6IxCQkJw4cPp0SoUqn4zsLCwsDAQDc3t1OnThVrP9B3dnZeu3Ytt1SYRMnChQubNGnC5d1//vmHhs2ePbtly5YODg7vvPOOznNSDblRo1RQAQEAKgckUQBgMTFI5WfnXvh+a9418e+GUhK1t7dv2rRpUFBQRETEw4cPRQNIQEDAhAkTrl69KuovKCgYMWJEcHBwsTYjCn9zPiUlpVatWvxVjUajVqu5y5mZme7u7lOnTt22bRuXTXUy5EaNYmIBAQAqNyRRAGApc5DKij0ZH/BRlEufzIOJokUc6RfnDUcRU+fPKl2+fHn69Oni3nJS2o2ylbmAAABKgCQKACzGBqn87Nykr8J2eY2MsPbd7NC1tBiqHMYWEABAUcyaRBV7Ni6AfBkepLg3QSNr9tjhMVxt2ymy5kuIocXGFFC8DLTwwmE61FAWFLubzJpE2c/IAGCB2IctLf3kvf+tHjZtc+MB29z8o58ZQD3UEEN5egsYGhqqUqkYf25U4dgFBEOghrKg2N2EJAoALOzDlpZusuv8KH1W9eMyKJqx7euvv1ar1cePHxcXF7TCmTMQDIEayoJidxOSKACwsA9bWrpo8swNzQeFW/vy0Sp+fMi2ev3wnqhIaGjoRx999KF3n4+eoB6KoevXr//111+TkpLEK4AWewaCIVBDWVDsbkISBQAW9mEb/uQ0x707d//5v5VRrv24MBrT/Q2EURGVSkWF+rTOozdBOdSjVqsphh4/flz6u1HAYc9AMARqKAuK3U1mTaKKPRsXQL7YT458EuW/cJP128mYbm+E2/iFV/GNrIGzRZ+KjY2lKm2a9J9fn6AeyqBJSUkUQ3Nzc8UrgBZeOEyHGsqCYneTWZMoAMiOsUmUU5D34M//rdzfYxrj90QBAACQRAGApWxJlFfa31gCAAAoRhIFADYTkygAAAADkigAsCCJAgBAxTFrElXs2bgA8oUkWr7wNGgsVMx0qKEsKHY3mTWJsl/SAMACsQ9bJFFjsesJUqiY6VBDWVDsbkISBQAW9mGLJGosdj1BChUzHWooC4rdTUiiAMDCPmyRRI3FridIoWKmQw1lQbG7CUkUAFjYhy2SqLHY9QQpVMx0qKEsKHY3mTWJKvZsXAD5Yj85IokaC0+DxkLFTIcayoJid5NZk6gC5ebmJiQkXLt2TbygJAOHAZgfkigAAFQcuSbRixcvWltb22l9+eWX4sVPpKSklCHeMdbKyMi4c+eOuFcXlUo1duzYmTNnfvPNN2+//fbAgQPp1To/P79swwoLC3/66afs7GxRf9k8fPjQ2E0tXLjw5s2b4t6K8ffff9ODFffqcunSpU8//VTca6SioqKTJ0/m5eWJF5gRlfeff/4R9z6xZcuWI0eOiHtLQVOXZou41wRIogAAUHFknETd3NyEPVeuXFm0aFGvXr0mTpy4YsUKrrN169YU74TDDMFYa+TIkR988IG4t6T79++PHz9+5cqVon7qeeONN/irBg7jNWnSJCYmRtxbJjt37qxRo0ZgYOC6detOnDiRk5ND2ff69ev+/v737t3jxkRFRfXv359fxcXFhSrMX+XQirGxsaJOA1Eapmh74cKFq1evihZRDO3Ro4eoU6fjx483bdpU3PsEVfj111+fPn361KlTJ0yYMHjw4I4dO6alpYmG0WO3srI6c+aMqF+ozI+UQmFubi6lw/Pnz9N/Y8SLn3B1dZXWgdenT581a9aIe0uiBztv3rznnnuuZs2atLPoKLh9+7Z4UJkgiQIAQMWpJEmUXu9btGjRqlUrelF85ZVX2rdvz/UzMiUDY61nn32We8X9v//7P8q7KpVq2bJllE0HDhxYVFTEjXn//fcPHjxYYrUnqD80NJS7bOAwHoXgJUuWiDqlKEqePHlSrVZ/8cUXO3bsKO29zxs3bqxfv37s2LEUwnr27Dl//vz//Oc/lNvoXnEDKDxVrVo1MzOTu1q3bt2wsLCEhISCggJ+I7/88kvjxo35qxyKdHQHhD1fffVVUFAQBcEuXbp4e3s/88wz1apVs3pi7ty5/MjExET699NPP33zzTefrl86ui0PDw9x7xMajeZ///vfl19+uWrVqvDw8LZt29IMycoS/wF0LomW9i44x8BHSjdH/7vo27fviy++6O7u7uTkVKVKFf6RUh2KtW/B0n5cuHAhBcdZs2bR/zooNTo4OPTr12/o0KEDBgzo3bu3cJuE5vbRo0f5q6dOnRIsfGzOnDlU2D/++IMuHzt2jI6OGTNmiAeVCZIoAABUHLMm0XI8G1eURHfu3Emv9PQCzF3lQyEjUzKUttbDhw9tbW1zcnLoMkWrjh07vvDCC507d6bs++6779LSYm1KeOedd8RrClA+SE1NNXCYsOfzzz+nMMpfpdDG3RMOxUTKNJ6enhR97O3tKZ9RGKILdIc3bdrEDxMZN25chw4dfvvtt9u3bzdr1owu+Pv780t9fX3pcdEjrV+/Pm2HtkkbpMsnTpzgBhw6dIhukR/PCQkJocB3//59vodiJeUzSmmU2ul+xsTETJo0ydnZmUZSkrt79y43jIIjJVRXV9d69epRYB00aNDzzz//ySef8NuRSk5Opmlw4MCBzZs309YoTItHPDF79mwaeeHCBfGC4uI7d+7Q5BEWU8rARxoQEEBpnpL06tWro6OjY2Njhw0b1qhRI4qeSUlJ/OkNfn5+w4cPf+2116i8VJYFCxbUqlWL1vruu+/ovzeLFy/mhtE0pnxMCY/uHt3WmjVrcnNzqVy0C6RvkdL/kb755hv+anBwMM1MwfKyQxItX+X4NKgQqJjpUENZUOxuMmsSZb+kGUWURH///Xd6tf7ss88EQx4RZkp6padoRVmqbdu2/Kvm1atXR40aRemH+lu2bPngwQPhWpQDaBU+DJ0/f55CEne5NHQfRAlShJZSTDFwmLDnjz/+cHFxoQe+cOFCimh2dnZRUVH80n79+o0dO3b58uUUE/m3LSm1UGShEPnnn3/yI3kUjyjtcQ+ZbN269fjx48XawE2XAwMDHR0d6RYpKu3du5f71J7+nTJlCv/ROUV/illPtvcYJbMWLVqUliApXU2ePJm2oPM9SAqjdFcp3s2ZM0elUlFspZqLBwmkpaVVrVq1W7dugwcPnjZtGq0iHqFFMa5hw4Z//fWXeIFWdnY2TR72eaJleKS0lGL96NGjKT7+/PPPlGVpMF0WjqHpR/ExMjKS/hsgPfmBxjdv3pxCOc06KgglS4qbtL9o9tKuSUlJEY3nTw/Nz8+neavzHI8yYB+2SKLGYtcTpFAx06GGsqDY3VRJkijp378/5QmKVsJXaGESpQBHL/lnz57t2rXryy+/XKzNPRTp6tSps3jx4nPnzkVHR3MZjluLQkO7du169uzJf3/ot99+oxf4J9t++s6r0GuvvSbuKonWmjFjhoHDhD30Sm9tbV27du1Jkybt2rWLP6FTrwEDBixatEjcW1xMD02tVnOXhY+FHm/fvn1XrlwZExPj7OxMVeIXFWvffKVUx11OTk6m+yNcyuGiks6v4NBmX3zxRf59UCHKgtzdaNCgQVJSEt/POIHyxo0bOu8Aj3YoBTLKcxs3bqR7HhcXJ02clIlp5rC/5VOGR/rf//534MCB3Iyi/3hQ/p4+ffqsWbP4AYmJic888wxNyzFjxtAdkCZR7j8J8+bN42YC3UPaHdxXl4KDg1999VXReA6Vjircvn379PR08bLi4o8//ri0EzZKwz5skUSNxa4nSKFipkMNZUGxu0nGSZRexYU99Dr96aefVtPiv3kt/ZydMhBFhFq1atHl+Ph4SgBz5swRDijWrvX6669TWm3btq3wTazdu3f36dOHu7x169Z+/frxi3hTp04Vd0lMmTLFwGH8ZXoUlM++//57aZDSq2XLlrQif5VCMPd5Pf3buHFjqiRdpjDEncUoQgMOHjxIwXf58uUnT56MiIjw8vKaOXMmt5SKU6VKFe6bMaJ3+zp27Cj8sJjn4eHx888/i3u11q5dW79+faowbfPNN9+cNm0aha3Dhw+3atVK530r1obXqlWrinufoLs0ePBg2sVt2rQZOXIkpTfap05OTuvWrRMO+/vvv3VuJCgoiP+OkbGPlDvTgP7bw12lhE2z5a+//rp+/To/hoJpSEhIsfYHGehO7t+/n18k9Oyzz/LfVKOIuW/fPrpAKdPBwYHycYmh2vezqYa0g7hzRaTo/2/cHjcc+7BFEjUWu54ghYqZDjWUBcXuJrkm0WJtChF3aT/UpldrCg2XLl0qLplEV6xYQbmKXqcpDHFJNDw8nBLAzp07hVso1q5lZ2dHi0Sf9kZHRw8aNGjWrFlXrlzhzqoULuWEhoayzzikpZR9DRzGXd6yZQtlKZ1vvOkVFRVla2vLvw1GRatZsyb/PfFPPvnE29v7zp07lE6cnZ3PnTv3dE0tSuRz5849duwY5VcfHx/Kc1Q04Y9MUTDlvlROOW/ZsmV8/wcffCD9/jvFI2tra0YSun///t69ex0dHekhb9++nUIwhT+6deoRvmdJdyAuLm7x4sWff/457Sadb/7RY2zevHmHDh1orwnf8aUYSlsTBrULFy7Y29vzVzmJiYkUJYX7yKhHStPPxsaG/b41JW+aRRSyKaTSoxCdjMGheNqwYUP+bWl6RPyJFjQ9Dh069HSoFsVBitqlxdBiJFELwK4nSKFipkMNZUGxu8msSdQ8Z+NSRuFf1/kkSpmGOn/44Qe6/MUXX3BJlBsp/VUmWot7Q46yiPDr7fv27evYsSMtpSTk4OCQkJAgWOmx+Pj4VatWiXsFaCllXwOHcZcp/ur8eJ0tMzOT4iPlTuFbgCtXrqRwJhhV3K5du+XLl9OF9957b+zYscJFxdoQzP8QgU50E1OnTqWo17Rp0127dvH9Bw4cqFGjhvCL9pznn3+egouoU+jq1au0d/izV4u1oZx2Ex/EKVW7u7v7+/t/9tlnH3/8Mf2foXr16uPHjxcFrLt379Ljkn7mTsNoFeGPwtL26b8uwhMGKEH6+fmJ3rc29pFS5vv2229FnSJbt259//33KXw3aNCA/76dED1MStvc5dzc3KpVq7J/1ZXujPAEACkk0X+deZ4GKxNUzHSooSwodjeZNYlWnP3791N0S0tLozxBr8T29vbct6T5JEov+ZRmtm3bdvjw4a5du9rY2Ny+fVuj0bRt25Zem9evX5+RkbF9+3buTSxuLYqb/fv3p1TEJ86zZ8/SRij9FGt/r8fV1XXw4MHvvvsuZZRu3botWLCgWHuSwOuvv67zO9rF2rffJk6cWGzwMM5XX33l4eFBD4FSGkUoymSXL1+mzEEJRrDSYyEhIRTLXnjhBSpCv379hD+TSdnU2dmZihAdHb1w4cKHDx/m5eVRNOR+fpWqRxGNtvx0W8XFlHuoVrdu3RJ2CqWkpFAop3Tr7e0tTGNUPe4XhUQo/VNJKeVTrC8tVDVu3JiSDRci6T5T/qP/APBL9+zZ07BhQ+5tTkqlFM7Onz8/Z84cR0fH+fPni94OVKvVFPq5wbTHf/75Z19fX2FtORSY9pzXAABn5klEQVRtP/nkE+5ddtrLtN9btmwpehPa2EdK95N2wYQJE+iR3rhxQ7z4CbpXffv2HTBggHhBcXFMTAw9KCo+/Q+K4iP9D0pYB53OnTsn/B6bFJIoAABYFMtKovnZuRe+35p3TfyLj3r9+OOP9KpPMdHW1pai1dq1a7n+Nm3acN/2oNDZq1cvGkAv7aGhodWrV2/VqlWxNl5QtrDSatCgAXdeIL8WBVOKrS4uLtwXaB48eGBtbc2f5kghb9OmTfQavHHjRorC/JfBKQxReJLGxF9++WXYsGH871kaOIzz7bfftm/fnmIEPUDKXk5OTp6enhSChWM4lKqXLVu2a9cuac7Lycn5v//7v2Lt92+6dOlSrVq1mjVr0gPkP0Smm5Z+sNu8eXNKrqJOod9++43ir+Hfg0lNTaXsTtX28vISL9Oi/xLUrl27bt26tCurVKlCd1X4c/T0KCg4durUaezYsVQQ/tc3KQ76+/uL7v/q1aspvdHWmjRpQpGatvn+++9L3788dOgQbYoKwv1e1bhx40Qng3KMfaSUC4OCgig3c9+QE6G7Om/ePLpFuts6v8JF/53gflaWkjHdebpj7JRZrP2ZW5ob4l4BJFEAALAolpJEr2zef6D321EufTIPPvpt8zKgePHXX3+J3tITuXHjBnfK3e3bt4VRg2KfgfEiISFB+PuRpaFsRxmCotKHH374008/0b8TJ0787LPPRN9DN3BYBUlPT+fOpmVbsmRJ2f68kF6Mmufl5VE6pGSs87euKLfFxMSsXLmS/ldgSK1oDP1fgh6v9MN6Xn5+/qlTp44fPy79U6umK+3PHS1atEj4Qb8I/b+In2wUW4VnLBhr+fLlblr0XynpX5liQxIFAICK8y8n0Qc3co5O/jSy5kvhVTpG1nipzDHUMlE4TklJ2b9/v86v1PAMHAZQZhSvbz8hXqYPkigAAFQcsyZR4dm4Vzbv39N6bLi1H72S7fQYus21byWLoQCVA5Jo+VLslxLKDBUzHWooC4rdTWZNovSi9fRNUKuOXNvrMwExFMBiIYmWL3Y9QQoVMx1qKAuK3U3mTqKbq3fnMygaGposmvhIFghHEjUSu54ghYqZDjWUBcXuJnMn0fzs3KQlm7Y3GRJZq0eETSfq2ezQNap2L7wnCmCZ2E+OSKLGYtcTpFAx06GGsqDY3WTuJMpfzoo9+duI99UO3SJrvKS27YwwCmCZ2E+OSKLGYtcTpFAx06GGsqDY3WTWJCo9G5d/izS8SsfNDt0QRgEsDfvJEUnUWNKnQWBDxUyHGsqCYneTWZMoQ1bsyd9Hf2DK74kCQEVAEgUAgIpjKUmUU+a/sQQAFQRJFAAAKo5lJVEAsDRIogAAUHGQRAGABUkUAAAqjlmTqGLPxgWQLyTR8oWnQWOhYqZDDWVBsbvJrEmU/ZIGABaIfdgiiRqLXU+QQsVMhxrKgmJ3E5IoALCwD1skUWOx6wlSqJjpUENZUOxuQhIFABb2YYskaix2PUEKFTMdaigLit1NSKIAwMI+bJFEjcWuJ0ihYqZDDWVBsbvJrElUsWfjAsgX+8kRSdRYeBo0FipmOtRQFhS7m8yaRI1y8eJFa2trO60vv/yS60xNTc3OzhYOS0lJuXz5srAHAMoRkigAAFQci06ibm5uos7evXt/8803wp6ZM2eGhoYKe3JycmJjY4U9AFBmSKIAAFBxZJZEXVxcUlNThT3vvvvukiVLhD2//PJL48aNhT3kzJkzJ0+eFHUCgF5IogAAUHHklETT09OdnZ3pwt9//x0VFRUXF3f06NHRo0cPGzYsKCjozTff5IYdOnTI09NTuCIJCQlp1arV/fv3Rf0AwIYkCgAAFcesSdSos3GlSfTAgQPt27enC3/88cegQYN6a3l4eHTo0OHDDz/cv38/N+zYsWONGjUSrkgog7Zo0eKTTz4R9QMAG5Jo+TLqaRCKUbHygBrKgmJ3k1mTKPslTUSaRDdv3uzv7y/sKda+2blw4UJhT3Jycu3atYU9HHqldHR0/Oeff4SdH3/8segrUAAgxD5skUSNxa4nSKFipkMNZUGxu8mik+gzzzwj7Fm9evWkSZOEPWTBggUURoU9ubm5VapUuX37NndZuKhjx46iLzxR2KUbEvYAgBD7sEUSNRa7niCFipkONZQFxe4my02iJC8vT3j1hx9+mDFjxksvvXTz5s1bt25t2bJl0aJFo0aNmjlzpnAY8fLy4r4+HxwcvGzZMr7/gw8+6NGjx9NxSKIA+rAPWyRRY7HrCVKomOlQQ1lQ7G6y6CQqsmvXLh8fn5dffvn+/fvNmjWbNm3akiVLKFlaWVlNnjw5IyODH/naa69NnTq1qKioadOmtBbff+DAgRo1ahQUFPA9SKIAbOzDFknUWOx6ghQqZjrUUBYUu5vMmkRNPBv3+PHjFDrXrFlz8ODBRo0aaTSawsLCN998c9KkSTNnzqRM+fDhQ25kSkqKg4NDhw4dvL29hbkzPz//jz/+4K8WI4kC6MN+ckQSNZaJT4MKhIqZDjWUBcXuJrMmURNlZGRQEj137hwFyldeecXV1bV+/fru7u6UO2kp9QsH//bbbyEhIXq/jYQkCsqUdy3rwvdb87NLnEitE5IoAABUHDklUbJv3z6NRsNdvnv3bpn/zufy5cvdtKytrdPS0sSLARQg82DiFude8QEfZcWy/ugDkigAAFQcmSXR8pKfn3/7CfEyAMVI+3FHhE2nCGvfXa1GJn0VpvMtUiRRAACoOApNogDAeRRGrX3Vdp13thgRWauH9C1SJFEAAKg4Zk2iij0bF8CScWGUMiW17Y0GbXvGX/gWKZJo+cLToLFQMdOhhrKg2N1k1iTKvdShoaFZeFPbdaZ/t9TudW1PXDiSaLli1xOkUDHToYayoNjdZO4kKu4CgH9b+raD6qqdHmdQ+65bnHvt8BiG90QrCLueIIWKmQ41lAXF7iYkUQBF42NolEvfzdW7x42Zh/NEKxS7niCFipkONZQFxe4mJFEA5aIYGmHjF17FV/gmqAj7sEUSNRa7niCFipkONZQFxe4msyZRxZ6NC2CBHv2eqFNP6ZugIuwnRyRRY+Fp0FiomOlQQ1lQ7G4yaxIFAAuBv7EEAACWAEkUAFiQRAEAoOIgiQIAC5IoAABUHCRRAGBBEgUAgIpj1iSq2LNxAeQLSbR84WnQWKiY6VBDWVDsbjJrEmW/pAGABWIftkiixmLXE6RQMdOhhrKg2N2EJAoALOzDFknUWOx6ghQqZjrUUBYUu5uQRAGAhX3YIokai11PkFJgxQru3Rd3mUaBNZQjxe4mJFEAYGEftkiixtJbTzQ0aslfh4knhwnCmbMOLIRid5NZk6hiz8YFkC/2k2M4kqiR2E+DVE+N5j9oCm80DdRVfcsxjLJnHVgIxe4msyZRAJAdJFFzQhJF02iTaPquN8o3jAJYLCRRAGBBEjUnJFE0jTaJ0r9Xdk6NsPE9/P5XaWlpWVlZDx48EE8XgEoBSRQAWJBEzQlJFE3zJIlqHoXR1ymM7gtelJycjDAKlRWSKACwIImaE5IomkaQRKld2fEojO59dyHCKFRWZk2iij0bF0C+TEmiN2/eLCgo4K9qNJrs7GzB8hJWrVq1a9cucW+FycjI+O677woLC8ULKhj7aRBJFE1TMolqyiOMsmcdWAjF7iazJlH2SxoAWCD2YctOojY2NqdPn+avHjp0qE6dOoLlT925c8fFxWXnzp3iBUZKSEiIiIhQq9Xh4eEbN25cv369SqWKjo4WjysuPnv2LN09cW/F01tPaS6xzPbXX1MvX54u7We3sq0ll5aZ+c6pU1O4y6Y8Uuk0MDGMsmcdWAjF7iYkUQBgYR+27CRqb29//vx5/mpcXJybm5tg+VMhISFWVlZDhw4dOHBg3759e/ToERQUJBwwQGtQSdTj7+8vHDZv3jwPD4927dq1b9/ez8+va9euTk5O3t7ewjGcpKQkW1tbcW/F01tPaS757LOXgoM7Uvvoo667do3Kz39POsbw9v77nbitiRojNqWlvbVwYY+ePZtOmNB6+fK+XOdzz7m+9ZaPdDC7lbZWaOhLYWGvSPsrqFFJN216enN3786hChw+HCAdaVRbubIfTeOHDx9dLu2RGtJ0TgNTwih71oGFUOxuQhIFABb2YctOog4ODoYk0dOnT9PIuXPnfvHFF0uXLl2xYoWvr2/Pnj2FY+hWFixYEBoa+vbbb9PgUK0FWsJhIhkZGY6Ojhs2bBAv0CZROzs7cW/F01tPaQTx8Kjt7l67f3+P2rXtKei89trz0jHsFhc3kRp3eeLENmPGeFNr2tSpZk077jK1CxemSVekRsG3eXNnLy+XkJAuQ4Z4+vi4cf1lS1qlrdWsmdOkSW2l/cImfBTGNtG6VNLAwDb81Zs336XCfv11H+mKRrUKTaIaE8Ioe9aBhVDsbkISBQAW9mFrVBL9/fffGzVqJFj+SE5Ojo+Pz+rVT0+Q0mg0FFjDwnT/kuLJkydL+4hfKjAw0NPTU3iuKo+SqI2Nzblz58QLKpjeekrzB8WmyZPbabShsEULZycne+kYdvPzazhxYmtRJ/XQ1qSDRS06+lVKV/Hxj2McF7M0ZU1apa1lSBLV+Sj4+8NuonX/lSRq4F3VaJMos/ke+Ha9UWGUPevAQih2N5k1iSr2bFwA+WI/ObKTqOjT+QMHDrRo0UKwvPjMmTPNmzdfsmSJsDM8PLxBgwYPHz4UdvIMT6Lx8fHW1tZ79uwRL9CiJEpLaVOdOnVSqVQGvqKbjv00yE6i1IYObWlra33//ty0tLfosrOzA7Xhw70uXXr82ToFx65dG9nZ2TRsWOvcudepZ/ZsX3t7m1q17Dw966xdO4jfrDSJ6tzm4cMBlK4WLHhJOFJTMmnNn9+tY8cGdCtt2rj+/PNorvPvv98aObKVq2t16qebvnt3jnCty5en0yoff9yNGyxMooMGtfjww66zZnWsX79G27b1fvlljEbXo0hNndanj7uDQ9WmTZ0iI4cbtS47iep8ODq3TO3ChWm9ejWrVq1qq1YuI0Z46Uyipd3V//6305gx3jVq2KakvMnfGb2NJsn27dvj4uIMD6PsWQcWQrG7yaxJFABkp8xJtKio6Nlnn01JSeF7wsLCXnzxRcGQ4v379y9atEjYQ6+s9evXX7lypbBTyMAkSi/SzZo169KlC90N8TIt7tP5e/furVixwsvLq2HDhsuXLzfkRb1CMZIo5ZvY2ACKodOm+Tx48N7zz9en6LNly3BKNnTBx8ctP/896qfk9/rrz6emvklRiQIWrU4pp3VrV3//5vHxE9PTZ/CbFSXR0rZJi/r186CANXBg87/+msqPFyat0NCXIiKGnj49pUuXRj16NKEeysrt2tWrU8fhiy96/vnna1FRI2j7/FrZ2e9SmHv55ab37j2Kp5qSSZTGVK1q3bevu1o9rEOHZzp1aqiRPAq6Y7QFioBHjwZOn97eza2G4etqtCWlpUuW9OIa3X9hEpU+nNK2TDuFikaL9uwZvXfvGEqu0iTKuKtVqlhNmNCa/vNw+/ZsrtOQRpPkp59+MjaMAlgsJFEAYClzEpUaPXr05MmTxb0C9II6YMCAwYMHixcIGJJEExMT69WrN2TIEIqYgwYNysnJEY8oeZ4opdW1a9c2aNBg2rRpJUeZW2lJtH79GpRgKOVQOqQs9fvvE+jyypX9uAHfftuXrh45EkgZqEGDmjSG/zCdazo/1xYl0dK2qdFmqfnzu1WrVpXaunWDuQHST59v3Qr+z3/8atWyo8u//fZoa8HB4odDa02Z0o7iHYU2yqN8vyiJdu3aKC9vLl1esOAlulGuX/gouO1TZDx8OCAs7BW6nJgYZOC6Gm1JmzRxHDasJdcoZEs/nRc+nNK2TOGSVvz+e39ujM5P5xl3lSK+8BYNbDRJ1qxZs2nTpt27dx87diwtLS03N1c8kwDkA0kUAFjKK4nu3bvX3t7+yJEj4gVPUF7s1q1bu3btsrKyRItOnTpFwTFZKyoqysnJibtMqP/s2bPCwTt27HB0dJwyZUpBQcGtW7co2np4eKSmpgrHFOv6xtLdu3d1ZlZzKi2Jdu/eWK0e9scfjxIMtY0bh1CgOXZsEneV8iJdDQ8fqtHmHk/POlbatzCvXXv8DqghSZSxTa4lJb3Rvr1blSpW3HebhEl0+fK+jRs7Ulx2d6/NRTdua9HRrwpvkVvLzs6GFq1e/Ti9cU2URPktL17cS2ea5LZPN+ftXZdrERGP7qoh62r0fTovfTilbZlLlgkJj4umM4kacleNajRJ6D9O69atU6vVMTExZ86ckR4yADKCJAoALKYnUYp3ISEhFENL+8y9qKgoMjKyRYsW/v7+d+7cES8uLu7QoQMl1Od1oX5ayg1LSEgYPnw4xVCVSsWvW1hYGBgY6ObmRnGW7yzWlUQtQWlJlD9PlGsHDoyncLNmzeOTPn/4YQBdjY19/CNElIQoIdWoYfvee35cD+WwgIDnRJsVJVH2NrlGV6lz1ar+GkGQiokZZ/XkfcFFi17mohs38r//7SRcnVvrjTdeGDHCi5Icrcj3G5hE+UfBvdHI3RPR9vWuq2EmUZ0Pp7QtnzgxmQbTfxK4/mXL+kiTqCF31ajGfTq/Zs0a7jP6Y8eOpaeni2cSgHyYNYkq9mxcAPkyMYmOGTOGAl/nzp1Lezf0xo0bPj4+rq6uK1as0Pkld8MFBARMmDDh6tWron7a7IgRI4KDg4WdZ8+etba2FvYYJe9a1oXvt+ZnG/2pKPtp0MAkevfuHHf32l26NDp9ekpiYpCvb4PmzZ2p8/bt2ZR4Ll6cdv36zIYNa02d+gI3fvz45yh0ZmU9/TRcI0mipW3z11/HrlzZLzX1zVu3gt95p4O9vU1y8hsaQZCKjBxOSWvLluGUZWl1G5sqOTmz7t+f26aNq5tbDYq2V6++vXXriNzcYH6te/fm9OvnQSGP+/RfY1gSFT4K7jxUT886u3ePojtJd1j6Tm1p62qYSVTnw2FsuUkTRxp2+HCASjWQ0r80iRpyV41qNEnCw8Mpia5fv37Lli2HDh1KS0sTz6SS2LMOLIRid5NZkyj7JQ0ALBD7sNWbRI8ePar3l5LoZbWiT3TTaDSimJuZmblq1SpT/tpn5sHEKJc+8QEfZcWeFC8rnd56SpOHNIlSo0Dj7V3XSqtt23rHj0/WaBMVRboqVawoL/bu3ezKlbe5wbGxAU2bOlatas2f0aiRJNHStvnDDwNoa9Rja2tNiYryFje4dWvX6dPba7RJq2fPpjTA0dH+00+7V69u6+XlotH+kaEXX3yG21qDBjUpjwrXomBKAc7FpRr3BX8KwUFBj5MoP4bakiW9aIPcZdGjoHDcvXtj2jg9Xmdnh6ioEYavqzOJLlv2KImW9nBK2/KGDYMpldJ42ubs2b5WT5KocLzeu2pUo0kSEREh/IA+OTlZPJNKYs86sBCK3U1IogDAwj5s9SbRyi19R6zatkuEte9u79FJX4UZ8hap3npKkwejXbs2IyNjpqgzK+td4ZeBuEbx6OLFadwX2NlNuk1a6+zZ12l16WC+pafPoAxHF3JyZglv/fr1mTduvCMdX7YmfRR0W4y/DsVel9FKezg62717c/hf0WI0w+8quyGJVlaK3U1IogDAwj5sFZ5ESfq2g+qqnbY49dzTbnykY0+9b5Hqrac0eaChCRuSaGWl2N2EJAoALOzDFkm0+EkYfZQPqnba03rM9iaDGW+R6q2nNHmgoQkbkmhlpdjdZNYkqtizcQHki/3kGC7+O4Roj9oWp570b6RTz2t74qRLRU1UT2nyQEMTtnDjkyhefGVBsbvJrEkUAGRHFJVEwvGeqParS1vr9I6q/Sh9ci2yVo9jU0IfZP5TbEABRVelyQMNTdjKkEQBLBmSKACw6A1SCk+iXAyNrNH9UQa19tvTZtyVqAPCAXoLKLoqTR5oaMKGJAqVDJIoALDoDVJKTqIUQzdX6yZ6E1REbwFDQ0NVKlVsbCx3VZo80NCEDUkUKhkkUQBg0RukFJtEKYZuqdN7b4dJojdBRYwq4KM3VtHQ9DUkUahMzJpEFXs2LoB8hRsTpJTD8L+xVLYCUrygkEFRgwJHBICEUUkUL76yoNjdZNYkyn5GBgALxD5sSwtSwCtbAePi4rZv375p06a1ivf13A/FXaBF04MmCU0VvX/tkz0JwUIodjchiQIAC/uwLS1IAa9sBTxx4kRMTMzWrVspbaxTtgUDJ4i7YN06mhg0PWiS0FRJT08XTh4p9iQEC6HY3YQkCgAs7MO2tCAFvLIVMDk5+dixY5Qztm/frla2D737iLtAraaJQdODJglNlaysLOHkkWJPQrAQit1NSKIAwMI+bEsLUsArWwHT09MpYZw4cSIuLi5G2T6t01HcBTExNDFoetAkoamSm6vnfGX2JAQLodjdZNYkqtizcQHki/3kWFqQAl7ZCkjZIisri0JGWlpasrLtfvczcRckJ9PEoOlBk4SmyoMHD4STRwovvrKg2N1k1iQKALJTtiAFPBQQAIABSRQAWBCkTIQCAgAwIIkCAAuClIlQQAAABiRRAGBBkDIRCggAwGDWJKrYs3EB5AtBykQooInwwmE61FAWFLubzJpE2c/IAGCB2IctgpReKKCJ2AUEQ6CGsqDY3YQkCgAs7MMWQUovFNBE7AKCIVBDWVDsbkISBQAW9mGLIKUXCmgidgHBEKihLCh2NyGJAgAL+7BFkNLL2ALevHmzoKCAH6DRaLKzs/mrIqtWrdq1a5e4t8JkZGR89913hYWF4gUViV1AMARqKAuK3U1mTaKKPRsXQL7YT47SIAUixhbQxsbm9OnT/IBDhw7VqVOHvyp0584dFxeXnTt3ihcYKSEhISIiQq1Wh4eHb9y4cf369SqVKjo6WjyuuPjs2bN098S9FQwvHKZDDWVBsbvJrEkUAGTH2CAFIsYW0N7e/vz58/yAuLg4Nzc3/qpQSEiIlZXV0KFDBw4c2Ldv3x49egQFBQkHDNAaVBL1+Pv7C4fNmzfPw8OjXbt27du39/Pz69q1q5OTk7e3t3AMJykpydbWVtwLAGACJFEAYDE2SIGIsQV0cHAwJImePn2aRs6dO/eLL75YunTpihUrfH19e/bsKRxDW16wYEFoaOjbb79Ng0O1FmgJh4lkZGQ4Ojpu2LBBvECbRO3s7MS9AAAmQBIFABZjgxSIGFtAURL9/fffGzVqxF/l5OTk+Pj4rF799LM8jUZDgTUsLEww6qmTJ0+W9hG/VGBgoKenp/BcVR4lURsbm3PnzokXAACUFZIoALAYG6RAxNgCij6dP3DgQIsWLfir5MyZM82bN1+yZImwMzw8vEGDBg8fPhR28gxPovHx8dbW1nv27BEv0KIkSktpU506dVKpVA8ePBCPAAAwklmTqGLPxgWQL2ODFIgYVcCioqJnn302JSWFHxAWFvbiiy8+XaG4eP/+/YsWLRL2ZGVl1a9ff+XKlcJOIQOTaHJycrNmzbp06UJ3Q7xMi/t0/t69eytWrPDy8mrYsOHy5csrOo/ihcN0qKEsKHY3mTWJsp+RAcACsQ9bJFG9TCzg6NGjJ0+eLO4VoCA4YMCAwYMHixcIGJJEExMT69WrN2TIEIqYgwYNysnJEY8oeZ4opdW1a9c2aNBg2rRpJUeVM3YBwRCooSwodjchiQIAC/uw1RukwJQC7t27197e/siRI+IFT1Be7NatW7t27bKyskSLTp06RcExWSsqKsrJyYm7TKj/7NmzwsE7duxwdHScMmVKQUHBrVu3KNp6eHikpqYKxxTr+sbS3bt3dWbWcsQuIBgCNZQFxe4mJFEAYGEftuwgBcVlLSDFu5CQEIqhpX3mXlRUFBkZ2aJFC39//zt37ogXFxd36NCBEurzulA/LeWGJSQkDB8+nGKoSqXi1y0sLAwMDHRzc6M4y3cW60qiZsAuIBgCNZQFxe4mJFEAYGEftqUFKeCVoYBjxoyhwNe5c+fS3g29ceOGj4+Pq6vrihUrdH7J3XABAQETJky4evWqqJ82O2LEiODgYGHn2bNnra2thT1mwC4gGAI1lAXF7iazJlHFno0LIF/sJ0edQQqEylDAo0eP6v2lpPDw8NzcXHFvudJoNKKYm5mZuWrVqjL/tc+8a1kXvt+an23c3cYLh+lQQ1lQ7G4yaxIFANkpQ5ACIRRQKPNgYqTjy4cGBmfFnhQvAwBFQhIFABYEKROhgCIZ+45F2HQKr9IxusGA859vMPYtUgCoZJBEAYAFQcpEegsYGhqqUqliY2PFyyovCqOb7bvQY4+w7aK274q3SAGUDEkUAFj0BikkUTa9BaTqqdXq48ePi5dVanwY5drmat3wFimAMpk1iSr2bFwA+dIbpJBE2fiwhcZu254ZQP9uqd3r2p446VJRE1cZmPDiKwuK3U1mTaJ4+gCQHfZhG44kajCVSkWF+rTOozdBOdSjVqupdMePH5f+jlLldi50TUSVR5lyc7Xuv/pN3uE+dLf36KSvwrj3RPXOOnEXMKFisqDY3YQkCgAs7MMWSdRwsbGxVKWvbX1+fYJ6KIMmJSVRDK3on2SyKFwMjX7Gf2/HoC1OPeMDPhKdJ6p31om7gAkVkwXF7iYkUQBgYR+2SKLGYtdTCZIW/6S27Rxh7St8E1SEXaVwRX7NyxTseoKFUOxuQhIFABb2YYskaix2PSu9zIOJUXX6SN8EFWFXCbPOWOx6goVQ7G4yaxJV7Nm4APLFfnJEJjCWkp8GDf8bS5h15UvJs05GFLubzJpEAUB2kAnA/DDrAJQDSRQAWJAJwPww6wCUA0kUAFiQCcD8MOsAlANJFABYkAnA/DDrAJTDrElUsWfjAsgXMkH5wtOgITDryhdmnSwodjeZNYmyn1wAwAKxD1tkAmOx6wkcdpUw64zFridYCMXuJiRRAGBhH7bIBMZi1xM47Cph1hmLXU+wEIrdTUiiAMDCPmyRCYzFridw2FUqx1mXm5ubkJBw7do18YKSDBxmsdj1BAuh2N2EJAoALOzDthwzgUKw6wkcdpWMmnUXL160tra20/ryyy/5fpVKNXbs2JkzZ37zzTdvv/32wIEDaYP5+fmCVY0YZogJEyZs2rSJLtDq//vf/z56QjQsOTk5ODg4NDSUu3rhwoV27dqVHGI0dj3BQih2N5k1iSr2bFwA+WI/ORqVCaAYT4OGKcdZR0nUzc1N2HP//v3x48evXLlS2Emo54033uCvGjjMcKNHj+aSaG5ubs2aNZcuXfrVV19Vq1aNH7B379569epRYp44ceLnn3/u7u7u7e3t6elJPc9pUc/WrVufbtFgmHWyoNjdZNYkCgCyU46ZAMBA5TjrpEn0/fffP3jwoLCHR/38m5EGDjPE33//vW/fvt69e9PdPnz4cEpKipeXF7eoRo0a9O+aNWvOnDmTn5+fmZkZFBS0Y8eOBw8eXL9+PSYm5vATtIVbt26V7e1YAEuGJAoALOWYCQAMVI6zTpRET5069c477wiWi82YMSM1NdXAYeLeUmzbtq19+/YuLi4tWrTo37//8uXLR44cyS2qVq1aUVHRpEmTNm/efOXKlcTExCFDhixbtuz8+fNHjx6tW7fugCcos964caPkhgEqAyRRAGApx0wAYKBynHWiJPrZZ5+xEyQtXb16tYHDxL1M48ePj4iIOHDgQOPGjX///Xeus1+/fs2bN/fx8aGUGR0dPXTo0Jo1a1JgnTlz5h9//NG9e/ezTzRp0uTmzZslNwlQGSCJAgBLOWYCAAOV46wTJdHXXntNsFCHoqKiGTNmGDiMv/rxxx9nZ2cLlutASXTVqlUffvjh0qVLTwkkJCTwYy5fvmxlZVW3bt27d+/SPZ86depbT9Dl27dvC7YHUEmYNYkq9mxcAPkqx0wAxXgaNEw5zjrKc8888wx/lfKcYKFuU6ZMMXAYf5nCLt2QYGEJlCB37Njx3HPP0bAvv/yyZ8+etWrVGq81aNAgip7nz5/nRoaEhNCiF154oUePHm3btu1YEvWULYxi1smCYneTWZMo+8kFACwQ+7A1KhNAsb56AoddJWNnXV5eHn85NDQ0JydHsFCMls6ZM8fAYfxVdhL96aefhg0b1r59+4iICLpaUFDg7e196NChoqKi0aNHBwcHc8NOnz7t5eU1bty48PDwxYsXjxkzhhLqhg0bNm7cuG7duuzs7CZNmggfi+HY9QQLodjdhCQKACzsw9bYTADsegKHXSVTZl18fPyqVavEvQK0dOfOnQYO46+ykyiHO0+Uu0zbb9iw4auvvtq7d2/+6/CzZs3atWsX9935ffv2URJdsWLF2LFjVSqVn5/fqVOnkEQrN8XuJiRRAGBhH7amZAJlYtcTOOwqmTLrCgsLX3/99QsXLogXaFH/xIkTiw0exjM2iR45csTDw8PKymrmzJn8n27SaDT0rzCJrly50sfHZ9y4cc2aNTtx4gSSaOWm2N2EJAoALOzD1pRMoEzsegKHXSUTZ93Dhw+nTp26d+9eUf8vv/wybNiwrKws7qqBwzjsJPrgwYNz58716NFj3bp1YWFhAwcOrF+//saNG5OTk7t162ZnZzdlyhR+9UmTJm3fvp1uZdSoUWvXrv3222/T09OPHTtGSdTFxeX+/fv8ZvOuZV34fmt+di7fUxp2PcFCKHY3mTWJKvZsXAD5Yj85mpgJFAhPg4ao6Fl379690NDQsWPHfvjhhz/99BP9O3HixM8++4x7V9LwYcuXL3fTsra2TktLE64rlJ2d7evr+8orr5w+fbp///6rV6++c+cOvzQmJoZC56lTp7irQUFB27Zt2717N/+bo4SuUmYVflufk3kwcUvtXvEBH2XFnhQtEsKskwXF7iazJlEAkJ2KzgQAUuaZdQUFBSkpKfv3709PTxcvE2AMy8/Pv/2EaJHZXNr0c4SNX4S1766WryZ9FWbIW6QAFgVJFABYzJMJAIQw64zyOIza+G1vMmRzzR563yIFsChIogDAgkwA5odZZywujFJlqEW59Nlarx/eIgW5QBIFABZkAjA/vbMOTW/jgumW2r2u7YkTVxDAkpg1iSr2bFwA+QrXlwmQRI2Cp0FDYNYZ67J6n/rJe6Jbar0cVbfvTs8R/HuimHWyoNjdZNYkyn5yAQALxD5skQmMxa4ncNhVwqwTeRxDq3Tc1mDg5hovxY37UHSeKLueYCEUu5uQRAGAhX3YIhMYi11P4LCrhFknRDH00QfxVXyFb4KKsOsJFkKxuwlJFABY2IctMoGx2PUEDrtKmHW8R78n6tRT+iaoCLueYCEUu5uQRAGAhX3YIhMYi11P4LCrhFnHwd9YqmQUu5vMmkQVezYugHyxnxyRCYyFp0FDYNaVL8w6WVDsbjJrEgUA2UEmAPPDrANQDiRRAGBBJgDzw6wDUA4kUQBgQSYA88OsA1AOJFEAYEEmAPPDrANQDrMmUcWejQsgX8gE5QtPg4bArCtfmHWyoNjdZNYkyn5yAQALxD5skQmMxa4ncNhVwqwzFrueYCEUu5uQRAGAhX3YIhMYi11PC3T48OGdO3eKeysYu0qYdcZi1xMshGJ3E5IoALCwD1tkAmOx62msBw8eiLtMduvWrbCwMO7y9u3bx48fP2nSpL1795YcVbHYVcKsMxa7nmAhFLubkEQBgIV92CITGItdT6PcuHHDysrq0qVL4gUlJSQkREREqNXq8PDwjRs3rl+/XqVSRUdHi8c9kZSUVKNGDe7yjz/+uGzZstWrVy9evJjrycjIeDq0dMbeqAi7Sph1xmLXEyyEYneTWZOoYs/GBZAv9pMjMoGxyvFp8ObNm5REs7KyxAtKmjdvnoeHR7t27dq3b+/n59e1a1cnJydvb2/hmDt37hQWFnKXU1NTaQB3+eHDh+PGjRs5cmROTg5dpTHu7u4BAQH37t3j19XJkBtlwKwrX+U466DiKHY3mTWJAoDsIBNYLC6JZmdnixcwZWRkODo6btiwQdhJkdGqdL169eJHxsfHu7q6dujQgcumvK1bt8bGxgp7hHTeKANmHYByIIkCAAsygcXKysqimChKhHoFBgZ6enoWFBQIO1NTU5OSkpK1YmJiatWqxV0m1J+WliYcfPHixVatWr3yyit8z+3btxs2bDh16lTBqBJ03igDZh2AciCJAgALMoHFyszMpCT6zz//iPqvX78u6uHFx8dbW1vv2bNHvED7RaWOHTveuHHjwoUL3KfzR44cGT16tHicFt0ohVf+6qxZs+rVq1fau7OMGy0NZh2AciCJAgALMoHF4r6xlJubK+y8dOlS3bp1KUQKOznJycnNmjXr0qVLUVGReFlxcWRkpIeHB13gk+jdu3ednZ3PnTsnHlrS4cOHbWxs+K/bi7BvtDSYdQDKYdYkqtizcQHkC5mgfJXj02BGRgYl0du3b/M96enpPj4+I0eOlMa+xMTEevXqDRkyxMvLa9CgQdLP9Lt3775o0aJiQRIl77333tixY0uME8jPz//ggw/s7OyWLl0qXqal90ZLg1lXvspx1kHFUexuMmsSZT+5AIAFYh+2yATGYtfTKNevX6ckeufOHbpM0TMqKopiH8XQvLw80cgdO3Y4OjpOmTKloKDg1q1bAwYM8PDwEH68vmvXLhqQmZlZXDKJXrlypXr16jrfYaXOtm3b0lK6XfEyLb03ysCuEmadsdj1BAuh2N2EJAoALOzDFpnAWOx6GiU9PZ2SaHR09Pz581u1atWoUaPvvvtONCYhIWH48OGUCFUqFd9ZWFgYGBjo5uZ26tSpYu0H+s7OzmvXruWWCpMoWbhwYZMmTbi8+88//9Cw2bNnt2zZ0sHB4Z133tF5TqohN8rGrhJmnbHY9QQLodjdhCQKACzswxaZwFjsekrlZ+de+H5r3jUdPxpKSdTe3r5p06ZBQUEREREPHz4UjyguDggImDBhwtWrV0X9BQUFI0aMCA4OLtZmROFvzqekpNSqVYu/qtFo1Go1dzkzM9Pd3X3q1Knbtm3jsqlOhtwoG7tKmHXGYtcTLIRidxOSKACwsA9bZAJjsesplBV7Mj7goyiXPpkHE8XLnpB+cd5wFDF1/qzS5cuXp0+fLu4tJ6XdqAi7Sph1xmLXEyyEYneTWZOoYs/GBZAv9pMjMoGx9D4N5mfnJn0VtvvZURHWvmrbztd2/S4eoQCYdeVL76wDS6DY3WTWJAoAsoNMYDbcm6CRtV7e1WrU5mrd1LadlBlDizHrAJQESRQAWJAJKhr/Jmh0w4E7PIZRSakpOYYWGzDrQkNDVSoV4++LAoBcIIkCAIveTIAkysYlS0aLdOxJ/26u3k26CK20RlNOrVYfP35cXG4AkBskUQBgCUcSNY3eAuZn5x6fuXiLU8/wKr5czIqs0T3KuRfji0rKERoa+lFJ1EPzbf369TTlkpKSxCsAgNyYNYkq9mxcAPnSG6SQRNn0FpC/fG133C8vTgq38aPOzfZdEEaJSqX6fPhrXwtQj1qtpvl2/Phx6Q9FgU548ZUFxe4msyZR9jMyAFgg9mGLJKqX3gKKTnl8+hYp5dFq3RQeRqksX9v6/CpAPZRBk5KSKIbm5uaKVwBd2JMQLIRidxOSKACwsA9bJFG9ylzAa7vjfu30WlSd3goPo+wCgiFQQ1lQ7G5CEgUAFvZhywhSwDGxgIy/saQQ7AKCIVBDWVDsbkISBQAW9mGrN0gBCmgidgHBEKihLCh2N5k1iSr2bFwA+WI/OSJI6YUCmggvHKZDDWVBsbvJrEkUAGQHQcpEKCAAAAOSKACwIEiZCAUEAGBAEgUAFgQpE6GAAAAMSKIAwIIgZSIUEACAwaxJVLFn4wLIF4KUiVBAE+GFw3SooSwodjeZNYmyn5EBwAKxD1sEKb3+xQIWFhZGR0eLe+WGXUAwBGooC4rdTUiiAMDCPmwrNEhVDmYrYF5eXmhoaHZ2Nnd13759KpXKz89v5cqVJQcW//33376+vqJOqR9++GHs2LHiXrNjFxAMgRrKgmJ3E5IoALCwD9tyDFKVVZkLWFRUdPTo0eO6JCQk0FLR+HXr1jVp0uThw4fc1StXrri5uW3durVVq1aFhYVpaWmjRo3iFl27ds3Z2ZlfcfLkyX/++Sd/lbd69eoxY8aIe82OXUAwBGooC4rdTUiiAMDCPmwZQQo4ZS5gfn6+lZVVzZo1a5VUvXp16tdoNMLBeXl5zZs3b9my5ZQpUyZOnDh27FgKkV9++SXFUy6bXrhwoVGjRtzg69ev16lTh1/3+eefP3bsGHf5wYMHfMb99ttvJ02axA+jftGNmge7gGAI1FAWFLubzJpEFXs2LoB8sZ8cGUEKOGUuYGFhISXOjIwMUT/1UD8tFXYGBwdT0JwzZ877778fEhIyb948GhMZGckPSEtLa9y4MXdZlERfeOGFhIQE7nJgYCCtaKNVpUoV/jKhy0uXLuXXMhu8cJgONZQFxe4msyZRAJCdMgcp4JS5gIYnUVrXwcHhyJEjfE9ERETdunXz8vL4HkqiDRs2zNL6888/nZ2ducukTZs2fBK9cuVKamrqFa1hw4ZRouUuk1GjRklPOQUAMBGSKACwlDlIAafMBTQwiX7//fc1atTYsGGDcEy3bt0+/vhjYc/Vq1dbt27dTsvb29vGxoa7TCiJ6jxPtGnTpnv37uWvjhkzZv369YLlAADlAEkUAFjKHKSAU+YCGpJECwoKJk2aFBMTIxxA2bRWrVpZWVnCzvT09H/++Ye7LPp0PjMz8+zZs/xVTlpamq2tLf9NfDJkyJBK8JtQAGBpkEQBgKXMQQo4ZS6gIUlU6s8//3R0dNyzZ4+on3KkSqXiLouS6I8//vjKK6/wVzmzZ88eP368sKdz584HDhwQ9gAAmM6sSVSxZ+MCyFeZgxRwylzAMiTRgwcPuri4rF6t45l29OjRmzZt4i6Lkij101L+Ktm2bVu1atVOnz4t7HR3dz937pywxzzwwmE61FAWFLubzJpE2c/IAGCB2IctI0gBp8wF5JKoo6Ojc0nUI02ieXl5ixYtqlmz5pdffins5xmeRGNjY2vXrh0WFsb3kHv37tna2tK/wk7zYBcQDIEayoJidxOSKACwsA9bRpACTpkLSOHS09MzJydH1J+VlUX9+fn5fI9ara5fv36fPn2Sk5MFA0sYNWpUvXr1PLSaNm1qbW3NXSaurq7cj97fvn37zTffdHFx4TMr3St/f/+33nqrb9++vXr1KrFFc2EXEAyBGsqCYncTkigAsLAPW0aQAo4ZCpiSkrJ582Zxb0lBQUFr1qxJ14X6J06cWKx9F3b+/PmXLl3i18rOzv7+++8/+eSTxYsXC/vNiV1AMARq+C/Ku5Z14fut+dm54gUSit1NSKIAwMI+bMslSFVuKKCJ2AUEQ6CG/67Mg4mRtV4+0GdGVuxJ8TIBxe4msyZRxZ6NCyBf7CdHBCm9UEAT4YXDdKjhv+7G/gR11U50vG+r3//sgh91vkWq2N1k1iQKALKDIGUiFBAAirVhdLNDVzrkw206Rdh10fsWqXIgiQIAC4KUiVBAAOA8DaPaprbrwniLVDmQRAGABUHKRHoLiIaGpti202MY/buldq9re+LEzw6KgSQKACzh+oIUkigbCggAnNP/WxGhDaBb6/Y98PK0nS2G7/YenfRVGN4TNR/Fno0LIF8IUiZCAU2EFw7ToYaWgIuhO92H7us6dUvtXvEBH4nOE1XsbjJrEmU/IwOABWIftghSeqGAJmIXEAyBGv7rzi9ap7btHGHjx3gTVLG7CUkUAFjYhy2ClF4ooInYBQRDoIb/rsyDiVEufaRvgooodjchiQIAC/uwRZDSCwU0EbuAYAjU8F+Ev7GkF5IoALCwD1sEKb1QQBOxCwiGQA1lQbG7yaxJVLFn4wLIF/vJEUFKLxTQRHjhMB1qKAuK3U1mTaIAIDsIUiZCAQEAGJBEAYAFQcpEKCAAAAOSKACwIEiZCAUEAGBAEgUAFgQpE6GAAAAMZk2iij0bF0C+EKRMhAKaCC8cpkMNZUGxu8msSZT9jAwAFoh92Fp4kDp8+PDOnTvFveYl6wJaAnYB4f/bOxPwGq43jIsgiC1iKVpL2thqKWrfWlqU1tZagr+1tFoUbbWUVkMobe2llliCSIKEIGpforFEJFQRCUElSGxJVIO49//lnppOZu5Mzl3jZt7f8z155p5zZjnvufPNO3NnJjxAQ4dAs8MEJwoAUEN9t7XESGVkZEiLLOb+/fsbNmxg06Ghof379x88ePDu3buzt7IrthNQI6gLCHiAhg6BZocJThQAoIb6bmu2kbp161a+fPmuXr0qrchOZGRkYGBgUFBQQEDA+vXr/fz8fH19t27dKm33jNjYWFdXVza9cuXKBQsWLF++/Oeff2YlN2/e/K+pMqauVB0bCagd1AUEPEBDh0CzwwQnCgBQQ323NdtI3b59m5xoSkqKtCI7kydP9vDwqF+/fqNGjZo1a9aqVauSJUvWrl1b3CY9Pf3p06dsOj4+nhqw6cePH/fr169Xr153796lj9SmWrVqAwYM+Pvvv4V5jcKzUn5sJKB2UBcQ8AANHQLNDpNdnahm78YFwHFRT45mGynmRO/cuSOtUOXmzZslSpRYu3atuJAsYz5l2rdvL7Q8evRo2bJlGzduzLypQEhISHh4uLhEjNGV8mMjAbUDDhyWAw0dAs0Ok12dKADA4bCRkUpJSSGbKHGEOTJo0CBPT8/MzExxYXx8fGxs7EUD+/btK168OJsmqDwhIUHc+PLlyzVr1uzWrZtQkpaWVqlSpREjRohaZcPoSvmxkYAAAJA3gBMFAKhhIyOVnJxMTvTevXuS8hs3bkhKBI4ePZo/f/6dO3dKKwwPKjVp0uTWrVuXLl1iv84fO3asT58+0nYGaKVkXoWP48aNK1eunNLVWZWVcmIjAQEAIG8AJwoAUMNGRoo9sZSamiouvHr1apkyZchEigsZFy9erFq1asuWLXU6nbROr9+0aZOHhwdNCE70wYMHbm5u586dkzbNzuHDh52dnYXH7SWor5QTGwkIAAB5AzhRAIAaNjJSN2/eJCealpYmlCQmJjZs2LBXr15y2xcVFVWuXLmuXbvWqFHj3Xfflf+m36ZNm1mzZulFTpSYMGGCl5dXtnYiHj169M033xQqVGjevHnSOgM5rpQTGwkIAAB5A7s6Uc3ejQuA42IjI3Xjxg1younp6TRN1jM4OJhsH9nQhw8fSlpu27atRIkSw4YNy8zMvH//fufOnT08PMQ/r+/YsYMaJCcn67M70b/++qto0aJGr7BSYb169aiW1iutM5DjSvmxkYDaAQcOy4GGDoFmh8muTlQ9IwMAnkPUd1uzjVRiYiI50a1bt37//fc1a9Z88cUXf/31V0mbyMjInj17kiP09fUVCp8+fTpo0KAXXnjh9OnTesMP+m5ubqtXr2a1YidKzJw5s3Llyszv3rt3j5p9/vnn1atXL1y48GeffWb0nlSelZqEjQTUDuoCAh6goUOg2WGCEwUAqKG+2+ZopB7dSb20LORhkvS9oeREXVxcqlSpMmTIkMDAwMePH0saEAMGDPjf//53/fp1SXlmZub7778/fvx4vcEjit85HxcXV7x4ceHjkydPgoKC2HRycnK1atVGjBixZcsW5k2NwrNSk7BQQKAuIOABGjoEmh0mOFEAgBrqu62Kkbq1/+ShzuOC3d9OPhglqWLIH5znhyym0dcqXbt27dNPP5WWWgmllapjtoCAoS4g4AEaOgSaHSY4UQCAGuq7rdxIPbqTembSEjKgAU5NNhVto2RDtYOpAgIJ6gICHqChQ6DZYbKrE9Xs3bgAOC7qyVFspG7tP7m39YjAAi2oMKTM2xSwoXoOAX18fHx9fVX+yZPGwYHDcqChQ6DZYbKrEwUAOBw5GinvCZN8OwwNLPFGoHNz+kgR+tK7sKECOQpIPj4oKOjUqVPSOgAA0ABwogAANXI0Uv4F/zWgCPPCz89vz549sbGxUnEBAEADwIkCANQIyMmJek+YtKLL8EC3dkGFWjJrlfXTvPtbuCYqwdfXd352qCQoKIhs6KlTp+RP6wMAgBaAEwUAqJGjExXuE00Jjznw1qjAgi0DnJtvLvEmzKiE8PDwPdmhEvKgsbGxZEMl//gUAAA0gl2dqGbvxgXAceF3oqzk0Z3UP6f5hpTvFODUZGMRPDsvBWnQVKCY5UBDh0Czw2RXJ6p+SAMAPIeo77ZyJyqQEh5zuOvnKu8T1SbqegI5UMxyoKFDoNlhghMFAKihvtuqOFGG0v9Y0izqegI5UMxyoKFDoNlhghMFAKihvtvm6ESBBHU9gRwoZjnQ0CHQ7DDBiQIA1FDfbeFETUVdTyAHilkONHQINDtMdnWimr0bFwDHRT05womaCtKgqUAxy4GGDoFmh8muThQA4HDAiQIAALAdcKIAADXgRAEAANgOOFEAgBpwogAAAGwHnCgAQA04UQAAALbDrk5Ug3fjpqamRkZGJiUlSSuyw9kMAPsDJ2pdNJgGLQSKWQ40dAg0O0x2daLqhzSTuHz5cv78+QsZ+Omnn6TVz4iLizPD3qnMdfPmzfT0dGmpMXx9fb28vMaMGbNw4cJRo0Z16dKFjtaPHj0yr9nTp0/XrVt3584dSbl5PH782NRFzZw58/bt29JSEX5+fhEREdJSY4SGhsbHx0tLDeh0upiYmIcPH0orjDFr1iwaDmkpsDbquy2cqKmo6wnkQDHLgYYOgWaHyYGd6AsvvCAu+euvv8iatG/ffuDAgYsXL2aFderUIXsnbsaDyly9evX65ptvpKXZ+eeff/r3779kyRJJOZV89NFHwkfOZgKVK1fet2+ftNQstm/f7urqOmjQoDVr1kRHR9+9e5e8740bN955552///6btQkODu7UqZMwi7u7OyksfJTj7e3drVs3mnjw4EFISMjevXulLZ7xxhtvbNu2jU2TJyaTLVTRZuTLl+/s2bNCiRI0o5OT061bt6QVwNqo77ZwoqairieQA8UsBxo6BJodpjziRMnNvPLKKzVr1qSDIvmhRo0asXIVT6mCyly1atViR9wffviB/K6vr++CBQvIm3bp0kWn07E2X3/99cGDB7PN9gwq9/HxYdOczQTIBM+ZM0dSKIesZExMTFBQ0I8//kiGT+naJ3k4Pz8/Ly8vcn7t2rX7/vvvv/rqq+HDh9NWsQZJSUkFChRITk5mH8uUKbNhw4bIyMjMzExhIWQcqTAgIGDFihWffPIJta9fv37BggWbNGkSGhoqNIuLiyPPPWXKFDpVmDdvnoeHR/fu3amkRYsWRYoUiY2NFS+QtkfpgjSDHDwNN81VvHjx06dPk3G/fv26tBGwHuq7LZyoqajrCeRAMcuBhg6BZocpjzjR7du3k4M5ceIE+yiYQhVPqYLSXI8fPyabdffuXZoeMmQI+a0GDRqQnSLvO3bsWKqlcvJGn332mXROEaNHj46Pj+dsJi6ZPXs2mVHhY1RUFNsSBjnCjz76yNPT08nJycXFhdze66+/ThO0wf7+/kIzCf369WvcuPGRI0fS0tKqVq1KE++8845Q27RpU+oX9bR8+fK0HFomLZCmo6OjWYP79+9T9zt06NCjR4+RI0fWq1ePvOy9e/eoSmxYyc6S0/3yyy+pzaBBgypWrNizZ0+y2mRhaVFPnjwRWqanp9M4ivslZ+DAgc7OzoULF6aWrq6udNZx/vx5aSNgPdR3WzhRU1HXE8iBYpYDDR0CzQ6TXZ2oFe/GlTjR33//nXzJjBkzRE2yEHvKadOmkbUiL0WGSThqXr9+vXfv3mXLlqXy6tWrZ2RkiOdKSkqiWby9vVljcjzlypVj00rQNijdBMmg2uXLl3M2E5ecPHnS3d2dOj5z5szXXnutUKFCwcHBQm3Hjh29vLwWLVpE3k5wgQ8ePFi1ahWZyD/++ENoKTBnzpx3332XdZkICQk5deqU3mC4aZosY4kSJWiNkyZN2r17N/vVnv4OGzbsjTfeEC+HQe7fz8+vSpUqv/zyC5lFkpTWLm1koFOnTr/99htNkGeV3Fp6584dGkf1+0TJ1164cGHAgAHkemml5IbJQK9du5b6vnDhwkuXLklnAJahnhzhRE3FimlQI0Axy4GGDoFmh8muTtSKyO8TJX9DJoasVVxcnFAodqJk4DZt2vTnn3+2atXqzTffpJInT56QpStduvTPP/987ty5rVu3Mg/H5kpNTa1fv367du2E54fI8ZAxfbbs/668ivnwww+lRdmhuUaPHs3ZTFxCR/r8+fOXKlVq8ODBO3bsEG7ozJHOnTvPmjVLWqrXU9eCgoLYtLgv1N8OHTosWbJk3759bm5u4muWesPF10qVKrHpxMREj2dUq1aNxPH09GzevPmuXbvYlVEB0pxOAKiqdevWtMwKFSpQ+7p1637wwQfiZmT9aRDFd44qQQMXEBBAE59++mnbtm1HjBjxxRdfjBkzJioqStxs6tSpSvcnAE7gRAEAANgOB3ai5GbEJWRfpk2bVsTAunXrWKH8d/YHDx5MnDixePHiNH306FHyPeRgxA30hrmGDx9ObpXME/lRoTwsLOztt99m0yEhIR07dhSqBMgSSYtkDBs2jLOZME29qFix4rJly9SvFxqlevXqNKPwkUww+72e/r700kukJE337dt37ty5QhsBanDw4EEyvosWLYqJiQkMDKxRowYZPlZL/lW4pMpISEgoX778mTNnxIV6w+iQ8snJybdu3aKzBVqOpAHjypUrBQoUkJYa7oUQPyZ/48YNZ2fnlJQUURPj0OkK6yAwGzhRAAAAtsNRnShh1JPFx8e//vrrTk5OV69e1Wd3oosXLyZfRT7Jw8ODOdGAgAByotu3bxcvQW+Yq1ChQlTl6+srLt+6dSu5qHHjxv3111/srkpxLcPHx0f9NkeqJe/L2YxNb968uW7dupKrjJwEBwcXLFhQuC5IohUrVkx4ON3b27t27drp6elk19zc3M6dO/ffnAbIkX/55ZcnTpwg/9qwYcNevXqRaOKXTJETnT59OmlOJwYkrKenp7u7O+ksPOokcOzYMTLEP/74Y4MGDYy6XuLSpUsuLi6SwqioKDq7EMu1cuXKFi1a6A1WeOTIkSpeE07UcuBEAQAA2A4HdqJKREREkIlkN1kKTvTgwYNUuGLFCpomM8ScKGspfysTzUX+5oMPPiADJH68fe/evU2aNKFasmKFCxeOjIwUzfQvR48eXbp0qbRUBNWS9+VsxqbJ/hr9eV0d8oJkH8l3rlmzRihcsmRJ48aNRa309evXX7RoEU1MmDDBy8tLXKU3mGDhRQRGGTZsWLt27UgK4W4BOhnYsGGD5Bd2ctU1atSYOHEinQ+QoyVhX3vtNWombqM3+G86ixDfYEqLbdasmeQScps2bRYuXEgT27Zto+EwepsEA07UcuBEAQAA2A67OlHb3Y27f/9+sm4JCQlkYsaNG+fi4sKeXBGcaEhICJnOLVu2HD58uFWrVs7OzmlpaU+ePKlXrx6ZFT8/v5s3b4aGhjI7xeYiu9mpUyfyrILj/PPPP2khU6dOpelJkyaVLVv2vffeGzt2LBm+1q1bT58+XW/4GXr48OFKz81Q+cCBA/XczRhz58718PCgLly/fj09Pf3evXvXrl07cODA7t27RTP9y5QpU/r379+gQQMSoWPHjuJ3c5I3dXNzIxG2bt06c+bMx48fP3z4kBwhe/0qqVeoUCFa8n/L0utv375NWt2/f19cKKZly5aS+x9IWPGjVAzafuEdoqS/v7//jh07atas2bZtW/F9vUS1atW8vb3ZBW8SnIagevXq4uvBp0+fptMA9pp96kjp0qXDw8NJln/++Sc2NlbyHlM4UcuBE7UutkuDeRUoZjnQ0CHQ7DDZ1YmqH9KIR3dSLy0LeZiU8/1/ElauXEnGi2xiwYIFyVqtXr2aldetW5c990Oms3379tSgRIkSPj4+RYsWJRukN7zqsnHjxvkMVKxYkd2MKMxFxpRsk7u7O3vnZUZGRv78+dlz3wSZPHJUdAxev349WWHhLZjk8EaMGCG3ibt27erRo4dwdyNnM8Yvv/zSqFEj8lXUwQIFCpQsWdLT05NMsLgNg1z1ggULyOfJ/yXS3bt3f/jhB5q4ePEiOcgiRYoUK1aMOihczqRVs3dRiXn55ZfJ8EkKBch/lCpVijama9euPXv2JDFdXV1r1aol+TdRy5cvJxP81ltvVTHAdCbvOGTIEMktAYcOHaJu0raxV0f169dPfKuu3vBe1UGDBrHpzMxMOjEgZWilNAv5XXLh4sZwopajvtvCiZqKup5ADhSzHGjoEGh2mJ4XJ5oSHhPRd3Kw+9vJB7M9+8wPmZILFy5ILulJuHXrFnsSPC0tTexvyPZxPmEdGRlJ/klaKoO8HfldLy+vb7/9dt26dfR34MCBM2bMkDyHztnMRiQmJrK7adWZM2dOeHi4tFQECUIuZO3atSEhIeTOlfRJSEjYvn37kSNHlN7uJEAu9vTp06dOnZL/11O94XEl9f/2RCxatOgFA3TmQOuVVgNTUNlt9XCipqOuJ5ADxSwHGjoEmh2mXHaij+6kxs7dsK1qtwCnphsLtzbbhj6fkDmOi4vbv38/eT5pnQjOZoAfsrBpz5DWAROR77Zi4ERNRV1PIAeKWQ40dAg0O0y55kRTwmN+7z1pY5E2m0u1DyzQPLhUuzxmQwHIG6gnRzhRU1HXE8iBYpYDDR0CzQ6TXZ3o2anLhYugm0u2CyrYgnSnv7ChADy3qCdHqvXx8fH19VW/hQMIaPahBLOBYpYDDR0CzQ6TXZ1o0s6IjUXb0KELgUDkmZg/f35QUBD7V7EAAACASdjViRIPk1KO9v9W7Ef3Nh+2pWxHXBMF4DnHx8fnu+xQCdlQPz+/PXv2sPdLAAAAACZhbycqcMUvbEfN3gFOTcmMhtXoBTMKwHOOr6/v/OxQSVBQENnQU6dOXb9+XToDAAAAkBO55kQZ/10idWqyybUtzCgAzy3h4eF7skMl5EFjY2PJhkpe+woAAADwYFcnqnI37hW/sP3tR1nyPlEAgK1R2YUBJ9DQVKCY5UBDh0Czw2RXJxqg+hCu3oL/sQQAsAM57sIgR6ChqUAxy4GGDoFmh+n5cqIAgOcZ7MKWAw1NBYpZDjR0CDQ7THCiAABesAtbDjQ0FShmOdDQIdDsMMGJAgB4wS5sOdDQVKCY5UBDh0Czw2RXJ6rZu3EByBtgF7YcaGgqUMxyoKFDoNlhsqsTBQAAAAAAQABOFAAAAAAA5A5wogAAAAAAIHeAEwUAAAAAALmDXZ2oZu/GBSBvgF3YcqChqUAxy4GGDoFmh8muTlSzbygAIG+AXdhyoKGpQDHLgYYOgWaHCU4UAAfg8b20Wweicj1oF5YX2i0e30+X6iLjORFKJXJXQ6V4nrW1s2I8UuhzTw3zws4amhE8sjuW5mbE8z9MZgTPyMKJAuAA3DIkKY1H8sEoqS4yIJR5AW2F4JFCrxk17BY8skNzRwyekbWrE1W6B+LJkyfr16+/e/eutAIAYICl4Atzf7p1IECDcWHOT5wZTeNCmRHQVgh+KfQaUMNuwS87NHes4B9ZuzrR5OTkCxcuCB8fPXoUHR3t7+/ftWvXL774YtasWaK2AID/YCmY9m2d7pQG4+b+AM6MpnGhzAhoKwS/FHoNqGG34JcdmjtW8I+sXZ3oihUrXn31VeHjzZs38+XLd/Xq1QoVKuzdu7datWqitgCA/9B4CmYZ7bc5yyMiIuj09eLFi4mJiampqVKZNC+UGQFtheCXQq8BNewW/LJDc8cK/pE17kSPHz/u5eU1ZMiQoc+g6e7du8fExEibmsLq1avr168vfExJSSEnSn/JoZ45c+bevXuitgCA/9B4CmYZLWjqz6Ghofv27Ttx4gQlNUodUpk0L5QZAW2F4JdCrwE17Bb8skNzxwr+kTXuRM+dO/f5559PEjF+/Hhyjbt375Y25eDOnTt+fn4bN24cNWpU5cqVNz2DDCgtc9WqVUFBQf7+/tLZAADP0HgKZhlt7cQZlChCQkIoqdEZNp1eS2XSvFBmBLQVgl8KvQbUsFvwyw7NHSv4R9a4E5VD3pRc4/Xr16UVHFy+fLlRo0YtW7b09PR0dXVt+YzGjRvTMps1a9aiRYu33npLOhsA4BkaT8Eso/l97bN69WpKanSGHRERkZCQIJVJ80KZEdBWCH4p9BpQw27BLzs0d6zgH1leJ7pt2zYykZLC5OTk1NTUdAXS0tIkj8NLfp2/du0aOdEHDx6Impi8TAC0gMZTMMtogd/9RDlkzZo1QUFBdHp98eJFqUyaF8qMgLZC8Euh14Aadgt+2aG5YwX/yPI60Xnz5jVo0EBS6OHhkU+Vl19+Wdxe4kTPnz9PbZ48eSJqYvIyAdACGk/B/BlN40KZEdBWCH4p9BpQw27BLzs0d6zgH1leJzp06NABAwZICi8ZSFCAquLi4sTtfX19xc/Oh4WFubm5ieqzMHWZAGgBS1Lw/PkTfvxxnLzcupGe/ntMTOCVK2GZmSeFQp5Vi9sotefPaJYIxRlGe2rrUFJGHmPGeG3e/LO8XCmsqK1RZfi3XBJmz2h28Euhz0mNXJTiwYOI06eDEhJ2PHlihVVbK1Q2gF92dc1Z5G73Td37rBV266BJwT+yvE60YcOGs2fPlpaayI0bN44dOyZ8/Oyzz7p27SqqBwAYhycFx8WFOjvnb9CgpqS8ffsmzZvXk7e3YqxZM83VtQj71aJw4UJ79y5l5Uqr7tCheatWr8nbKLXnz2jmCUUHrWLFio4c2Usoee21GqVLl3z6NIp9XLjwa3f3kjrlnoqjZcvXaHZ5uSWhpIw8XFwKffHFQHm5UlhLWyVl+LdcEvwzygeUBQ1EfgO0PTVqVJ09eywrb9GivryxzhQp9Kpq5JYU0dEBjRrVcnJyYqsuUMC5evUqJi3BdqGyAfyyq2iuez66L9/7+HOLJcHZQVukJpXgH1kjTnTu3Llz5syZlx0XF5fBgwfTBFVZbkmJPXv2UIIIDAyUVgAAZKinYBbffjuCpeDTp4PE5ZxJyuygVFupUrkmTeocO+Z38qT/2LH9wsNXsiqlVU+ZMnzChEHyNkrt+TOa2UK9+Wbj2rU92HRa2hFyNtTgwoUQVtK9+5sUKj0VB3Whbt1X5OWWhJIy8pAfC9XDKtqqKMO/5ZLgn9HogOoMA1G58gsrVnw3dGg3OthTg127FlN506Z16tevLl8OvxR6ZTVyS4qoKP9ChQoWL+66cuXUK1fCyJaR86bN4F+CTUNlA/hlV9Jc99x03+jex5Nb5IsSYtWq7ydNGiYvFwdnB22RmlSCf2SNONE+ffp069athwJU1bdvX+k8ppCZmenv71+mTBn5z/0AAKOopGAWdIZdrVoldiXmyy//NXks5EmKGgtn5JyhMstvv/1CK/X3nymvkq9aHnZ2okpCkZtxcnJKSTlA03v3LmXOxs9vOn3MzDxZqlTxBQu+UumpOFTSvYqMrNbotC67MkaXIBTKj4XqK7WKtirKyMdUZXvE5fIZjYbSgOoMAyFcAVq06Gtq8P33I3U2dqK5JUW3bm/Qeg8cWC6v0vF9f4yWq8yiUiVfmkoX+GVX0lxnSvdZyLdQXCUvVA9hFvnep+PLLeJFSTagR483X331ZckyWUthOsfxZaGSmtRnVAr1WfhH1ogTtSlxcXEvv/xyuXLlli5d+vTpU2k1AMAYKimYBaVgym6//jq5dOmSFSuWFd+dJk5SDx8e+/jjD6gNpb+xY/uxW6nOnt1Up84r48b1Z23+/vto27aNvvnm37PwlSundurUomTJYuXKlf7uu4/kq46K8qdV02LlVeJVT536MdmC+PhtNP3hhz369+8sbyM/YLDgz2hmC7Vnz69UHhz8M01Pn/5p+fLu+fPnHz26L308cWIdVf3552aVnorDaLpXkpFJsWHDD7Vre7i5lZgyZXh6+u99+3YsVqxomzYNaY2sGVNm2bIpnp6VyXVRg9TUcFb1zz/HaCE0L20zLblgwQLCsVBppeKwirYqyojHVGl7MjKO0/fNw6OSs3P+SpXo6DBZMqP4yyMJpQHVZXeirNn48QN0NnaiuSJFcvJ+8jrUTFwoDraEkJA57KdhsWVX2hL2zTQ6i0qV0QwjbIDQTBz8sitpztl9Nq3UX1KeOvLSS+ULFSrYsGFNdvmcRc+e7VgqoCBDSbuqcKahsvcJwZNbdAobRi6WUgFtEq10wICsnKnyDTE6IuIwmppUOk7HAta7smXdaJNo4cLdqDExge+/355yEa1u2rRP5evSmTKy9naiOp1u8eLFRv/dEwBACaUULMTQod0oYZGJ+eST3vme/QrJQpyFqRkljrlzvyDHQ9lw8eJJrHzChEE0F/khmqajNR1Frl/fxapGjOg5alSfTZt+6tOnA7W5ciVMvvZGjWpR1XvvtRHmYiGsevVqb2rAkqa4XGVaHPwZzWyhqKRAAWfmVN59t/XgwV3JnbNf92bOHFOhQhnWTKmn4jCa7pVkpC7T9rBjT4cOzamKTBJ50BkzRpco4Sr260WLFqYDz8SJQ9u1y3oTs3CsGj68Jx3/Ro7sFRAwq1mzulQlHAuVVioOa2mrpIx4TJW2h4529PF//+uydes8du1ZPKPkyyMJpQHVZXei1IxqIyPX62zsRHW5IcXRo35U7uMzSlIuBC2heHFX2q8//bT3Bx+8RY1pFlaltCUqs6hUKWUYpV1bZ4rsSprzdD9H5Wk/ogwwaNB7y5d/S18bsrbHjv3bqXr1PLt2bcumb9zYQ3MtWvS1MJfS3icEZ24xumFHjqxq0KAmnWL5+k7dvn2BTvkbojQi4jCamlQ6Tmshv0tjunHjj2+88bq4d7QoMsdbtsylDaMtka9LZ8rI2tuJAgDMQCkFs3jwIILSEKUSmqYkwvKUUCtk4aSkrJuzWULUGdJr27aN2PSjRyfo8EzWZ+3a6dSGkot8LefPB9OSjVbdu3f4nXdaUi15gqCg2UI5W/XhwyvpbFu45iqUq0+Lgz+jWSIUKdC48as0Ubas27JlUyhBu7gUysg4/vbbzdjVCJ1yT8VhNN0LIZGRukyynzyZde2ThKKq7t3ffPw4Umf4Va5KlQpCMzpiXb26k31s2LAmHfZ0his0dCD08urEymlGklp+LFQZO2tpq6SM0TEVbw/7WgoPl0hmlH95xKE+oDQ7HcLJu9OBnwnLym3tRO0vBZ1D0kLWrJkmrxKWQG4jLGwRTZM/psbTp0uvY8m/mUqzKFWpZBijfWfBL7uS5jzdl69d3F/yl7Tl77/fnlXdvn2ADBntgOyjkhPl3Pt0fLlFCMlAiH+dV/mGGB0RSchTk0rHExN3i6uePDkp7t0LL7jTCTPtgJJViIN/ZOFEAXAAlFIwC7KPlHqWLPmGUhgFWRZX1yJ0Is5qhSy8b1/WLUpUS4mVgg6T1apVEhZy+fJ2skTUoFOnFuKFP3x4zM9v+ief9O7cuRVbi3wDdIYbhlaunEq2gBIZu7aqM6y6UqVyZcqUateusfilKkru0+gBQ2dKRrNEKEqylM1PndqQz/B72YoV39EEHf6LFHGhrgkLMdpTccjTvU5ZRnGXY2ICqSowcBb7OHDguy++WF7ejOLjjz9wds5PjufIkVU0y5w5XwhV4jvVlFYqDmtpq1NQRrzlRreHfS3lBkvpyyMO9QGl9ZJRqFWrGn2lSSI68LNyWztRnd2l2LVrMc04b96X8iphCcKqMzNP5hNdUze6JeqzKFWpZBilXVtniuxKmpvUfaP9ZTdvzJ37335E5k8wfEpOVH3vEwdPbjG6YbrsTlTlG2J0RCQhT00qHWe3tM6fP0GoEvfO2/sTqqWvJcmu9D47/pGFEwXAAVBKwSzoxDqfDOEKgZCk2O1KdAa/dOlkFnQgFxYSG7uFPfYxalQfoZDO8tu2bUSHwPHjByxePCmfgpsR4ty5YDpvbv/shi2aeOml8hUrlqUTaHK6QjNx3lSaFgd/RrNEqK1b59FH8n/u7lnvWKEDBn1kP3UJFyOFkPRUHPJ0ryKjuMv8TnTkyF7U8u7dQ+wYvHq1t1AlHC1UVioOa2krhPw7wLZcaXvY13Ly5A8ly1H68ohDfUCbi36dF4cdnCgLu0kRH78tn+GrK68SlmDUqShticosKlUqGUZp19aZIruS5vzdV+ove85s2bIpwiyvv167atWKbFrJiarsfZLIMbcobZguuxNV+YYYHRFJyFOTSsfZjwzipCHpHWUq2r/YiIuXKQT/yNrDieqeZN7af/LSiq1npy6nvzRNJdJGAABllFIwxbVrO/Pnzz9hwqArV8JY0Jm3s3N+OkizBkKSSkzc7eTk1KVLa/lCHj060bjxq40a1Ro+vCdlFuG+ny1b5tLHVau+1z370Ue48UspatSoKvFPZLBKlixWs2bV27eznh4VytWnxcGf0SwRiv0ylc9wh5/OcFmrVKni9NHTs7J8abrsPRWHPN2ryCjuMr8TpZGig5bO8FIY8jrC4xR//fVbgQLO7GihslJxWEVbSci/Azrl7aFpkl1uDZW+PELkOKDNc9uJ6uwlBZmPOnVeoaEn7yupEi9BaJzvmVNR2hKVWVSqVDKM0q6tM0V2Jc35u6/UX/L3ND14cFfWnt3ZKXyRaESE2wzYSxiYE1XZ+ySRY25R2jCd4Xkp4dKy+jeETZvkRFU6TsspW9atT58OrIrdAiHpHbXp378z7XTy76TOlJG1rRN9fD/9zDdLgt3a0daII9itPZVTrXQGAIAxlFIwxYwZo+l4LHkYhQ4GVMgemBAnqUGD3qOs8fXXQ86cCfr999XC2fzEiUNdXYtcuBDyzz/H2NOX7Ez9+PG1lH0++uj97dsXdOzYPF/2K6YsKIfS7NHRAcnJ+3/5ZSK1oU1iVcKq9+1bSim7ZcvXHj48JtkkpWlx8Gc0S4SioDRN2z9z5hj2kXVZeA5apafioC5UrVpx796lQoSFLVKSUdxldSdasGABH59Rly5tmzr1YzpaCC83ePPNxnRUmzXrsxUrvqP1CkcLnrHTWUlbFWWEDqpsDx3M6CMd8w4eXOHvPzMkZI54RsmXR4gcB7R5bjjRXJFCZ7i4RR7F3b0k7dT0Jfnzz81Ll05+/fXaklXrsjsVlS1RmkW9SinDKO3aOlNkV9Jcx919lf527tyKvVApMnI9e2aIPe2uMzxLVLy4a1DQ7MmTP3RxKZRP9MSS0t4nD/XcorJhtNfTxx07FpLx1eX0DdHJRkQc8tSUlLRHpePkUOkjyUjetEqVCjRNI6szOOlPPukdGjo/Pn4bbW25cqWFW2LEwT+yNnSid0+eD32xM7OeO+v0OPHh+D++86a/NM0KQ198l9pIZwMAyFBJwXXqvNKhQ3NJ4aZNP1HW+Omn8TT91ltNW7Soz8oplw0d2o18DNWSs2HnvuHhK+ngLfxAQ360WLGiwv9AGjCgM7WnoNTTtWtbcRZmQc5J+I8yFSuWpdz6999HWZV41ZQ06VDB7n8XlytNi4M/o1kiFAV7/vrw4ZXsI2Vz+ig8dKLSU3FQF1gbgVWrvleSUdzl06eD8olWRwf1l176z4k2bFiTDgnUgGTs27ejsGoavvLl3am8RAnX5cu/LVz4v1/QlFYqDqtoq6KMuINK23P/fnjv3m/Tl5BKihYtzF4Ko/TlESLHAVX6X0rNmtW1nRPNFSlYkE/19KzMVk1tatf2EIyOeAnMqdD5jPqWqMyiUmU0w0hmkQS/7Eqas+DsvlJ/b9zY06lTC3blkhLgzz9/LiyZLFr16lWonNwY+52dzjFYlcreJwn13KJT3rCEhB30NaaP7Q23eeT4DZGMiDiMpiaVjpO/HDu2H+0vlItoy2ml3t6f6AxOtFatamwb6tXzZG5YHvwjaysnShZzY9HWtBF7W/a7fSJEsn1UQuVUu7FoG5hRAHJEPQWbGhkZx+PiQoUHOHKM5OT97HScEhClRfnbjKnk0qVtMTGB8iqrBH9Gs65Q8rCkpznKqBJ0+GHzXr++6969w5JaOvZcvrydPXEviRxXai1tOZVR2R467FFJpsLTD3YIfin0qmrkrhQpKQeOHfMz+mupUqhsiXlhUobhl11FcyF4uq/S39TUcCXlr13L+plIHip7n6mhsmG0dvGD6pZ8Q4yGSsdZrFvnQ74zIODfX2x0hjdXCL8mGQ3+kbWJE318P51dDT02cMzTx8Y7RuVUS21CKrxz49KV1NTUjIwM6YIAAAZ4UnAeDv6MpnGhzAhoKwS/FHoNqGG34Jcdmts5pkwZ7uXVacGCr0aP7lumTKmqVSs+enRC3kwp+EfWJk70zKRFAYaroZmP1M4SqHZPCy9quWfYd7RxiYmJ8KMAGEXjKZg/o2lcKDMC2grBL4VeA2rYLfhlh+Z2jrVrp/fp06F+/epNm9b5+OMPEhN3y9uoBP/IWt+J6p5kBpfOekRJ/qO8PKhN1oYWb3to/4Ho6OiEhISUlBSYUQAkaDwF82c0jQtlRkBbIfil0GtADbsFv+zQ3LGCf2St70STD2Z9V3bW7S7fLKOxrVY3ah88fT5tIjOj+F+gAEjQeArmz2gaF8qMgLZC8Euh14Aadgt+2aG5YwX/yFrfiV5alnWZM3LEv8+i5hhHh46j9uuHfrV582ZmRhMTE3FZFAAxGk/B/BlN40KZEdBWCH4p9BpQw27BLzs0d6zgH1nrO9FzM1bTuk9P/Fa+WUYj+qsp1H7dB2PWrl0bEhJy6NAh2lBcFgVAjMZTMH9G07hQZgS0FYJfCr0G1LBb8MsOzR0r+EfW+k7U1GuiEUPGBhiuia5atcrf3z8sLCw6OjolJUW6XAA0jMZTMH9G07hQZgS0FYJfCr0G1LBb8MsOzR0r+EfW+k7U1PtEt9boSu03TJlNTpRdFo2IiEhMTJQuFwANo/EUzJ/RNC6UGQFtheCXQq8BNewW/LJDc8cK/pG1vhM1PDvfPsCUZ+cDirUJWO9PTtTPz2/z5s2HDh1KSEiQLhcADcNS8IU5P9G+rcGgjnNmNI0LZUZAWyH4pdBrQA27Bb/s0Nyxgn9kre9E9VnvE10cwPc+0Z1N+mRtaI/RgYGBOW4rAJqFpWCNB09Gg1DmBbQVgkcKvWbUsFvwyA7NHTF4RtYmTtTwP5a6BOT0P5aO9BuVtZXu7QNX+cGJAqAC7VPJB6NYHPjFb8uMhRumzPb72kdTsWbJMsoS/v7+oaGhERERRn85gVDmBbQVgkcKvWbUsFvwyA7NHTF4RtYmTlT/7/+dbxOg/H/nf2vaN8svu7QMnLmAbGhAQAB+nQeAh+joaDpbCwkJoX17jcagLlPH9z173ZtUmuxoWSgzgLYCJkmhz+tq2A2TZIfmDkSOI2srJ6o3mNGQCp3Y5dmddXoc6jJs/xsD6O92w6vs/70aarChBG0onlgCgIeLFy+eOHGC9mo6xQzSGNRl6jh1n0TI8Q0bWhbKDKCtgElS6PO6GnbDJNmhuQOR48ja0IkSNy5d2fPh1MBiWRdHs4Vr68CeY9iP8uyCKHlQvMUJAB7oPI32Z9pN6Jxtn8agLlPHqfskQo5vHdayUGYAbQVMkkKf19WwGybJDs0diBxH1rZOlFZJ6z60/8Bm73kbGmb9HE9/N0yeHbDeX/Cg5D6ZDcWb7QHggfYOOlWjXTohIeGixqAuU8ep+yRCjv+JTctCmQG0FTBJCn1eV8NumCQ7NHcgchxZ2zpRWiWtnt3PsbHPeHKi67p/usrAagNsmtlQ/LdPAAAAAABNYVsnqjecuJAdJn+5bdCkrGui749Zvnz5smXLlhqgCfoovpuVGuOCKAAAAACAFrC5E83IyEhJSSF/uffjaeREQ/pPWLt27Zo1a1YaoAn6GBYWdujQIWZDqTEuiAIAAAAAaAGbO1G9wYympqYe/XxO1kudPp62bdu2kJCQjQZogj6Kb2WFDQUAAAAA0Aj2cKKMmMlLyImemDA/MjLy999/P2SAJuijyn2sAAAAAAAgr2IFJ3rrQNTZqctzjP1vfExOlP4eHjNLEvLGtEzpagAAAAAAQN7CCk6UjKP0daEWBy1TuhoAAAAAAJC3sIITxTVRAAAAAABgBlZwomLS0tJu376dlJR09erV+OyQ4yQnSn+Py5C0FKCF0KJogbRY3EUKAAAAAJDHgBMFAAAAAAC5A5woAAAAAADIHeBEAQAAAABA7gAnCgAAAAAAcgc4UQAAAAAAkDtY2YmqcNbw2lH6K/Wb8fHSpgAAAAAAQAPAiQIAAAAAgNwBThQAAAAAAOQOcKIAAAAAACB3gBMFAAAAAAC5A5woAAAAAADIHeBEAQAAAABA7gAnCgAAAAAAcgc4UQAAAAAAkDvAiQIAAAAAgNwBThQAAAAAAOQOdnKimQ8zwmr2JidKfy+ePQcnCgAAAAAA7OFEdU+fHun5FdlQFrs6joq7eBFOFAAAAABA49jDiUaPm0sGNLj0W9dDDtJfmj4w5Ds4UQAAAAAAjWNzJ3pxYRBZzyCXVskHo+hj4p5jgYVaUkn45IXnDZATzcjIkM4GAAAAAADyOrZ1oomhhwOdmwU4Nb2ybid9JMeZlpZ2/OfVVBKQv2nEwrXMiVIhzCgAAAAAgNawoRO9e/L8Jte2Wc/Le6/QP7Oht2/fJut5cMwPWRdKi7Q+tWknfaRCmFEAAAAAAK1hKyf699UbWyt0Jrt5fLA3K2E2NCkpiazn+fPnf+s2jmo3l+1w7vAxKmRmNPsyAAAAAABAXsYmTvTx/fSddbyynkxq/+nTx0/0hguizIZevXqVOdFzf5zd3mwwtdla/f3LZ88zM4rLogAAAAAA2sH6TpSsJxlQsphkRsmS6p/9Li/YUIHY6DNkQ7NeMtpi6JVLl6kBfqMHAAAAANAO1neixwd7Z13prND576s39KLbQwUbShNJz0iIPB1criO13/v+l1SOG0YBAAAAALSDlZ3oWe8VZCs3uba9e/K8XmRD2e2hgg1ljpNVXfwtfGPRNjTX4bGzhSqYUQAAAACAPI81neiVdTsDnJoGOjdLDD2sz25D2QVRsQ3NMMAanF2zlb3sKWr+OphRAAAAAACNYDUnmnwwKsilVUC+JhcXBuk5bCibS2h20ifrYmpgoZZ/BIbJmwEAAAAAgLyHdZxo6vkE9m88o8fN1XPbUIbQ+MiI6Vm/7Jdqd2F/hFJjAAAAAACQZ7CCE/3n1t1t1bqTiTzS8yvd06d60atDhaeU1J0lM6Mpycl7O39Gywl+sUv8qT+EWaStAQAAAABAnsAKTvT33pPIPu5pOiTzYZbLzMj+6lB2QVTFhjKYGU2+nrSjQX9a2q7OY4TLqCpzAQAAAAAAx8UKTvSfW3fJjNJfvbFXhzJDqW5DGWzeK2fO73l37Pnjp0yaFwAAAAAAOBxWcKJi2O/yEhvKf13TvOupAAAAAADAEbGVE2WYca+n+B5TBpwoAAAAAECexCZONOkZZphI9hu9hQsBAAAAAADPPzZxogLmOUjBjFq4HAAAAAAA8Dzzf0tAykZs19/RAAAAAElFTkSuQmCC;" vertex="1" parent="1">
                    <mxGeometry x="30" y="38" width="766.58" height="600" as="geometry"/>
                </mxCell>
                <mxCell id="23" value="" style="outlineConnect=0;dashed=0;verticalLabelPosition=bottom;verticalAlign=top;align=center;html=1;shape=mxgraph.aws3.alexa_skill;fillColor=#5294CF;gradientColor=none;" parent="1" vertex="1">
                    <mxGeometry x="320" y="46" width="28.57" height="30" as="geometry"/>
                </mxCell>
                <mxCell id="24" value="" style="outlineConnect=0;dashed=0;verticalLabelPosition=bottom;verticalAlign=top;align=center;html=1;shape=mxgraph.aws3.lambda;fillColor=#F58534;gradientColor=none;" parent="1" vertex="1">
                    <mxGeometry x="397" y="44" width="27.97" height="34" as="geometry"/>
                </mxCell>
                <mxCell id="25" value="" style="outlineConnect=0;dashed=0;verticalLabelPosition=bottom;verticalAlign=top;align=center;html=1;shape=mxgraph.aws3.cloudwatch;fillColor=#759C3E;gradientColor=none;" parent="1" vertex="1">
                    <mxGeometry x="710" y="42.68" width="32.5" height="36.64" as="geometry"/>
                </mxCell>
                <mxCell id="26" value="" style="shape=image;imageAspect=0;aspect=fixed;verticalLabelPosition=bottom;verticalAlign=top;image=data:image/jpeg,/9j/4AAQSkZJRgABAQAASABIAAD/4QCMRXhpZgAATU0AKgAAAAgABQESAAMAAAABAAEAAAEaAAUAAAABAAAASgEbAAUAAAABAAAAUgEoAAMAAAABAAIAAIdpAAQAAAABAAAAWgAAAAAAAABIAAAAAQAAAEgAAAABAAOgAQADAAAAAQABAACgAgAEAAAAAQAAAKSgAwAEAAAAAQAAAJ8AAAAA/+0AOFBob3Rvc2hvcCAzLjAAOEJJTQQEAAAAAAAAOEJJTQQlAAAAAAAQ1B2M2Y8AsgTpgAmY7PhCfv/CABEIAJ8ApAMBEQACEQEDEQH/xAAfAAABBQEBAQEBAQAAAAAAAAADAgQBBQAGBwgJCgv/xADDEAABAwMCBAMEBgQHBgQIBnMBAgADEQQSIQUxEyIQBkFRMhRhcSMHgSCRQhWhUjOxJGIwFsFy0UOSNIII4VNAJWMXNfCTc6JQRLKD8SZUNmSUdMJg0oSjGHDiJ0U3ZbNVdaSVw4Xy00Z2gONHVma0CQoZGigpKjg5OkhJSldYWVpnaGlqd3h5eoaHiImKkJaXmJmaoKWmp6ipqrC1tre4ubrAxMXGx8jJytDU1dbX2Nna4OTl5ufo6erz9PX29/j5+v/EAB8BAAMBAQEBAQEBAQEAAAAAAAECAAMEBQYHCAkKC//EAMMRAAICAQMDAwIDBQIFAgQEhwEAAhEDEBIhBCAxQRMFMCIyURRABjMjYUIVcVI0gVAkkaFDsRYHYjVT8NElYMFE4XLxF4JjNnAmRVSSJ6LSCAkKGBkaKCkqNzg5OkZHSElKVVZXWFlaZGVmZ2hpanN0dXZ3eHl6gIOEhYaHiImKkJOUlZaXmJmaoKOkpaanqKmqsLKztLW2t7i5usDCw8TFxsfIycrQ09TV1tfY2drg4uPk5ebn6Onq8vP09fb3+Pn6/9sAQwABAQEBAQEBAQEBAQEBAQEBAQEBAQEBAQEBAQEBAQEBAQEBAQEBAQEBAQEBAQEBAQEBAQEBAQEBAQEBAQEBAQEB/9sAQwEBAQEBAQEBAQEBAQEBAQEBAQEBAQEBAQEBAQEBAQEBAQEBAQEBAQEBAQEBAQEBAQEBAQEBAQEBAQEBAQEBAQEB/9oADAMBAAIRAxEAAAH9+K1atWrVEPO/f+LveH1+o873tQpPIs/kO/b6Do29LVq1atWrVq1atWr4O/cf5E+cv0j8MPnt9/fgX9l+6fD/AK1+TPnfyL4bh+f2p7v1n9L+vfYdfstWrVq1atWrVqqenz/yV/rD/OEgbV7L8X+pfW387f1T+QfmfxnMdX2D1ftH6N939KatWrVq1atWrUM5/lp/UH+fnJev81q9Z+Q/SfrT+cP6q/JLzf481avrLp/YP0q7/wCnNWrVq1atWrVq1cP7Pyny9+nfgFZ0ef2/ifXejfkv6n+SXm/x5q1fWXT+wfpV3/05q1atWrUgr4p9l+W896HiatWrV3Xh/Xeq/MfoPh+Pw35J+b/HmrV9ZdP7B+lXf/TnIr5HgmP5/wC16/b98/0GqK+G/wBs/k35n/TPwSY6tWrVEPuL8P8A616r8x++/JTzP49xtX1l0/sH352/0J+OXlfxdzw8yxPV+vXp/wBk+oafUpr8nP6r/wA56nt8vVq1atWr2L439Q+rP50/qT8kPM/jua1fWvV+xe96/oP5n8H8uatX372/0R9t9f7pq+AP3r+N/BvvvxvVq1atUV9ifjv9O/UH5R/Qn4z+V/E/KL4yYfp36H9U16835rcP8waiT/rf6f8AYnsuv2qaZ68vzt+hfidD3+NoY2B1dt4v1nvnwf7FMeKTw/mDn/K/Utfq/oPb9F8rz+S+cef80WT7zt+g+y6/bak1QD0fg1P6L41fd6pvF/RnT+YOGHv/AAqn9D+in5f7bf8AAlw5j5b1fHPxb7ZtzbatWpei+ofqvyXoH6F85o6H4dc/+g/yhn+1avUG+M/og6f8xf57ub/THyBfvIj+p+/8bfopwfzD8C/58/0TV+T26tWrVqW6fcn94fgHc/e+Cmv5o+T/AFgqR6Gr1tvhv3W6f87P5xeT/VFzZavqzT8X/YP4D+G/iT+Fv3zVq1atWrV9Rf1b+R+9/wBB/ncV+QeH9ufBWX9KRH9Otv5C+8tf5x/nN5P9T3Flq+p9Pxn9wF/z5+Fv4H/oPlfkfZ1atWrVYely/c396/z7031Pl6hzfLafr1meT6Vb8q85H0385vJ/qe4stX1Pp+M/uT0f56suDfzL8u+qBzaatWpbj0P9I+au/e4NWrVq1avOR9N/Obyf6nuLLV9T6fjP7NfJ/wAH/O382/pkm779D+c94/oD88lrVq1atWrVq1avOR9N/Obyf6nuLLV9T6fjP7Afm/8AD3xZ/D/7vqgX1Z/XH477j+8/A6tWrVq1atWrVx49r+bjk/1ZPJq+vdPwz9dPg/4l+Iv4S/fcbV77/Q35v9P/ANVfk+rVq1aoqaipqKmH47Yf3J8KZf0fZnh/bfo/z8+px+P/ABV/Dv7v51+Z/U2frcf21/dH4J2H2ni6oqaitSK1atWrVq8fH23Ynw+vvF1Qp5D432ej+l8t7346tWrVq1f/2gAIAQEAAQUC+/deLfDVlJt+9bTuvda0Rpn+sDwZbS7du+17vF/O+OPFtxuF2AA41rhl8DeKJN+tVrTGjxr41vPFV4NHYX15td34J8Uo8V7P/N38iobFJJT28ATKi8VeP7iS18G9/qYuJE75/NqSlad82ibY907eBf8AjK/rI/4wjv8AU3/xk385vnh7bfEFvc/VbuKV/wCyw31+G/AW7bPvf1kf8YR3+pv/AIyb75UEi++sLw1ZSf7M/YH/ALM/YH/sz9gf+zP2B/7M/wAPvavGnh7d5X9ZH/GEd/qb/wCMme777tGwwH64fCQk2PxPsfiKPv8AWF4lmur37/1eeJZtxi+sj/jCO/1N/wDGTb7u8Gw7Ruu63+937tLu62+68H+IkeJ9i7bgVq3H7/gArHiv6xUlfgnv9TSSfEf1vyKR4V7/AFKKk9x7ePtgl2zdfv8A1a7DLE76zh3Cy3zZbzw/ubJAf1XeGJti2n64v+MX7JQuRfgTw2rwz4f7XFvBdw331Y7RPJ/sqoX/ALKqF/7KqF/7KqF/7KqB7X9XWx2EnDtvnh7Z/EdtN9S+3Kk8P/Vt4d2GZ+L/AAwjxZtn+yUt2n6lbWvhzwJ4f8Mr77num3bLY7t/nEbLbzf8rHSPY/r8XvO9vxB4k2XwtYX/APnGbeibw59e/hXeZwQoPc94sNojl+sGPL/Zgl/7MEv/AGYJf+zBLT9YIrtPiXbd4V3+t/xlceJ/FHbwR/xmki0RJ8c+Lrrxp4h7fUH4xuLqK8uo7K1vbyfcLr7yVKQrw7up3fa2HuCJYty7eAYV3HjjxatSPC0X7rt9Sain6yPFYUrw9/MfV+FCx7fXV9X91te7MkB/Ud4AvILjxh/xiUX7rt9Sn/NSpYo54t42i52a7+9a2txfXG0bajadv7KSlad2+pj6vt2n2P6o/AewTvxh/wAYnF+67fUp/wA1KdxbW93FJ4J2Bav6DbE/6DbE/wCg2xP+g2xMeB9hBsdtsdtj+/4w/wCMTi/ddvqU/wCalb9fTbZtP9Od5f8ATreXtnjm3nXx/nPGH/GJxfuu31Kf81J8X/8AGO9/A+5LubP+b8Q2q7/w/GCI+31GWktx9YXimJU3h/v4AiX73/OfW19WN9su4hSVOytLrcrv6qvq/PgjaVJStO/+HrjZpnZ2lzuE+x7THs1h/O7h9X3gfdZtp8P7HsMfY6iTw/scq4Le3tUff//aAAgBAxEBPwHu8cngDy/If7iL+4/xeaXT9b+83xePNAkTx4836gwI8if6eOURI/I8/wC+Ph/3o/d394Af7l+Z+P8AkTHmWPpuohLNEfnLCSMsR/UwrWc4Y4SyZJxxwgN05zkIwjEeTKUqAA9SfD1H+4g/uX02U4cv7xfHe4CQfbySzRFef5mGGTHx6/d/vz435f4v5jF73xfyHSdfjH4pdNnhl2/7/wAYyMoH/f4D/eX1f9xZ/wBxI635f5HrP3b+F6vJ03wvQ5JdL12bppnHk+V6rHxnhLLGpDocE7xDHAgdRkjLJMyh7cAIxj+GIj/gFf7x/sXp82bpOoxdX0mbN0nV4JCeHqelySwZ8UomxKGSBiR/guj4IPr/ALhP+/8Al/fD47P0Hyko/wB+/Exx+/ljEQj8h0cyY4utjAcQyxkPa6uEaj7uycKjlEROcMcJ5MkhCGOJnOUjUYwiN0pyJ9AASS/vz+/PW/vV1ufp8GXLg+Bw5DDpOkjKUP1Yga/V9YBRySyfixYpEww4yP7ZmTxVAAD8gAB/sH475HrviOrx9d8Z1WXoerxEGOXBLbuHrjzQ/Bmwy8TxZAYyBP8Am/cf968f72/DQ6wxji67ppfpvkcEfw4+pjEH3Mfr7HUQ/mY7/DcsdkwJ+p8tmydN8V8l1GL+Lg6DrM2P/rJi6fLOH/F0QwlKY9yZuc7nMnkmcyZSJv1Midf9wZ6rJ0/+4g/FwhIiHWdH8l0+aPpKA6aWeN8/2cuGEvD/ALiB1OTpf3M/eHNiJjk/QSxAjggdRkx4J/8AFmSQ/wB5+Oz/AHBLqJx+c+Z6USPtZvjMOeUf7PuYOo9uMv8ADsyyH1MmOOXHkxZBuhkhLHOP+NCY2yHp5BP+8ef3v/drqf3T/eDr/huojL28eSefoMpH29T8dkmTgzwPg7YkYswBvHljKMvGv+4Q/wDLQ/gf9/Pk/wD0gyv+4lf8IP8AvB/1q4v/AEr6fs/3BX/hJfk/+uN/7l4vq/vZ+5nwX75dDHpPmOnJnhMp9F1uA+31vRZCOZ4M3P2yoe5hmJ4coFTgaBHX/wDGvvzMM0v7r+f+Oz9Pf2frsHUdN1AH+5v08eoxSP8AuYbL87R4H/Agf3r/AOft8D/xN13/AMrP7i/7hB+8P7sfvV8Z851vyHxOfpeij1gyY+ml1fvS/UdNPDHYMmCEOJSBNy8D/Mf9xK/4Qf8AeD/rVxf+lfT9n+4K/wDCS/J/9cb/ANy8X0JSjCMpzkIQgDKc5ERjGMRZlKR4iAASSeABb8v/ALjL+4vxOefTDr8/yeaEjGf91dNLqsMSDRH6knH086/PFkmP9q/8D8/cz/iF+e/8B8P/AJZf+B+fuZ/xC/Pf+A+H/wAsv/A/P3M/4hfnv/AfD/5Zf+B+fuZ/xC/Pf+A+H/yy/wDA/P3M/wCIX57/AL8Mf/yy/u9/uKH7m/vNmh0nQ/J/p+tyHbj6P5HFLoc+SX+Li93+TmmfSGPLKZ9I6f7iV/wg/wC8H/Wri/8ASvp+z/cFf+El+T/643/uXi0+X+d+I+B6f9V8v1+DosRvZ7kv5mUj+zhxRvLlP/WOEqsbqZf7jJ+6Ay7APlpY/Hvx6D7P8IByxy1/wQD/AE/P4P8Aej4L948cp/EfIYeqlAXlwWcfU4R4vJ0+QQyxjf8Ab2mH5H8tf9xo/fzq+u+Uz/uj8bnlh+M+P2x+WljkQfkOtlETPSzIo/pekiYjJi4GXOZbwYYog1XA8D8hX+0r/eP9j21/vMckEEcggjkEHwRRHmxwX/cF/wB++q+d6XqP3c+Y6ifUfI/FYY5+i6zMbzdX8dujjlDPM85M/RzMInKbnlwzxyn98ZyP+4l/8IP+8H/Wth/9LOn7P9wV/wCEl+T/AOuN/wC5eJ+e+Y6f4D4jr/lup+7H0WA5PbBqWXKajhwxP55csoQ9a3bjwDXzHzHyPz/X5vk/lc5z9TmkSI8+102Kzs6bpon+FhxD7QBzIgzmTIkv+8f7x/vAeh67q/jerwdf0HUT6XrOnnvw58f4gR6S9J45/hyY5XCcSQQb4/c3944fvT8D0vym0Y+oO7p+uwx8YeswUM0Y3z7c/ty4/P2ZACSQdP8AeP8AeP8AeP8Afnzsss/nvnpZyfel838ocpl53/rc13/mof4OPTnv/wBwbllj/uIXxAxXU+l+UjmA/wB2f0cpHd/TfGB/wgP+4kQlP9yP3hEeT+khL/NDqsEpf60QT+X+0Gv+4KRJ/eP5WX9mPw8QT6Dd1mOv9faf948/7jLklD90sUImo5fl+ijP+ojDqMgB/wCC4RP+GI7P9wPlk/u/94YG/Zj8j00of4vuS6X+bt8+gx7v+AVp/uMn7m9R8F+8Gf5/psMpfD/O5felliP5fR/Jyr9RhzV/DHVbffwGVRnM5MdmUQ/7x/vH+8f797f6+APJJAA/wk1/vH+x/wBwL/c3qOlj1H73/I4J4f1nT/pPhseWBhlPSTnuz9cYS+6EM5hDH0+6NzxCeStmSBPX9Hg+R6Lq+g6iO7B1nT5umyigfszQlCVX6jdYPoQD/g+f+C6393Plep+J66EhlwyMsGWqxdZ0pJ9nqcEj+ISjxOI+7HkEoSojlsDz/T/Cb9B+cj4Aokk8Av8AuFX7q5/gfh83XfIYjh+Q+YljynDONZOm6PECOmxZB5jlnulmyw/s7owNTgQP9xn/AOEW6X/rs9J/6J6nXHjyZsmPDgxzzZ8044sOHFEzy5cs+I48cBzKUvyANDk0OR+4P7tS/df93un6PqBH9f1M5db8htogdTnA/lbvUYMcYYbFgmJI4NnTrOi6T5Hpc3Rdd02Hq+k6iBx5+m6jHHLhywPmM4SBif6eoNEcgPy3+4B/uz1eY5fi/kfkvhoyJJ6aOzrunjfNYh1BGaEB6ROeXjh/5B46T/oK+t/8BfT/APy0/wDIPHSf9BX1n/gLwf8Ayy/8g8dJ/wBBX1n/AIDMH/yy/wDIPHSf9BX1n/gL6f8A+WX/AJB46T1/evrP/AX0/wD8s/74L+73+4Jfun8Nmx9V1x6n5/qMUxPHH5D249HGUTcZfo8URDKYnke/LLD/AINj1AEQIxAjGIAAAoADwABwAPQcDj/Xfnf3c+H/AHk6UdL8v0cOpjA7sOTnH1HTz/x8GeP34z+YvZLjdGVcZv8AcEPjJZCen+d+Qw4ieMeTpunzzA/L3bxePz2f79/d3/cMv3b/AHfzQ6v28vynX4juxdT8hsyRwyH9vB00Yxw45j0ySjPJE8wnH1f3x/dbH+93xmL43J1uToBj6zF1fvY8Ec5PtQyQ2bZTgKPuXd2Kf+BHdN/0EnVf+A3B/wDLLH/cDuksb/3j6yUfUR6DBCRH9Je9MD/Dtl/vh/dn9wf3e/deQz9H08+p6/aY/wB4dbIZupiD+IYftjj6cS5B9mEZEEiU5C71+K+I+T+d6/p/i/h+h6n5H5Dq57MHS9LjOTLM+prxGER908k6x44gznKMAS/Df8axfvF1WCGb5v5/4z4fLMbj0fT4c3yebH/uXJlxzwdOJj+1HFkzRBsCR8j/AJBaPp++2P8A8AmT/wCXj/vH+w/eP/jXD+4P3f8Amvnf9u6HVf3R8b1XyH6YfEZMRz/psZn7XuHrJiG+q3GMq/I6fu3+6/z373fIx+K/d747P8j1hG+YxADF02GwJdR1WeZji6fBG/uyZZRF1GO6ZED8b/xq78vlwQn8t+9XxvRdRIfd03SdF1PyEccvy/USydLGdfnHHV+CfL+9f/Gu/wC+X7v9Nl674nN0n70dLhhLJlx/Hxy9P8lCERZlHoM245xGIMpDps2bLQ4xpBjIxkDGUSYyjIUYyHkEHkEHgg6fFfC/I/M5Tj6HBujD+LnmfbwYr8b8h4s+kRcz6RPri/3DjMYg5vlcMJ+scfT5MgH9NxnDd/xLH/eX/Atv+mxH/vzl/wDJ3/gW3/TYj/35y/8Ak7/wLb/psR/785f/ACd/4Ft/02I/9+cv/k7L/cN5V9ny8N3+5uknt/1xmP8Avn/A/Mfux8r8KPdz4o5uluv1XTkzxgnwMo4niJ9N4AJ/CT66/wC4G/uL0v7qful0fzGbBH/bg/eXpodd1fUyj/N6f4zN9/RfH4iR/Lx5Me3qeqAIOXLOEZ3HDADT/cRv+Wf/AL6f9e18p/6TyceOeWcMWOJnkyzjjxxj+KU5kRjED1JJHD/uHH7kdH+4X7r9F8Vhx4/7y6jFh6v53rBH+b1fyGSAlLHKdbj03RbvY6bDeyO2WUj3MkpFBoggkEcgjij+YP5+oP8AsR6/8bIfuJ0vQZ+i/fj4vp44IfKdQeh+cxYYCGI/I7JZen+Q2xG2E+sxwyR6r0nnxjLxPNMnoulydd1fTdHi/idTmhij/uXeQDP/AAQH3H+geg6Dp/jOkw9D0kRHDhiATxuy5P8AZmaZ9ZzPm/EagKA75whkhPHkhHJjyRMMmOYuE4SFGMh6iv8AW9Oaf3l+JHw3y2fpcd/p5bc/Sk+fZyciP/auW7Hfk7b9dfh8mHN8L8Hm6cg9Pk+E+Ing2/h9o/H9Pt2/0/3l/mGn+4m5sfT/AO4d/vpkyERj/tvdfiF8XPPEYccf8MsmSER/hf3OhHL+9v7sY5gSjP8AeD4gSifBH6/BYP8Ahc/8bL/1kn/6Edf+NgYRl/uF3yxIsw+S+FlH/csv1sYWP+CZyj/gJf3QlGP7x/Fmf+7uQD/f84cgh+fmRA/3jj6H+4jSh/ePxsI/jh0JM/8ABLNPZ/vnX/cAv9xM6L5T4bpf3I+X6nHg+Z+JBw/Cyz5NkflPjSTOHSYpy4PW9CTOOPBe7P0232rlimGiPPCASaAJP5P/ABsL/uJXQdZ04/cT4HqsfViPUY+o/ePrcEhLpxk6eW7p/icOSJMc0sWX+f1s4EwjlhiwAkwy7f3K/wCEx/dX/r4fh/8A0vwOf+Pl/wCsk/8A0I6/7j//AMst+Z/66Hwn/pwxOHNk6fNiz4ZbcuHJDLjl/izhISif9cPwnzXTfOdHDqMMgM8YgdV01/zMGWvuO3zLFI3LHkqq+2X3X39Z1nTfH9Pk6vrMow4MQ5kfMj6Qxx85MkvEYRBs+aFvzXymT5j5LqevyR2DLKsOO79rBD7cWP8AwiPMvzkSdYylCUZwlKE4SE4TiTGUJxNxnEjkSieQRyCAX4X/AHHb/cS/hOnh0kPm4fJYMcRDEPmelw/IZMcYihEdRkiOpn/2szTP+Hiv3h/3Gn/cRf3l6afRdZ87Lo+jyjbm6X4jDi+Nhmj+WXLgiOolE+DD3tkgakD6P7lf8Jj+6v8A18Pw/wD6X4HP/Hy/9ZJ/+hHX/cf/APllvzP/AF0PhP8A04YtOm6rqOjyjP0mfL0+aPjJimYS/wAFjzE+oPBcX7+fvFjgIHL0ubaK35elgZn/AAmOzn+tf5vz/wBv/wDeH/pQ/wC/Qf8AGT/t/wD7w/n0H/fpH/jJ/wBv/wDeH8+g/wC/SP8Axk/7f/7w/n0H/fpH/jJP7/fvCRW/oo36x6SG4f1BJI/2D1/yfyHyeT3Ov6rL1Mh+ETNQx/8AWPHHbjh/wTEXQu/Tv/cr/hMf3V/6+H4f/wBL8Dn/AI+X/rJP/wBCOv8AuP8A/wAst+Z/66Hwn/pwxP7vfH4Plfl+k6HqDkjhznJuOIiM/sxTmKJBHmP5H/eX/AvvhP8Ad75D/vtj/wDkT/wL74T/AHf+QB/P3cXH/jr/AHk/LfuB1XTQnn+LznroQiZS6bJEQ6oRjyTjMTszcc7PtnX4Ynw1RIPBBog8EEehH5/U/cr/AITH91f+vh+H/wDS/A5/4+X/AKyT/wDQjr/uP/8Ayy35n/rofCf+nDE/uX/wknxv+/2f/wBJ8uv+8D+j+/3xWPpOvwfI4IiGP5ET9+IH2jqsW3dP05zRkJGq+8Sl6/U/drrMfx37xfA9fmIGHo/mfjepzEmgMWHrMOTIf80IlySE5ynA7oZCckJDkShP7oyB9QYkEH8tf+NiOuw9N/uG3UdNOYGX5L5j4vp+ngTzOXT5J9bk2/7+48HP9D/gv90c0cH7x/FzmdsZZpY7Jr7suKeOH+vKQH+f/B2f7iPlh+k+L6e/5kuoz5q9fbjjjAk/0JPH519X/cFf9xd+O+c+L6H90/3j67D0X7wfHYodH8f1XV5BjwfNdHiG3p8Y6iZEIfJYMe3CceUx/VwjHJjkcnuRTCcfMZD8uD/sPzfkuv6D4fos3yXy3WdP8b0HTxM8vV9ZlGDFED0BnzkmfEceLdOR4jEmgf8AcY/9xL/4GD83hxfHe7i/dz4YZcXxcco2Zesy5SP1PyfUY/GOfUbIQwYjcsPTQhGVZJZAIylCUZwkYzhISjIeYyibiR/gPP8Amf3c/ebpfmsGPFlyQw/JwjWfBMiPvmIA9/p/8cTq54wd8JE8GNFo/kf9Z67ruk+MwS6nrs0enxR/xv4k+OI4cf48k5eAACPzocj5/wCZyfN/I5OrlE48MR7XS4Sb9rBAmt3/AAcmbnkP+Ma9PrfGf7iR+/3w3Tx6X4397vnel6aAqGEddlyQgPSOMZTMY4j0jDaB/rPzP7yfP/vFkjm+d+Z+S+WyQ/B+u6vNnjjPPOOE5mEODX2xF/7DUExIlEkSBBBBIII8EEeC4/3k+fxQGPH8v1wgBQBymVD8rlZ/2P8Av3qOp6nq8nu9V1GfqMn+PmyzySr8huJof0/4D9D/2gAIAQIRAT8B7+l/dX94utxjN03w/Wzxn8Mzi9sSHoY+6Ybgf6PX/EfKfGH/AHqHQdV0l8CWbFKMCfyGSjAn/BLsOXGPM4/66JCXIN/4PrfuR+6WDoekwfL/ACGGGbr+pgM3TY80ROPRYZc45CMhtPU5I1PfIXigRGNS3FJJ8kn/ADuXHj6jFPB1GOGfBkBjkw5ojJjmD5BjKx/n8/kQX99v3Yh8D1eLqejEv7t64y9qJO49LnjzPpzI8yjX34ZS+4wuJ5gbcuYzNCxEf7H/AA/7y/2OkZGJuJIP+8ejin7kb9fB/of94/3j8vp9HCOXrOkxT/Bk6rBjn/v7PLGJ/wBgf948GQETtjxGNRiPyjEUB/rDX/cQMUMn7sdXKQ+7B1HSZYH8icvtn/XjOQP+EePXKaxTI/xezpPxTH9AfqRlKEozialCQkD6gxNgj/AQ/BfL4vnPi+m+Qxn7pQjj6qA5ODqoRAyY5eo3Eb4E8SgQR66/v3/wivyX+/3Sf+lONzfwZ/7+9nS/jl/v6P8Aa/V+F+f+S+A6g5+gy7ROhnwZBv6fqID+zlx/mP7E41OB/DIevT/7ih0MsY/WfF9Vjy+v6bLiy4v83u+3Mf0BuvzL/wADP+F/4gfkv/Ib/wCTP7yfv38Z8z8N1fx3T9J1uPLnOAxnm9j2x7WaOQ3sySlyI0P6n/O5/wCDP/B/vns6X8cv9/R/tfoAEkRAJlIgRiBZJJoAAWSSTXD0P7hfvJ12OOb9Lj6THLmP63NHBOQ/P2vuyD/gqIP9H/gWn7wf7vfGf9/U/wD5A/8AAs/3g/3e+M/7+p//ACB/4Fn+8H+73xn/AH9T/wDlf/eP9r/wLP8AeD/d74z/AL+p/wDyB/4Fp+8H+73xv/f1L/5A/K/uf8/8RjOfqej9zp48y6jpJx6jHAfnPZc4D/c04RA/2jn/AIU/8HZ0v45f7+/750lKMBcjX+8f7x/vHn9Tiv1/1ixyRn+E3/tf959n+4f/ALt4em6PH871eOOTrOqs9CJi/wBJ04O334g2PfzkS2S848VbaMzX+8f7x/vH+/O3/eD+R/ofzB9R4f8AcQP3bw/GZ8XyvQYxj6TrJmHUYID7On6ujK4DxHFniDIR8QnGQiADEDP/AAZ/4P8AfPZ0v8SX+/n++WUtoMj6MpGZ3S/zf0H5f7x/wBiTE2OD/vH+w/3j/BjnviD/AK/+HT/eP94/3j/fnxohH4z4yOL+GPjui2V4o9PjP0P3+ED+63W76+3qOjlj/wB//erj/gky/wAxLm/hT/wf757Ol/HL/f3/AHy9T/D/AOCh2dL+Gf8Av9/vjX9wfn8PyPxeP4vNMD5D42GyMDL78/RizjyYx/bOG/byRBO2O2dUeO7z45PoPU/4H/cSPn8WeWL4LpMgn+ny+/8AITgQYjOBWPprFxkcIMpZKP2zIh+KEgCLFfmGcDjltP8Am/rr08NsLI5l/tPT/eP94HVfw/8Agsa+eB5cMNkAPXyf8J1wZ83S5sfUdNlyYM+KW7HlxTMMkJfnGUaI/wB8/wC16L/cTPmOnxiHWdL0nyBj4ynd0+WX9ZnHcJH+uwf5+b/4Gp1P/Pk6f/v7yf8AyF/4Gn1H/Pk6f/v7yf8AyJ/4Gp1H/Pk6f/v7yf8AyF/4Gp1P/Pk6f/v7yf8AyJ/4Gn1H/Pl6f/v8y/8AyL/eT8p/uIfznyGOWHpvZ+MxTG2X6Tcc8geJD9RkkZxBHH8sQl/ub1SSbJ5JNknkk/4dJQjMVIWnpI/40v8AeP8AeP8AePSGCEOas/mef9hpkgMgrxzb+kH+Of8AWH+839IP8c/6w/3mwxQh4HP5nsuvL7sf6n/Yf7X/AHj/AHz7o/L/AGP/ANqjJZArz/X/AH5oeOS+7H+p/wBh/vNGSJ/p/vH+8f7x50/ej98v3f8A3P6aHUfN9aMM81/pujwx97req2+fZ6ePJiP7WSZhiHiUxYep/wCNiOmGQjo/3X6rJhHifU/IYcM5D0Pt48GYQ/we5J/5CIl/0Ch/8C0P/lJ/5CIl/wBAof8AwKw/+U3/AJCIl/0Ch/8AArD/AOU3/kImX/QJn/wLQ/8AlNx/8bER3D3f3Uy+3f3e38rjM6/oJdJEH/BY/wAIf3R/3Ez92P3xkOm6LPk6P5PbuPxnyEY4epmI/il05EpYupjHyfanKcRzKER41ySs16DWH4hpOVn+np/vH+8f7zf94/3j/eP9+4zfH5f7x/vH+8X818p0/wAH8T8h8v1Zrp/jukzdXkHrP2oGUcY8/dlnthH/AHNIf5vnfnPkP3k+W6z5r5TLLL1fWTMqMrh02AE+x0fTxP8ADwYIVERFbpbskrnKRPdiy5unzYuo6bLk6fqcGSObp+oxSMMuDNA7seXHMVKMoy54PPg3Hg/7hv8AvXL98P3V6P5LqNv94YJT6D5MRFA9b0tCWUR/sx6jHLH1AA+0HIYx4FDSXk/4TrD8Qf8AeR7Mf4v8z/uLePNk/wBw7/eUYbsdLgnMDycUOs6eeX/WhEk/0H+t9D/jXnHlHwP7w5ZX7OT5qAw343Q6LCM23/ATES/rrkj/AGh/n/3j/eP95aY4kcn/ADf4E+D/AID2Y/xf5nrek6f5Do+q6Hqsfu9N1nT5um6jGf7WHPA45j+h2yNHyD/sP3z/AHN+S/cr5bL8f1uOcuhnOZ+L+R2n2Ou6W/s+/wDDDqsMSIdRgJ3bhvjcJAnu+I+I+S+f+QwfFfEdLk6zrupkIwxwH244392bPP8ADhwYh92TLMgADi5EA/uZ+7OD90P3d6D4PDP3Z9PCWTq+oqv1PW5z7nU5/ShKZ2Yx6YowHpzqYRPp/vH+v/vhEIj00Pg/4D2Y/wAX+bT5H4z4/wCX6XJ0PynRdP1/SZfx9P1WKOXGfyIEvwyFmpxqUfQj16n/AHA39wOoyyyQ6X5PpBI37XS/J544o/0hHL7pA/ICXH+wH/Ahf3D/AD+c/wDAof8A5E/8CF/cP/puf+BSX/yJ/wCBC/uH+fzn/gUl/wDIn/gQv7h/n85/4FJf/ImH+4D/ALhQkCYfM5QP7GT5XJsP9Dsxxl/rSD8F+7PwP7tYD0/wfxfTfHwlXuyxRvPmr1z9RMyzZf6CeSQHO0c/QPg/4D2Y/wAX+Z/3EH5/rf3X/dP5T5v46OCfV9GOm9qPUxlPD/N6rDhlujCUJH7Zmql/vI/8D6/fX/iF+C/79eq/+Wkf7j1++gIJ6T4KQ/xf0vVC/wCl/quH91v9x5+N+Q6jF0f7z9DH4bJmmIR+S6fJLL8ZvlQgOpE/5/SRJ494nJhBP3zxiyxlGcRKEhKMgJRlEiUZRIsSjIcEEcgjj6h8H/B2Y/xf5n/cZP8Alnfz/wDg6H/04dNrV/7x/vj1f9wI/ejN8p8L1v7v9ZkllzfAywno5TJlP+7epE/awmRux0uXHPHG7rFLHEcR/YMX4v8AM/7iv0eXrf8AcP8A95MWEGU8fSY+p2gWTDpepw9Rk4/pjxykf6BBvX/jXjpcp+W/ebrgD+nx9B0PRk+hz5M+TMB/hjDH/rS/1/qTgbsc/wC+P94/3j+jRPj/AHj/AHj/ADMY7R/Vy4sefFkw5oDJizY54suOXMZ48kTCcJD1jKJIP+H/AF/9xD/3Dj5P9zOuz9R0/T5ur/dvNllPouvxRlkHRwyHcOi+Q2AnFPDezF1EojDmxxj9wyboxEokWJAj87H+8f7x6vwvwvyv7x9dj+N+E6LL1/VZDRGMfycI/wB3eqz/AMLp8MPMpZJXQqAMqB/cP9z+n/cr4DB8VCcc/WZJHqvk+rEaHU9bkA37P7QwYYiOHAJc+3ASIEpS+tQ/If6wfHjWUIZIyx5IRnCYMZwnESjIEURKMuCD6g+j1H+4c/uJ1eY9Rn/dX4aWWRMjKPSQxAk/nDHtgf8AiX/M/H/F/G/EYP0vxfQdH8f0459ro+nx4IE+hkIRjulz5lZ+h//aAAgBAQAGPwL75huN5skyDQoRJziD8eSJAPtZ/R24Wt2RqURSpMgHxiNJB/g91SSLTGhAyUtaglCUjiVKVQAfEswy+IdvzBxVy1rmSD8VwoWj/enztr3C0v4xxVbTIlx/tpSckf5QH89cbTYTqh222WYbhUSilV/OjSUKWnX3WNXQlANJVArXVOAegp8tGieBa4Z4yFRzQqMcqFDgUrTRQP8Atly2t8QdzsQkrWBj73bq6UXGI0EgV0TgdOWKxoujVJIoIQhKlrWo0CUpGSlE+QAFS5YopZIdihkKbOzSooTchBIF5eAEc1cvtxRK+jgjKRjzCtT00+Tjv9tuZbK8iNUzQHEn+RKn2JolcFxShSFJ0IabtSUxX9sv3bcYEeyi4Smolj8+RcIpJHX2eqM1MZP85eyo9uK0uJEf2kQrUn9YYUdSrqJ9SrUn8T3sUpPTPDeQyD1TyDIPwXGk/Y/EEsRKV+48qo443Esduv8A3iRQ+5vFrU8qba4p1J8uZBc4JV/gyqH84pChVK0lKh6pUKEfaHc7dKDjGsrtl+U1otRMMqfXToXT2JEqSe+1f8nf/WLK9/8A+PeD/rMt/ubj/wA8U/8AWZD/ADogv4jnHU29zEcLm3UeJjXr0q/PGoGNf5k6Bn3PdLOWL8vvMcsEtP5XKEyD8xj8n/jm1/4dz/8AQ7styubmwkht+fmiFU5kPMhXGMQuFKeKhWp4Pf8A/j3g/wCsy3+5uP8AzxT/ANZkP8wVKISlIKlKUaBIGpJJ0AHmS1RC5lvVpND7jCZowR5c4lESvmhSh8X/AItuv/HNH/0nf+Lbr/xzR/8ASd/4tuv/ABzR/wDSd/4tuv8AxzR/9J3/AItuv/HNH/0naYLe85NyrRFveINtIs+kZV9GtXolKyo+Q7b/AP8AHvB/1mW/3Nx/54p/6zIe3vO7X0NnGa8sSEmWYjyhhRlLKf7CDTzo8Qjd1I/04WHR8wDKJKf5Ffg1L2m/iuVIFZYDlFdRD1kt5AmUJrpniUV0y+5LsVrIUWVnRN9gae93WijCs+cFvoCjguaudQhP8xLtF/KZbqzjEttPIayT2lQgokPFctsopGftLiUkq6kKU9//AOPeD/rMt/ubj/zxT/1mQu+3a4GUdnAZBGDRU0poiCBPxllUhFfKtfJzblucxnupifM8q3j/ACW1sg/u4Ih0pA1X+8XVaie0N7Yzrtby3VnDcRGi0K9D5LjV7MkS6okRVKgXa7nimO46re+hT7MV5DQShPny5NJY68I5EipIPfclS/vDuN8ZK8cveZP5jb8PzRXqZP8Adfuyia/5QT9tH4gCRU+6xK+xF1ApX4JBP3N0VTpTstFH4qvI6fjQ/g4UjhLvFmlfxSmK5kA/w0pP2fc8RJNeUNwtCj0EirX6SnzARX7O8u5xIP6P3STm5gdNveqH0sMh/LziObCToolaB1J/mJd+uoyjnxG325KxRSoVEGa6odQmXFMcNfaRmv2Vprd2FyMoLy3mtpR/sOZBQSP5QrVPoaF3G1X6CmWA1ikp9Hd2pP0N3AeCkSJ9umsUuUa6KHap4f7f6zwA4k6BzX9/EYtw3gxSmFYpJbWUYPu0Ug4plkzVPKjijJCFUUgh2n/Patf+se77oiijXNNKtMUMMaSuSWVZoiONIqVLUdAB/A4LO4x9/uVqvdwx1CbiYD6EK8xbxpRDUaFSVEaHvJbXMMdxBKkokilSFxrT6KSa/wCgdQyuyvLvbwdeT03USfgjmYygfAyK+b/2uzf8cEf/AEnf+12b/jgj/wCk7/2uzf8AHBH/ANJ3/tdm/wCOCP8A6Tv/AGuz/wDHBH/0naZrpU26SoNUpusU2wI4H3ZAxXQ+Uqlp/kug0A0AGgA9Pl2Ftu1om4SiphlFY7m2UeKoJ0dcZOmQ9hf50kMm336/hiJ0jltbedYHpzQYa/MxuO7KJd0vojlFcbhgpECxwkgtkJEKJB5SKC5E8UqSe0W2rvV2AivIrznIgTcE8uOWPl4KXGBXm1yr5cNX/wAZLcf9AyH/AOiX1eJLop8wnboEn8TOqn+CWLi0gXc3+JT7/fKE1wgHRQgASIrcK8+UgLUNFLI+5PuW7XkG32NsnKa5uF4Rp8gP2lrWemONAVJIqiUJUSA1xbNsG4bpGk0F1dTx7bGv+VHCUTz4Hy5qYVU4pD/4w8f9Bkf/AEE9o2j+ivu43TcbSw94/Swk5PvMqY+by/dE54VrjkK+vY7lvt/FY21cI8qqmuZqVEFrboyluJlfsRpNB1KKUgqCk7Z4XvrqAK6Z72+gslrT68iOO6KK+ipK+ocdputvdeG55VBEc14uO424qOgC76LH3ep0CriGOLXqkDCkkKSoBSVJNUqSdQpJGhBGoI7Bd7NiV/uoUDOeWnHlxjyHmtVEDzU/odqkUnyVLcpQoj+ylC6f4Rf+0j/n8/6gv/aR/wA/n/UF/wC0j/n8/wCoL/2kf8/n/UF9W0mn8m7Ff1xUfKhWqG6pX3W4ARIqnHlKBKJaeeByHEp+5dbdFMr9CeHrmSxs4Ar6Oe/h+jvdwkHBcnNyt7cn91Cg4UMqyrt4T/6aLav+sqNySSKCI40rkkWeCUIBUpR+ASKu73aZavcoly22y2pPRZ7cldEYp4Ce6x59zJ7S1KEdeXGgB/1cQfmPN3fg3cJlTfo+39+2SSVWS0WIWmO52/JXUpFqtcctqNSiFa4h0RIdxdy/u7aFcqvjiNE/NZokfNy3t0rOaY1+EaPyRRj8scY0SB8VHqJ++laFKRIhQXGtBopC06pUk8QQXDcyU94QTb3VOHOjp108uakpkpwFSPLvusU4Inj3Xc0TBXtc0X0+eXxr38JRxiqv0/t6/kiGXnSK+SY41KPwD8TLQaKGxbsUn0/iU2ri/wB1o/4KO+zgGmdlvCFfFPuK10/wkg/Y9yCOIjiJ/sJnjK/1fzO4qPsKvUhH9pMCc/6u914v2yBcuzbornbqIk5fovcTRMk8qRqLO+olfP8AZhueYmXFMkZ7VJoPU8H/AE13i3ktk8hcHh+1nQUTLFwMbjdZI1dUSFxVt7JKwFrQuaegSqIq8T/88Ddv+sKZx/7rR/wUd9k/49N4/wDZfK5YJU5RTRrikT6okTiofg1W8wJiJJtbmnRcReWvASpGksfEHUVQQfvotbSMzTyGiUDyHmtZ4IjTxUtWgHxoHBYoOZjBVNJ/ps6+qVfyroj+QE91IWlK0LSULQoBSVpUKKSpJqFJI0IIoRxark7TLtkqyVSfoe7lsYlKJqT7sM7ZHyjiQPg0Xdts/vt1GQqK43eeTcDEocFIhl/i4UOIXycknVJHbxP/AM8Ddv8ArCmcf+60f8FHfZP+PTeP/ZfL2VBdQx3EKuMcqQpPz14K9FChDKhHdQ1/JFdLwHyzzIfG/wD+Or/lx8b/AP46v+XHxv8A/jq/5cfG/wD+Or/lx8L5fwVdGh/BIP63y7G2jt0n2ikVWv8A3ZIqq1/aaDyH8x4n/wCeBu3/AFhTOP8A3Wj/AIKO+yf8em8f+y+V3V9biMzQ8rASpKkdcqUGoBSeB9X+6sP9wSf9Jn+6sD/wjJ/0maYdzgFmVEAXMaiu2qeHNCvpIR/L60D8xAdRqDqCOBB4EHzB/nPE/wDzwN2/6wpnH/utH/BR32T/AI9N4/8AZfK9w/5N/wDrIj+5PYSqyXYFBhJ1PustcUfKFaSE+iSlPl/Ob7ZRCst3s+5W8Q9ZJbSVCB9qiA0AiikpCVA8QpPSoH4gine0uEJJj2/a90uZ1DglEsKbSOv9qWcAfa9zSgVUmJEtB6RSoWr8Egn7m5z/AN7TbQQn+2uRSx+CU/zt74k2K0kuthvpV3d7BaxmSXZrqU5XBVCiqzt00mU0cqEkWy1KilCY+Wt9Kkn5EFxWG3W09/fTqwhtLOMzzrUf5KfZT+0tZTGkaqUA5pdw5a9/3flybgYyFx2cEVfd9thk/PyclSXMqemW4Wcfo442pCwFIWClaTwUlQopJ+BBo1rQhcu2rUTBcJBVygeEFxT2Fo4JWemRNDXKof8AotNtZwquJVeSfZQP2pV+zGgealH5CrRapUFyqJlupR/fJ1ccfPlxiiI6/lFTqT/PG53Dwrss86jVUvuaIlrPqswcvMnzKq182Ytl2jb9rQrRfuVrFCtY9JJEp5i/8pR7kEAg6FJFQR6EHQj4F8xe1WRUdaiLEf4KaB8q2ght4/2IY0xg/PHj9v8AMf/EADMQAQADAAICAgICAwEBAAACCwERACExQVFhcYGRobHB8NEQ4fEgMEBQYHCAkKCwwNDg/9oACAEBAAE/If8A8SgS4Gq8B5Xo9tck8o7Imk7EJ48Dwd9qMgHtB8f9VhXXKKBjlALkBcJXOJnbg/h9EKbp8aE+H/8A5v8An+f5/wCKmtugoxHts+QGCPgA/VXDtVTXkR5h4CTRKztC+CGo8lKCQk3AXlcC5HgFa1f80xobpeTCABAAdCD8Ef5+x0aho74KamnRJ1EIZA9mbHprkP8A+XLXl2P8YVZWEK11Z7VJ/vr/AI+g6SRs+fsf4IFCLIIVTifvKEAeCPx/0G7fOFjeffw/X/5k77P4Yd6RKSsjzXA4g4042hP/AOiNC7U3onweIOUAHcJFAbk2hnQCo7UPjx/y96FtpvYzIOGNgf8A8wXaL3EA3hwxKADmtn9P5Q//AIQR2bNmzf5F/j/Ph0DZPLjZzktCTj/8i3aNw9CJSnD5MWZMM3YXxjh5PfofARxmmhMaahBJQb/2avemK1ABkLzeyy8Zx4Dj/P8APj/8KDzpM/EcJwiOiIiSIw3X5+zZ/IamViX/AOG2aedJUDQPBzBi2Iofbd5AqRHiAQVYU984xH0DyGBG6sN4uu2YDvKGAT/n+f5/RyWWD7wLPcgB+v8A8gbnAwmH6IEHp9o5hFPN3wg9H5/6N5C6BD33LDsXisekLd0nkx/J8H/4EJI2Z6P8SvH5f8/z/P8AP/HQvVaUZnAKhgf/AMXGuBquAdrPRzRjNDclWeREmBJrgwu06+iAzuR5Cp8PLCMR4YCQDxWgKQOX30QCqQAUAKg63PjpYJRTwUK/6GL8OIwVrYM+XChaSPQDQnuUS2Rv+/8AP8ypaserow7oxICDCIP9kJ9yXp5H9QA//C4cKXX+E/4+6XTJjtLSkJJXyuiAAAAAAgAEACAIA/Fn/P8AA/z9qNheBxDiMCwANFl3sm95wZx8hOaeWqUodmcZpWT/AJ/n+f2KPIo5oIcA0zKSf4J/n/PiFe7ATuCfk/B5CDwEhxxaG8OaZs/5/kf8ji2sFYfMMTjVQgKkW9hw+bxS5QvBohlwbv6KriMyOKeGlYve8Do4zeKlEzaAROFo5C/AZByQI34NcsLr0dOzEAjyk4kBGRTf+ab89JUlP4hZEKBAV9DJTvjT1qetT1v+EISP3X/UNPylKS9jAMsg8xDYiU/4E/my3im2BLC18S//AAdK2YQQXLNhVPgs/PQFs/XI5M3/AApBEQREUAHEQgJiOI6XdTA5xKV8FOoxwPDHM9Hn8kdKvlNSsR3Hg4qUlq//ABpPVI+A+GkRPDijgQ0IKMgYIQhCZ/xKcYUQnpTH8/554yE+OXNkp2cT/qjJHBOnPYTpXrXeFxysR4Sc8XP/AGB7QI/NnmNKdFlsgs5fpSEvoZ9f/kS2DZ0io/Jfiz/n+F+KVFbFiHrLFHNFREERHhNH4TmgQg7IH25eNtYDvwlSJP8A+L4CoBzZNF3HoMmHph5CyL/0JmzaYZBU0H/4o5thz3OPwgO0heQFIk4XhuLEE7P/AFCAIygapK5CBFl1F4o7koX+0pehvospZ7UgCBf8/wDno4j/APGioB+QDNr0NFOnpJZEcWEk6BB6n78f/g//AP8A80oBmL9DlPoVJF2ah8So3Q/Qd/8A5iKgH3kLB73TeIGw/wDNICKbxHP2fx/+lS29XgSlrGpXZAgEACAgSBgNExHP/wBERUE7n7O/9f5/9XsldWCqzMgl6YZ//LeMMmp9+/vFZMRqBYB0SQ7J/wBG1rjqF69ixDhrpIFJXxvy70fn/rADIHUVfKXyT7J//In/ALMJH+f53/kK1+AXL0aRi4B0g/GfMOfcUNecIJk8XMtR9Ra3itiF8VGG9LQAp3LQjtZHhslUIh10vE8gZUjwj7An52rConvkPu+XhpARONVAUNDBH4Nu/wDxf5/n+f8Av/4Z/wA/pOE9WJw79s7lbIKWSzS1b0SsIOEHlczP/AEzop7mW9AirllIDPtV/H+rx9tVEcJBP3Js/wD4/wD/2gAMAwEAAhEDEQAAEAAAK0AawAAAAAB6IQdgAAAABUAtQEAAAAAGQGABgAAAAAPnEAMAAACJNsBgBgYQB6AADegIUCgEAAAEYBOAOAiAAIwhXwGBOl7qkEiGjZAjjPTQSkpMRYAtxEGAAA+IgGuAAAAAAJHY6wLyAAAeBEBWBQvtskAAAKwKthwAAAABWBUByAAAAAGwEkBwAAIIIcbzkGBBJJJJARJbIIBP/8QAMxEBAQEAAwABAgUFAQEAAQEJAQARITEQQVFhIHHwkYGhsdHB4fEwQFBgcICQoLDA0OD/2gAIAQMRAT8Q/D+v36/3/v4lAoAVLgAaquYB27nD1jOUcLmNW5ucRzovEZQf6pUMT5EM75b9/r18f67+f8+KqrybRUO5QA5eLFERTuAdAjpsznOGLPmEVehCMcGucDzP1+3/ANP1/wB/j8z8knrfBrXMVTW7wOwJd4dL2uHLzyunt5Utc4aCi5iapdSOR51PAVKsigUaNJIWxbQADgcDXnI8P/1Q7JRHAg3gAIDAI+ODAad/Xt3u4r42M7gJvGBGa0W/oFPsg5yl/wD0+1H4f7ca7V4GHfHPELQ9UpLNKide13fQ3A7QSAYcEvBMO1vixrsRomb2x39EAADoAPyOPcdFS9Lg47y86caHH/0LCtHIivnAM89fTYHljoGNbw0B8avv/Tj/AL/fPzv1+8N/bfybf3+/5bz+Et/VP/rgn+OfGFjEDBOoAn+DT0TLMVC+VX2f7UVPh8y/omt+DU/CFP6p/wDDf9XM46jc8QSAtpD0HNyjGmiTjdn65/T9fH4OXLl+mv2/8K8acNlR1NI0foGaV7Nvt9P8b/Nw/Jfwf9U8+PiAZylDJE05ARduTRaSPnNOfLdPQYWeW0x5PLAaLwq+v5zj8/8AXf63jLYFO3wOnMo7Q4AAAYAAMwAAMN+P2n6/Xf8Af9/woc3eEQQAiAzVqAIQXpJJaUY2nTid2/j9T1+38c5v4P6pZlo2Boub3iGKBk1MboKRMCJiXMz6dnP2/wC/3X3NYOXm87Y+mUsl7UHXLjPNJOF1qGlI/WX6/X7/AH/psTNZHXgX3gw4cHwP/wAD1aIOHSD5AGvc4QgbzeY8MWdckfgbxkaOZuPJ+Xx+4nn6/X6/vDEXhFpkr8OgOeDXBiwQmOdYrk/qIwG/X67/AF9OvP1+v/Py3mf2kxMccDt2jogOjH6/Xf6+nV+v13+u87ukQePhWhCzsxCTHPtv3/JPhOkcx/PfxHgUgNIAF1ADBOfl5zgjXBjwjOOEifi+JbfMakOAfbYnkCJnVL6kIOOOd4vDyFhow5VYGaoQAAIcg+W+z0TFcms2k5/lX0+n/wC/v351/P6/W/7J/k0AeU3v4Q1ja4HfAjDm2jV/2uqVtIMa6CkBrETvbIaT0rDKgDBhGfO3z9T5zj/b9sv/ADX+z/3983PF36A/vr9flG+pNNARz43iOdOh38XL30VxcwobxvBkOwB4VmMAwAAwBk+f2/XO71+X0zqWJQKgMTeL08EHxWv9VJ8h5SMB8s11257gRTuOBSSIFefG7Q+jGZodisIDqW/+J/0/t+2w2AJ20NEZdO0Jzwwc4QbXBgU6UjSn64/R/b9vcrwO6Fx8GVKdkNXkSvZqsYAkKeL5Juih8/WT+N+3Ub6d9qyYeAVrXmL9fX/H645wbE7PPOMY1oxFYFXK2A5ewcEH0NPlm2MIOXZC7WffUhyhwGIAiYg8eKMyYa+g7k5T8BDHp4FU/kPY+uT98Wfof4H9v2/AAABsih1mXzigD1oI5RZahcBLmIDTTptwCcZvZ9uf7Z+vry+Ln+vu/T7b1O2CieV4uyUV+C/r9d/r6dX6r8wHokt5a1ihjX43SKOEkcdHE9bRHmEQCEFBuAdA4DkTjDJgx2YEAsXwHRMjUuDG8kjjkvPuuDjFRQAFGBmnquxxX+M+1+NqeIyezVjgTU6ej1ut51J08N7P1+uv19e7jjTTTgcc03P43n4cZzWgh7NdYBDOlHCPoosMLBvu9cw5Sc8scsmdVwLeBo48m7vF9Hnx+hPk+mqN2EF3s6XGlw0C39kuTkAT5eSf67euu++v19T/AODEBwzNEN8r0Z44OXNPPt9f1+v+RE7z5QkQXHCrKjAo7ExPsjyJ8j118XYgHBrh3udca7z18ct0ikh6sBdJX/4oix6bYe/5kAphpiJw5zZBoc+COngMWcEX6/X6/ufiehRacTVk5BATkCk4CM4B9QIxBAUc36/Xf6+nXm/c1ZgYADwEIgxslz5BJAO/ilAI+prEXfYuPVcHdfz/APe3rX5V1e/tfoX+j9fXv8Vj1pcAys5r+EGJLsRvgVwe9OY/UuWHDlmnTw/X1+D7/X7X6C/2/v8Av6ECMgn4d9gMnHb++wooJkJ7xITBUdgN/wDqEWPQnwTTwrLh3dDrnmfqH/X9fXu2HEBDVr8u/wCSj+sHMAmCIFBwAb0MUCUiFJijkHSOP2Nz/wCn6F/Q/DY9cvyix3n4efBREcR1fKHRPuP+bjExknizJn3pLf8A6FMC0SpeM0d7Pjeo/iIPqDHJQ5Wm36/XX6+u75l+tQhIx3RvgB1HMCFgcACcjqb47xwx4+MBT6Zn1+iHf0+O/SdLc9OijPzIZzmf/R5/ceh6ejUz4dzT43qIQntsYusvMOcznOdEJ9VgB3s0656tX1T/AMcRwxHxPIBvVF/IuAMlkRw+FfKtGIiBHRHWxcS6XQFztoDI/NnJ9FD+ed/6/eMnym8fl2oBqp17QGpHUAOOFQnyjgf/AF/R9vy+n6+rZxwX+uDwUALgAI3GNeCApu6OMccCf+eMZ08tqQQQRHR63W26m+/cWP04dcB1HT3pmCw0JwGDrOAZ/O/r7/j/AP/aAAgBAhEBPxD8P6/THLh29Hy/YPl+xzAQcdLNdHAKOx+F4hQAuQ0zB2ThHheMv1+v3/j+fHjvg7/3/bPyl8EnOcv7L/f9ooEX5W/vmZ18n7f/AF/q/H779u/z+/FyQWfVvNEYVTx8EG5q43eDvDl4DD43iODkSvAyadAD2ANzA1uJHgW9jkFZejXgxf238+8+3+psq3AP8383OcsHVJ4HKvk5H7KwR+T+/UIjpwnwfH5JiZvDnYn/ANBgaKfUl+hyL9jnjYxUBE4CDGuAAc9Y8ei1V/i7mcaY18/QLH7kLP54/wB36/XX6+vfqz4Cw+44P54vx8HW/wD0zdB3ARznkD9+nN2KW8VQzTBUOafJ+v38/U/0fr4b+mf3P/wfSrj1wGiUHddWLrSvAI75fnb2rvBuOLb8w44z+fw6Ps70ZjBWubrhrasAwN6Z+j+z8Xv6/X6/ufiR0hIeBAAAKqHyWZtjIU0BB52Z3M+lh+j5f3/e/SX+/wCuhhOy/V1w/qf0I/VvvDi+X6dv6frix95CO+yU7+RtFm/0/X6z/Zfp/ufg/p/6/v4YCejfl+hzy/YP2nMN4fIw/nxp/IfxzFKOOw3H5mA5+38uZ7+v1+v7WYvdCmCtxYpGjZv5/Ou7y87zz9D5/oP4m5vAiIHkERF4FwgoeRyWK/A4B2A1x41+j+yOj8j3+lf2/wCIucA3PlfofnwT9NV4P8Q4M75+r9Myfr9d/wB/3hToOicb9R+qNE5Pn7wjeHkB8Dv99357+OTx/X/f8c7187MYukM5AOAdVXPnjDH8f6/X6/uT8w7Rx4/rc5ng+RHQ7/4X0/XH/np5fjP6/T9faaP8t5+E36d7n167N/BvDnMZ9OTufsbz+3Pn6/X6/vdznHnQRQpkFoPp9+s+n+uPr+IFYH4HlfgHavxnbx2wCPQLUzAF4LlqAi6Q/c/XP8kwB+7OBm6PJ+30zjE8/QfL9g7X7dyMofcewf7G8YZuu9TWD6/0T+v7/v6CsFTgHa/Gfr87Xe+/bTrenDDjj+vpwRHNdJIzhBwKOikyjAdFsR2e0avbX7Dz9fj69f18Pdn8v3+P6cp/n+3V+y/z/Tt+vk3L9C/6/r69zuO3emOfTgw9c9vp2sQ3DUVcmUK3jjAsQQpaCDqqdVXVVX76X6/XX9v2shB8fCdcj8fJw8/OYWl4B6OHD6b2/s/1jYEJxzjfp0Ou+79frr+37QlrgBA7Ou/n+OPtf+nf6/r65t07/GOn8rO/+Hc/rPXufrneH8GGcu8Xf6/9/v8AnvqBqwPn9b/b98kOv2Mf3P8AT98J97R7E1nRz78jfn6fbdy7/d/px9v19e5A0A+V/W/3+w5kg4A/Xj+lF+XX892Aap+p/hx/jN+nGT7/AK/7/F+v18ft/sjohzBdrBvhQ48E1oE3fcrQnK0H5+L9Wf6fr65vt27yZ/L/AKL8Pxsou15ByLTrk2YW2UCUvRmOqcWcfx+v1/77oh/I6X5+nWp09ffff6v/AExx39X+6/2/XUjo/QPofXkzXV+fyOJ+v11+vr3fr9fo/wBzFpd6ad73zuOflv5czvmDB0RwaGmIHB2JAuI1ADFxvBUV+v11/b9vxbDRxsxwIGQDHSHWINvpj4gOEHqDD/Rv6+v5vfv9X/p/X/k5jvHJv5H5P9vyyf8AH3+PyP7cdc57/efr9fl9LZQZvB5nBnwtsqYkHefh5/8AgXm6hj3Rxuic6Pob7m9guY73oQzrPo9/XT0oli8Dp+pft8Y45rzo36p9Ge/4P7e/3kIZJAGyaOmH6CJgxpG12hTnQgs4dv8AX8/hH+po5+f77+Hr9fx/ecwEbgjP5vk9QYZQDcmKM0pBrXPwGlo1+TT+2P0/O6D+Tr/f/H78efrH0nv+D+3v954fCMQwEErziudfzHmpxjVco/eFBwdEf8X/AB/+987t9/3Vq1o0C4COvCb09B4x1uXr91kDCfNX6g0X6/XX6+vf4/1j6T3/AAf29/vJbPCf+3cHKPPINf8Ao3+v9v2jgRNQid4N39Q36bhEPx+H5XkMsSTZDPzktQWCWhHnf/p/UP7T/o/oHv8AefgcoCPIiImiPCK0Cccnz8yfFm0xqtBCqj/z/wCb0n1E/X0/X2szT6d/r9f0fP1+v1/Zgqc4OX8t0ISbqvLh0DjR3IAJ8g/Xvk6/Xz8e8m0Rzdb1zSdg4Gj/APR+v1/5+8REh5wBVxrm8n8affPBwBq7nG8nxx19eXhzt3Hbl46+2/Q+M71fkj3c3r53AX8aYfrOzxekCj46FpQDJuBj9zjOe/2cLHY632oOHEQ4kRQwIJGmIoYKhhzf/Zd13e95Pv8Az3ADAB9jP6H07/n736/X59+MY+B+Ck7gCKRHcmEtIA1duXl3HLmNjiAATm8PrR1HyGF+v13+vp1+P//aAAgBAQABPxD/APDP+f5/n5qJQChACVEAGqQGsQ1VBxFmFobNAThKdIyjQaYUNOcuov8An+HP/CtEo05GvF4lSLLJdAYgM0EFxMuRU7g0yWA6oMPIYCEv+f5/n8f/AJkT88Z7+4z67lRo/wBf0u5Ye0auugln9MQF9u7OytKSsikvhQ7ikwqFa3ZT5lPVjtfcZprManoxgWvYp8tGgEEo1mOO0BCPAAPER+KbyF8SPOGIsyFpb6iZh3H/APMXJ6zBulUgxiaIsjZ42KqFFkmWXJCT2v8A0LoOVERLgECcD7qR23NSIMxROL4oEcAI4gQR4ICDrj/uxgJq4/CE5Eg0Br5/3/n+eP8A8smXy2DmU4znkka+SHZuS4k5Ah9ePfH+f2/8/wA3/D/PP/6FUPKsjVWQ/FU8/vsSNaiwMZjmSGl/Xfr+X/G+5vfxsbNhlKMiX/5tVDzRWA1VxDFGVATUpYsLGRwjqOv/AMP79+/fMJ28f4TkTgz6oE45GxIURIWCmuPmXNz5wN557jcaoY/+vy/++uf/AMJ7+t/z/wA/quR+ESfMECkezRBlJSSQbbzKNmTQAPdgERaSDAWRf8/z/P5/5qIgn5WXoI/ae0JKAru0Eiaj2IpQBAAYAAEAAYABBscGAV/n+c/z+f8A8IoEAAZlKVjBg5gCictMhoHGHLQ2FT1p+2Pnf9d//gYen/53+e+qaJ40kpI+0JR7jzrdOVlE+pvT/P8AJX+fxZ4k6AyhnaEKqrnna4uERPSgOqPf8O+94k63+Cv3+fxn3BGfibKxYkqRGbwAY4AMf/kAopBGFpjM6BiaTSUEgpc0+VeQq9lDIP8An+/zD5Dj/qJgtOVdgFsFA5FKO2qAR4wE4OZql/z/ADj+Px/z/P8AOf4/NRobEImxEBQqaQf8lEd5/H+PiefupnL0wJHQkFrab/7/AMPr/wA6/wDw/wCf5/5VAoDVADlIABSoBsgTVbIRlfDRAopPFKhto40CCByA1PleOykDGqx3b/P8j+qDNhJLpAkM0+loLDcRF84IjJV5fzb53/8AP/f+vogALrAseVArIuDpd4EPhkbHT/P85/zxxRnxCAieZnZN/wAeCxIzH3zAXCEIBuWjM0sBMwBHiFo7sf087Pvmf1M3/wBnH56381Ht8cP4j2Xzy79H34+X6Nv+4JIyY4b8ORhwpqepMi2OQFTCGgXFtzjUAFkAARSX17Fnk86fpwya4iW7XOniHf5TlarnLH2MTmBE0xRXiXgJl3FXuorLP13P46nzPNB1OMNHq02si5f+r0Z0T/MiYoYCMhO4P6OIh+1GHAITBt1YaXk+x9b/ACER6X6io8P0/wA7v6/4bkg/ly8tFzSNbEyxgWsnmwj/AMG/f+jHcxRhThg2BlP40hQPYBvcMT2T8P5irsbrY0lCsyrcwSibdA9GABChBrO2vLIGokDRSeOllqCwFHID/iOpWdewGQw9zAprvUTWNBSbqOFIj/8ABDDD634f3ainpEk7SY6BPabUiMEa4yZ3xh/+hFBEoPGsBLD/APOnaalM6AFRQpbd7zzz3v8Av5++uP8AvJK5AZNdg3EQ+K3SlOkrGO9aP+HAM5oOWTZnkBBvDCONNDNOONOx7IdAM2ATGkRrwsuCrbSUCcCP/wAWAf8AP8/+fiw8lqsTYx25JbRbQmJwcGAMPi/5/nH8fMVogoMYoe5kZk5pEVLycULYMJjJKBhP+f5/nmtFxTIAw7/hn0ApUt9RtAIgShnpLFIAICM8dff8+9n/AKd0scCbpA8AGBJW1SfPTdDFucHSNrMj6l/3yx/m/wD5GNQ4niFZib8gRwp9/cx85ON43iOKKIqEZnmERM4fz8xQWNuqSQ5IJVRBM0qAPDIAiIjHezUYElAQ1Vgfn8zUv/4k1g8FqAeWx9vaIARRBnLyRsUxhFdHUAee2QjXLUfn/P1/+I1dlWwINAnnkNicWcIPjAZMRYUD/p7zFtE5/wCMUKHRZK0iSROUILKl8voiQzFZhqdf/DAAAwBABgEAZH/4/re0TyQd4kDkFHIvNRaYg4UxyeQx6kV9D/j/AB/f/wCCSSQBxlHLvjzGR75LJr82fJKPK7HkP/5r+3tQm0cABmKcopIJf8F/t/njilRiLmvGgnzBPoaDwwbRGaZt0IzcBMVnDKsR9AUiP/5n+P8AP/B/+Bvz/wDKL55/zf8A8EaCIgggYRHFDiIoiImMcUzfQpqgSrwGR/8AmcMTD0WMRAMHM4lytemBkNALSCDD/wA/z/P8/hqKTkoWMSFyiwk0ChoYnuJwxcizERQzpwwj5EkTnr3+d/7zLe0eocWPQCxp/wDjSH8f5/nuz/vx/n9fdh+M4j/P8myf5z+ObI/5/k/55o0YhEfY8Pk6GqZwTQSXYaGeyHeG+NdcuA6CKOwo4Rgqx1Q2ABmSBjrDv4j8rkkdaS7zKVFBKnkRMw5BJT1eJUUyhUg6183nRMge4I35aZsoMPCeHFCRBK/qQNX1O7KmAor/AD/OOfjfUWSyfPxL/H+fuqHNk/Of1x/nnqyHKfmP8/zzZff55+fP6/lqX+/8+OvEsc2UE8/5/wDfosv+/wD2Znz/AKwsv+f5DwcnRxFl9/n/AD8UQz3o5IiQolBiiEYZMskkjnsxJIGNyBQQ0KN1gdVhonCj/P8AIsv+R+Pj1xQuFavgg6KKFLjM1hbVe2Zbz2ZexyhJgyJxKcZYf4osvH5D+5/zxEWX/P8Az/H/AIKcd/5/jZ/1/n+fwX/P84/zzM2Xy/n/AD/Pi//Z;" parent="1" vertex="1">
                    <mxGeometry x="540" y="44" width="34" height="32.96" as="geometry"/>
                </mxCell>
                <mxCell id="27" value="" style="shape=image;imageAspect=0;aspect=fixed;verticalLabelPosition=bottom;verticalAlign=top;image=data:image/png,iVBORw0KGgoAAAANSUhEUgAAAcQAAAHECAYAAACnX1ofAAAABmJLR0QA/wD/AP+gvaeTAAAgAElEQVR4nO3deYBcVZn38d+5t6p6SzoLYQkDzCjqCCgQmvQCGacHQnezdHeCNKO44iiMMyiLEBjZmohoWERUZgyKaBjnfbVR0h2klwRsReiujgHGd9hRR1nCErL3Uts97x9JMEB6v1W3lu/nP4qqcx44XfXcc89zz5EAAAAAAAAAAAAAAAAAAAAAAAAAAAAAAAAAAAAAAAAAAAAAAAAAAAAAAAAAAAAAAAAAAAAAAAAAAAAAAAAAAAAAAAAAAAAAAAAAAAAAAAAAAAAAAAAAAAAAAAAAAAAAAAAAAAAAAAAAAAAAAAAAAAAAAAAAAAAAAAAAAAAAAAAAAAAAAAAAAAAAAAAAAAAAAAAAAAAAAAAAAAAAAAAAAAAAAAAAAAAAAAAAAAAAAAAAAAAAAAAAAAAAAAAAAAAAAAAAAAAAAAAAAAAAAAAAAAAAAAAAAAAAAAAAAAAAAAAAAAAAAAAAAAAAAAAAAAAAAAAAAAAAAAAAAAAAAAAAAAAAAAAAAAAAAAAAAAAAAAAAAAAAAAAAAAAAAAAAAAAAAAAAAAAAAAAAAAB8ZoIOAADSobK++Rwj3SQpImu+Gyr2bny4o2NH0HEhe5EQAeSdqpObDlTIvCApvNfLr8qaaw6bFb6zra0tFVRsyF5O0AEAgO/C7nv11mQoSQfK2JV/3h7/7+q6JacGERayGwkRQN5xjNwx/vVR1tj7q+ub1y08ZcmxGQsKWY+ECKAgWelkx7EbquqbV1XUnzk/6HgQPBIigELmSPpESKnnK+ubv35iU9PMoANCcEiIACCVGunyZMw8XVW35LyWlpaxbrkiT5EQAeAvDt5dePO7qobm04IOBplFQgSAdzpSVr+oqm9eW9XQdHTQwSAzSIgAMLrFsuaxqvrmVQtPO+2goINBepEQAWBsjqRPOKnw89UNS1prWlpKgg4I6UFCBICJKbPWXuttjz9bVbfkPLW28vuZZxhQAHknmUrZNDZ/iIxdWdX/WLSyvvnv0tgPMoyECABTYXW8kXqrG5quCjoU+IOECABT51hrvlJV39gcdCCYPhIiAEyb86WgI8D0kRABYPoWBB0Apo+ECCDvhFw302e9zshwf0gDEiIAACIhAgAgiYQIAIAkEiIAAJJIiAAASCIhAgAgiYQIAIAkEiIAAJJIiAAASCIhAgAgiYQIAIAkEiIAAJJIiAAASCIhAgAgiYQIAIAkEiIAAJJIiAAASCIhAgAgiYQIAIAkEiIAAJJIiAAASCIhAgAgiYQIAIAkEiKAPGStNUHHgNxDQgQAQCREAAAkkRABAJBEQgQAQBIJEQAASSREAAAkkRABAJBEQgQAQBIJEQAASSREAAAkkRABAJBEQgQAQBIJEQAASSREAAAkkRABAJBEQgQAQBIJEQAASSREAAAkkRABAJBEQgQAQBIJEQAASSREAAAkkRABAJCUZwmxorGxtKWlxQ06DgBja2lpcSsaG0uDjgNTl49jaIIOYLoqFjceFnLdSyT7EUkHSkoYmcc9o5Wp1w9YtWHDHYmgY8T4Ft3+oU+GI0VXGtccaKW4F089Hkk4n177hbUvBx0b/FFbWxsaKp79KcfqfCu7QFJI0iuS+YnrOrc+cv/P/+RXX9UNS2qttb/0q72JiHa35/zv6XgyOYZByNkBrK1tmTFSnLjUenaZjEpGeduz1tirBro62jIaHCbspB/WfcgNOW1FpcUHvP2vMTGS0OvPb1ptUsmPbWjdMBRMhPBDdX3zYmv1DRl9cJS3xGX13VjcXPt47+qt0+6PhOi7TI9hEHJuACsqzguH9nvtXBm7XLtmhOOz6jfWXtq/tuPh9EaHiar7Xt27VBL6r0hpuFpm9D/DLS9t0c5NOxOu637n0dTApWqVl8EwMU1VdUsqZOxNkv5hgh/ZbKQb5zjxb3Z2dsam2i8J0T9BjWEQcmoAq+ubF1vpm5KOmsLHrZG5J5Vyr1i/7md/8Ds2TEzFysbS2aWJlUUlRec4rhl3DdtLWW186mWl4ikZ1+wMOaHLN1wT/fdMxIqpqzr1zENkk1fLms9qarUKf7LSNQPd7XdLspP9MAlx+oIewyDkxAAubGhc6FjnZkkf8qG5nJ/W56rFqxq+Ei6OXO6GnfBkPje0ZVCb/vjGm//shN1XXet8dMO10Yz+4GF8E1zKmIwBK1060N3+0GQ+REKcumwZwyBk9QDuKphxrpf0cfkfa85O63PNST+sPzdSErk1FHFnTbWN1557TSM7Rv7ygpFCIeepolD4zL4v9z3tR5yYur2WMr4i6QC/2zey9xnp4r7ujucn8n4S4uRl2xgGISsHcNHpp8+JJ0OXG+lCScXp7MtIf/akq3NpWp8rTvpB3Qmh4vDdkZLwu6fbVjKW0ManXpH13jZExlg35HRZr+ycx1t7mfEHoLquudEac4tk35vmrhIy9i7Xc69+pOfe18aMiYQ4Kdk4hkHIqgHcc4VijXe9kdk/w93nzLQ+25208tTDQ2XmP8Olkeox6mUmbetLW7X91e37/HeOMSkn4tz5aHL95ym8yQyflzImY4uRVhTHtt3W29s7sq83kBAnJpvHMAhZM4DVdc2NntGtRjo8yDhyYVqfrWpvr50RLi9ZFS6NLHEcP1PhLtazevnJjUrFk6O+x7jOYChkvrzhqvXf8rt/7JLmpYzJeEHWXB894djvq7X1LRdBJMSx5cIYBiHwAayua66yxt4smUVBx7KXrJ7WZx0rZ/GPGm6OlEUucEKTK5iZrKGtQ9r0h03jvs8JuZvl2s88ftVv29MZTyHJ5FLGpBj91jHOpX2d9/5qz0skxH3LpTEMJoyAVJ1yxnuNE/qqlT0ryDjGkZXT+myyeFX958JF4VvcSGhmpvp8/fnXNbx9ePw37i68cdzI2b+98pH/SX9k+SngpYzJWJeyzsW/7bn3f0iIb5WLYxhE5xkfwJr6lrkpxZdJushIRZnuf4qyalqfDervrm9QyP1euDhySKb7HrXAZlTGumHn18Ve6My+1r7NaQ0uv5jKhqazZM3Xgl7KmISkjP2B8cyD1uj/ZrLjLE2IuTiGCRl7lxK6JvpAx6uZ7DhjA3hUS0tkxvbY5yXTKml2pvr1VZZM64N0yl2nvNeEw6vCpeFq4/8y4YRtfXmrtr+y7wKb0RjjpEzY/J/3pv7mn9pa2+JpCi0vVNY3/52RbpZUGXQsU5SSlNGN/rMtIVad2lgt69wsqxODjmWKdhpjbjEzwyv62tomcEto+jIxgKayoeksY80KSe/KQH+ZEOi0Pgi1/1U7L+yVrIqUhhuMcQL/4lvPauOTG5Uco8BmNI5jhpyIe9WjVw7cmobQclrlaUvf56Ts9Vm+lJGVsiUh5uEYvihrvnLYrPCdbW1tqXR2lNb/WZUNS2uM9W6RVJPOfgKSlLE/CGJan0m1rbWh0N8U3xieEfmC6zqhoOPZ20QLbEbjhNzNJuyc/9iXo/f4GFZOqjx56X4KeZcpt5YyskrQCbEAxvAJGS2LdrXfn64O0jKAxzc0/W3IOl+xsi3paD/LZHxanymLf3jqpeGS0HI34vqxfVNavP771zS8bXr1Tk7I/YMTcpY+emX0dz6FlTP2Wsq4TtKUdxJCcAmxAMdwnYz9UrSrw/fvq68DWNHYOC8Uc66W0b9o1zlZhcPqJcksz8S0Pt0W/7D+dLfI/W4QBTOTlYgl9cqTG2XtNDcZMlIoHOo3TtGZG658aKM/0WW1fFzKCFQACbGQx9CT9OOk3Ms3dP/ct++rLwNY0dhYGo47X7DSlyWV+9FmDkv7tD5dTv7Rae9zw/pppCRyTNCxTMa2l7dp2yvbfGmrEApvKusaTzLGvUmyxwUdSz7JZEJkDN80aKXvhIvsVx/u6Ngx3camN4CtrU5l/6MfNtbcJOmvpxtMnknbtN5vbxbMlEQaTBp2mEk361ltfGqjkrHJF9iMxrgmFnJCKzZcE73Wt0YDVlPX+H5r3OUFspSRcZlIiIzhqF6WNddN9w7dlAdw99mEN0k6dqptFIC0TOv9UttaGwodXnx7UUnks8Z1pnLeWdYY2jqsTX943fd2d+14Y/758asG2nxvPEMKeikjg9KZEBnDCXvKGnvtQFfHlL6vkx7A6sVLj5Brr+MKZVJ8ndb74eRV9cvCRZHrQhE3e7ZvmqbXnn9dIxPZwWYKnJDzYtg1/7j+qvWPpKWDNGApI7PSkRAZwylb53nmsvVrVz8+mQ9NeABPPKXp4KSra2XNPynDD7zmEV+m9dNRd1ddo1Mc+n6oOOL7eWdBS8aS2uhHgc0YQpFQf1GZe1bfJX0vpa2T6WIpIxC+JkTG0A+ekfmZ4zqXPXL/z/80kQ+MO4BH19WVlZqSC6x0paSM7VeZ56Y1rZ+Kf/jhP1REIiV3h0siR2SqzyBs27hN2zb6U2AzKiMvFAq1l3ul5/S2ZtcetyxlBMevhMgY+m7ISt82TvyGaGfnmNtbjT6Ara1OZd9jHzfS1yXN9ztCSJritH4yTlhVd0CZ4/4wXBppcILcay1DprODzWQZx8TdkHv7o1cPXJL2zsaxaykjdaOVOSPoWArVdBMiY5h2myR7fUls++29vb37/IHY5wDuvkK5RdLRaQ0P0hSm9RNRe1dtsRsq/l5xSeScXC+YmayR7cN67Xn/C2xG44TMFrcocsGGK/r+K2Od7sZSRvaYakJkDDPuGWvs1fu6Q/eWAVxY33iUY50bZXRa5mLDbhOe1o/n5FX1yyLFkevccP4UzEzW679/XcPbMrhxkJEc13nRuOZjj121/tfp7o6ljOwz2YTIGAbMmAeNTV3W373m0TdfkqTa2tri4aJZN0v6vKSCmk1koVes0acHutq7J/vBk39Ud1a4qOj7oSK3ELZvGlMyltTGpzZO4ogonxjJdd1HrC07/fHW3q3p6KK6bsmp1tgfSDooHe1jaiaTEGvqmxo8mbvEGAbNMzL/Xhzbellvb++Io9ZWZzgy62eS/lUkw2xwkLG6v7Ju6aTWEU65+9Rvl8wsaSMZ7hIqCqn8oACq1K2USqZOsNr5cuUNi97nd/OVDc1LrbG/ED+kOau6oanJk7lfjGE2cKzsBSNF5W1qbXWcqkce/TS3SLOOY4x3V01Ly4Q21T7proaWSFnRBcr/mplJKT+wXOGiYJ5htimvJJEY8fWZxdralhnG6k7lx5E+BamisbHUWvMDMYZZxcqcUfnIo59wZMxngw4G+zQvtSOxZCJvDBe5N5IL38kYo9mHzA2s/1TS2++4GxZ+zq/2hiKxD0ua41d7yLxwzCyVtF/QceCdjNFnHUlHBh2IT+KS+mTsH4IOxC+OtR+YyPvcSOjQdMeSq0pmFat0doCnVyXNWX415Zi8+a5K0rMyeli7vrcFw8o5KugYfPRHSVFJ6X/GKSPMBxzl/vlZnqS75LiHR7vbT4h2dRxurJokPRV0YNNlJzg2XsqjVHsMcw6ZI+MENIV2/Tuo1cqU+dVWgJ60smdEu9v/NtrVvijk2XcZa++UlNNHpk2Ysfmw/drTkrck2t3+7mh3e3Uy5R0u6W7t+i3OZbNzuojGSA84jj0+2t3+mWjnz1/c83p/T/uaaM2CD1jpU5JeCTDEjNj5RlZsj5q13EgwBTbGdRSKRJ7MeMfZaZNkLyqJbTtmoLvjF3tefHhtx8v9PR2fNSnng0YmZzdQLxBvGOmKneWRY6Lda9r3vLhh3Zo/R7vbP2nkLZT0ywDjm7Zc3TX9KWvstdGxtj5rbfUGpFVH19X9LN+f9UmOJBUbjKmozLfJSN4pP7BcQ5sHlRjJ0N0dIxWVRGScnL9qnq4JPV/bv+7epySdvbBhycnG2puMtCCDMWIsVsPW6FupVORrG9a1jbov4u7n+U7K5Y1dcm2G+LKsOf+w8sgHJ7oP6O96egb7u9tXOOHUETL2DuXprZnBNwYz/8xdDjHGaPahmSuwCYVDcsK59vXylWdk2lzXPXKgu/2KiW42sb5r9QMDNQuOt8aeLel/0xwjxmaNTJtxzJED3e1XjJUM99bf3b4uWrNgQS7eocuVb+yglVaEiuz7oz2r75jKSRF99933UrSr43w5OtrI3peOIIPkpTwNbx0KOoysVjKzWKWzS9PfkZEiJeH095O91lk5x/V3rz57StsRtrZ6A10dbcmId5SRrpCU5t3a8Xa7l6Mq+rtXn93ftXryFyatrd5Ad/uqYTv8nt1jmBPrOtl+y9T3A3ajne1PSmrcNa23N0vmGD/azQZD24cVmVGsUIQam9HMPmSORraPyPPSdyczUhKRgiriCdaT1jqXD/Tc68sF54Y1a4Ykrag8een3jetdw+G4GfG0NfaaMZejJuF3PT2DklaceErT3bmwX2s2zxDXydgF0e72T6bjtPld0/rjjtt9a8a3TbUDZaXBN3YGHUVWC0XctBbYOI5RKKDNAAJj9dLupYyj/UqGext44N43oj3tF6aM/QCFN2mzp+hpwstRk/Hw2o6Xo10d5+8qnsreO3TZ+M19QkbLol3t96e9p12FN20VjY2/yJdTqRMjCcUGR1RUVrD7eo9r5oEzNfjGoBKxhL8NGylcFvG3zew2aKXvhIvtVx/uaN8RTXNnv+3qeEbS2ZUNS2tkvZuNdEKauywEvh0qMBG7i6cas/XMx2yaIb64+yrzmIwkw71sWLNmqL+7fUUy4h0uq28pxx80HXxjiAKbMRhjNOdQ/zd8CYVDckNZezfIT56kuz038Z6B7vYrHu7oyOj60EDXvX0D3e2Ldt/d+WMm+84jnqS7k3LfM5miJ7/sLrypyLY7dNmQEHcaY65zyiPvm2rBjF82rFmzKdrTfqFjvZx+JspLeRraOhh0GFmtuNznApvCKaRZ57g6Ntrd/sn1998fZAWhHejqaNtZHnm/ZC+SlJaTRfJUWpejJuwvxVNH7i68yWhS3pcgb5kmZOxdSuia/gfaXw0wjnfo61nztKSzK+saT5Jxbs7FZ6KGt4+oaEaxQpFsvCueHeYcOtu3Aptwcd4X0myQ7GXR7o6sevD6iba2uKTbaupb7k4pvkzSRUb+7Q6UZ560ssv23hghG+wpnqpobLwzFHOuDrJ4KpAZojVaY13nA9GujvOjD3RkVTLc20DPmgcHahYcn4vP0+wqsGGWOBY3HFL5/OkvGTuuo3Bx3l54bDTWfjza3b4w25Lh3vq62zYPdLdfYbxUVhdtBOQVK30qWrPgg9mWDPe25w6dHB0jo54gYgjiW/yTga72jwTQ79Ts3vGmsq7xIWOc/5GUgQfZ/JEYSWhkZ0zFM7hgHk35AeUa3DyoxPAUC2yMFC7N20KaIWPMCf3d7TnzgHx07X3PSWqsqm++R9KHg44nCwwZY2qiXav/V93t4787C+x+NK6hqr7555ImdOKPXzI/QzRalfE+fTDQs+aPkv1V0HFM1tBmdrAZk5HmHjJ3yqfT7SqkyYal+DSw6p3SQ9lZwFrnh0HHkBVydwytMfauTHea8W+ykcnZ7VSMnJx7yM9LeRrakrP/yzOiaGaRSmdP/iAJY4zCeVxIY4zJ2XvujmNz7ruaDrk8hp6X+THM00tb7G14+7BS8Zx+kiTt5hw6W8ad3NchXBIO7lgpAL7L20oAvNWON3Zq9vzZQYeRtdyQq9kHzdKWl7ZM6P2O61DBi4JVfevfHSdrV8joSCvdkCwdvmPD+Rt83uki85ghFojkSFIjO2JBh5HVZh4wc8LPEkZKI1NedwRyVdW3ag+p+cailbJ2QNJiWR1srL4THiz5n5pbFrXI5vS3wiMhFpChzYNp3dQ65xlpzqHjF9iEIiE5+VpIA+xD7e21M6pvWdRqkslnrXSe3rlB9/us0U+rb130SNXNixYFEeN0GelF7vkUEM/zNLR5WDPmTb6ApFAUzShS2ewyDW7Zdy2CMcrrQhpgbxUrK8KhoZJzR2LJ5TI6cAIfqTaOfl1966J7nIT3b48se+T3aQ/SJ1bmXi5zC0xsx4iSMQpsxjL7kDmjFtiESyIU0qAg1Hyj5j3hwZInjNVKaULJcA8jqxYv5DxRc8uJF6UrPp/90VF4OQmxwFhZ7dw0KCueTRyNG3Y066BZ73jdcZ3CO9oJBcuTWyfpvdNoosgac55f8aSLlbo8N3FCX3fbZr7dBSgZTyi2I6bimRwRNZryA2ZqaPOg4sPxN1+L5O+ONMA7GRkfrpuz+XbK89bYL+99/iMzxAI1tHlIXopZ4qiMNOewOW9+nUNFFNIAeWLQGHPdvg5DZoZYoDxv1xFRM/abEXQoWauorEhlc8s0tHmwUI52AvKZNTL3pKz90vru1S/s6w0kxAIW2x5TUWkRVZNjmH3wnF27/JhsvvMDYBwbHKsv9vWsfmSsN3EPqIB51tPmFzZTYDMGN+xo5oHTPyIKQCA2yprzozULKvt62sdMhhIzxIKWGE4oGUtqcNOgZszj1uloSspLNLIjxn6wQO5IyOo/5MavjnZ2blfP6gl9iIRYoLyUp+TuH/itL21V6exSikbGMHO/Gdq6cWvQYQAY3zqTcr7Yv+7epyb7QRJigYoPxbXnTqmX8rT15a2ae9jcYIPKYqHikIpnFrEfLAqG49mknebauZFSPoUzEc/K6OJoV/v9U22AKUEBSsaS8pJv3dN0cNOgYoP82I+ldG6ZHIevDApDKOz83Ei/mHIDRi/LmKt8DGk0W410xc7yyAenkwwlEmLBsVaKD7/zlBYrqy0vbBH1NaNzHEclc0uCDgPIiIe++NDrfZf85gzPOCdLenQSHx2U0Qo3bt/fd/FDE1u8mxpP0t1K2vf3d7eveKKtLT7uJ8bBLdMCkxiO78qK+xAfimvnpp2asT8FNqMpnlms2I4Y+8GiYAxc/OsHZXV8zTcWnWWNVkh61yhv9Yz047gxl2+4+KGN0+3XGDPW5flDjmMv7OvseGy6/eyNhFhAvKQ37g/51o1bVTqnRE7o7ae7QNq1m9WMeWXa9tJ2HldB4TCyffpN21GtR7XPKJ/zeSNdJ2nvDX/XWcd8qf+ih37nV5dO2HvWS7gpvfWoqReM1WX9Pe0/VRruZ3HLtIDsvS/naLykp60vbctANLkrFAmraGZR0GEAGfdE6xPx6CW/uS0cMu+Vtd+WtM5Ys7j/kt+cEvUxGUpS3333vSRrz5P0mpV93RhzXTLivb+/p/0nStPiDjPEArGvQprR7Ny8U2XzylRUxo/+aErnlio+FGM/WBSkh7740OuSvpjufqI9HT+Q9IN097MHM8QCYL19F9KM/gFpywubKbAZg+M4Kp1TGnQYAHxEQiwAYxXSjCY+lNCOTTvSFFF+KJpZnNfnI1rZeUHHMFXWy93Y/eRZ74CgY8glJMQ85yX/siPNZG19eau8RCafq80tRkYz9pshk9VHvk3Lh2pOXfr3QQcxWRWNjaUyuiToOLKBMWbRwrqmDwUdR64gIea5iRTSjMamrLa+zHZlYwkVhfK5wMb1PK+nqr7p5kWnnz4n6GAmoqq+sTkUdx6TVBN0LFnCNcb0VNc3rTi2dsnsoIPJdiTEPJaYRCHNaHZuHtTIzhGfIspPZXNL5bh5O0uMSOZLiWTo99X1zZfX1tYWBx3QvlTVLamoqm/+peSslvS+oOPJJkYqsjLLiopsVo9hNiAh5ilrrZKTKaQZtSFpy5/ZwWYsxnFUOqcs6DDSbY6Vvj5SNOuZyvrmT0rZcZ+46tQzD6lqaFopYwck1QYdT5aba6WvDxfNeraqbsl5LS0tPGz8NiTEPJUYSshOspBm1LZGKLAZT9HMIoWL8v+gZSsdZqQfVdcviQa5NlVb2zKjumFJq7zUc7LmPPFbNhmHytiVf94e/+/K+qbTgw4mm/BHlIe8pKdkwt+txSiwGZuRUdm8vJ8lvsnKLnSM+VV1fdOamvqm92Sq34qK88JVdUvOGy6K/95ae60kbv9N3VFG5r6q+ua1C09ZcmzQwWQDEmK+sW892sm3ZlNWW16iwGYsoUhIxeWF9ftsZc7wZJ6samhaeULd0rSW+FfXNy8OzXv1MRm7UhKPE/hnsePYDdX1S35aWdc42j6lBYGEmGeSsaS81PQKaUYzuGVQMc4DHFPZ7DKZwjsiKixrzksZ7/fVDUta/S7aWNjQuLCqvvlXVlor6Sg/28abHCvbYozzdFVd822FWpFacN/cfGa9Xet96etA2vzi5kk/5F9IjGtUNrdgd7CZYa29dk/Rhlpbp/X7UrG48bCq+uZVjnWikniWLjMiMvpioVakkhDzSHw47lshzWgSwwltf21nWvvIdcUzixUqgAKbMRwqY1dW9T8WrW5YMunKz0Wnnz6nsr756yHXeUbSJ5QlFa0F5i0VqdO9uMkVBfEfWQi8pKeUz4U0o9n+ylalKLAZ08x5M/gZtzreWvvLqvrmtcfXLf3AeG/fUzATT7rPGOlyUTCTDQ6VsSur+x4riIpUEmKeSEchzWi8lNXWFymwGYsbcVU8syToMLLFYtd4j1U1NK2sOrnpwH29obquudGd9+pTMnalkdk/0wFibFb6QCFUpJIQ80AylkhbIc1oKLAZX9mcUrmRcMEuKL5NSNacp5B5tqqh6d+qTj21XJKqG5bUVtU191mjDiMdHnSQGNdix7Ebquqb71pY13xo0MH4jYSYB+LDmblV+nYU2IzNOEalc4qP9K9Fu9m/tgJTLmtukBfZVFXfvMNa+0sZVQcdlA/emMibjDGb0h1IBjiSPu0YPZ9vFakkxDxgjKa+g/c0UGAzPiO94Fdb1jqP+tVWFghLmhF0EP4xExobzzO/TXckGbSnIvX5yrrmi49qaYkEHdB0kRDzgOM60aD63v7KVqXiFNjsm1U8YW/0q7XS+Nb7rPR7v9qDf6w135rI+/56VqhTMs+lO54M288YfWPG9vjTlQ1LPqocLicjIeaBcNx8ynFNGh9AHJ2Xstry0pYgus56saH4r391btd6v9rr7e1Nuo5tkbTdrzbhB/vNgT6vl9YAAA4vSURBVJ5775vIO9va2lKO4/2jpHzcHPhdxtr/qqpvXl9Z13hS0MFMRcYTovVy9w/Byg4GHcO+DFw/8EfXhOod1wwH0f/QliGN7OCIqL3FhmL9ieeGT/a73b7Ojscc2QoZPex325i0rdbon6PdHRdP5kN9nR2PyUtVSOpLU1xBqzDGeaCqvun+mtOaPxh0MJOR6YQ4WBIPP5PhPn1jjB4LOobRbLg2+suERg4IRdwOGZPxSpctL2xJ+6YAuSCVSO0Y2RY7f+3HOmt6W3vTUu3U193xfLSrfZGxapL0fDr6wJgSMvYO1zp/O9DVvnIqDUTX3vdctLv9RCPzjzL2D34HmB3MqV5Kj1fVN/+g6tQzDwk6monIbEI0+o/e3racrcIIucm7Jb0SdByjeaL1iZ2PXr2+udhzDw9FQv2ZvJGfGElox2s5O/mfNi/lJUd2jtzR2bJm9rpPd96RiT77e9rXJDcdeKSsOV/Sa5noE1rnyVsQ7eo4/5Gee6f7/9z2d6/+6c6ZRUdYq0sk5UMV8ds5ks5VKvVsVUPz1yoWt8wKOqCxmKr65kxd1v9sZ3nknCfa2gKpiPRL1amN1fKc1ZL2+YCxz26PdrdfMNUPH7eiqtob8X7spVLvzsRD+8YxOvjI+XIjofR3liWs59n4cKLLDiY+uu78dduCiqO2tmXGSHHiUmstO7ykgZFZn7Lepet7On6drj4WnX76nETSvdLKXGCkonT1E7A3JHP9zvLwv2djLkh/QrR6SY69ItrV8WPlybnrJ9QtPSBpvK8a6TNK7yx7Wglxj8obKj8VT3i3eUkv7VdnpbNLNe/d89LdTeCstUqOJJ6yMffMnnPXPB10PHssrGs+1HHsVbLms6JobtqM9GdPunqgu/1uZej3q7Ku8V3GOF+TdLZyuGJzTMb+QZ6ujPZ0/ERZlBfSmRDjsvpuqNhe9XBHR17eS6s5tWmB55nbJP1dmrrwJSHucdz1lctSydRym7Jpvfrc/z37q6Q8f7ctSwzHN6YGvXPWfa6rN+hYRlN5StPxxjE3SZr05tqQJG0x0ori2Lbbent7A6kYW9jQuNB45iZjzN8H0X+GbLDWWzbQs+bBoAOR0pQQjex9qVT4wvXrfpani8VvVV3X3GiNvi3pr31u2teEKEkVrRWlKddZ6SW8c2RtWmYQoaKw5h9xkIyTXxe3yXhyZ3IwtWzdZzr/I+hYJqq6vnmxpFutNO7m2pC0q2DmrogpuuqhzrbXgw5G2jWGVvqm8vssyHWeZy5bv3b140EG4XdCfMZYc3F/z+pOH9vMCRWNjaXhhLvMenaZjPyaHvmeEPeo+mbVgfHt3k+8ROrv03GLYPbBs1V+UHkaWs48L+nF44Px29d9qutSGWV201gf1NbWhoYjsz8jY5crM2vfOcnI3uc4zkWPdK7Ous0PKirOC4f2e+3cPB9Dz8j8TEbL+rtW/28QAfiVELcYacWO8sit2bhQmklVp555iLzUDdp1jtt0pS0h7nHs1xYudBL2R8mEd4Sf7RrHaP6R8xXK4QIbz/NsYjjRFZI+0vnxzpx/GP7ourqyUqf0Mp8v2vJBVMa5NNp172+CDmQ8bxZP5fcYxmX13VjcXPt47+qMHqsz3YSYsrJ3KOlePfDAvRPa3LZQVNU3/YOsuU1G03kwNe0JcY/jlld93LPJb3tJ69tGvSWzS7V/DhbYWGuVGEn8t7fDbVp3/po/Bx2P32rOOOOvvKRzjaz5J0lu0PEExzxnjXflQFfHPcqiwo6JqFjceJgbcm4wVh9V/hZPbbLGXDHQtfrOTHU4nYTYK2MvjHZ1/M7XiPJIbW1taLh41nmyWi5pvyk0kbGEuMeuwhvvOpvyfCnd3//wA1QyK3eeAkiMxF9MxJIfe/DTPWkrr88WC+sbj3Ksc6OMTgs6lgzbbKQb5zjxb3Z2dub0GWZVdUsqZOzNyufiKWs/Gu3p+L+Z6GoqCfFPsro02tN+T1oiykM19S1zPcWXSzpf0mTuIWY8IUpSbWtt8VZ38Hs2kTrH2uldfYaLQjroyPkyJrsLbFKJ1I7EUPLSTD1Un012F23cIunooGNJs8BuxaXb7sK+FZJ8XfrIDrYz2t2RkYu2yfzYDUm61imPHEEynJy+7rbN0e72C1LWWSBjsqK8eCy9rb0jj1+9/hPWKZ7vht1OaepbwSViSW1/NXuX31IJLz6ybeTWzrPXlBdiMpSk/u72ddGaBQus9ClJG4OOJw2skWnzUqEjoj3tF+ZbMpR27VpUEtt2tJX9vKRXg47HXyZjs/iJzBCtrH7iScvW97T7drZbIatuaDrTWnOzpHeN89ZAZohvd9zy4yok5+5k0jtiKistxjGaf8R8hYqyp8DGS3k2MZxYnUgOn9N7bjDPmWWjo+vqykpNyQVWulLSzKDj8UGfY3VpX0/7I0EHkiknNjXNTMTM5Ua6WFJp0PFMkydrG6I9HWsz0dmYCdFKj0m6cKC7/aFMBFNIamtri0cis75kjf5NUtkob8uKhLjHwusXNiaS3ve9lD1gsp8tnV2iee/ePx1hTYr1rBLDif64bEvvxztfDDqebHXiKU0HJ11dm8OFN89YY68e6OpoCzqQoOyueP+KpE8qNwtvnpG1X8hUMpR2JcSdetsPspV93ZGu7K857k61tubcc1e5pOaMM/7KJtwbrfSOgzWN7I393R2XBxTaqI67vnKZl/RavZQ3qbLv/Q/fXyWzgqkUt7JKjiRejMfsR3756U6OTpqg6sVLj5Brr7OyLUHHMkFvGOkmHgH7i8r6pccY2Zske0rQsUyElX3dyFyX3HTgHRs23JHRc15NVX3TrZK5aPc/J4zRd0ZGzPJ8vM+ezWrqmk/wjL4lqUKSZDXshFTVd3/7/ws2slG0KnRcaOHtyUTqs/ImdvUZKgppfgAFNslYcnNiOPmvD5zblZFKtXy0u/DmJknHBh3LPlkNW6NvpVKRr21Y1xbYJuvZrKa+qcHK3JS1uxZZDcvRbTLxr0U7g3nu10gyVfVLzjTG+2ub8tZE1973XBCBQFJrq1Pd/+gSTzrcSbr39a+796mgQxpPxc0V87whZ1UqkWrQBDYinjV/lmbNz8wJMF4iFY8PJW5f9+muSzLSYb5rbXUq+x/9sLHmJvm/TeFUWSNzT5C7m+SSlpYW94Xt8XOttFzS/KDj2c2T9GPP6sqg61SyuxYeOaPyhkXvSyRjP00lU8eMVXiTiR1svKT1RoZi9xRtM5/s/GJuP2eWjSoaG0vDcecLVvqypMD25zPSA8axl/V1dmTtwd3ZKlvGUMY8aGzqsv7uNY8GFsNeSIjwVcVXK09PJb3veklv1BOyi8tLdMB7/C+w2VMwY93Eh9d+dO3LvneAt6hobJwXijlXy+hfNLnna6fraWvsNYVcMOOXAMcwK4ueSIhIi4rrqy5NJZPLvZTdZxWNnwU2VlaJ4eQf4rH4h3vPXRvobvmF6PiGpr8NWecrGSi82STZ60ti22/v7e1NprmvglJT1/h+a9zlhT6GJESkT6tCx7mVN6aS3hes573l6jMUcTX/iINl3On9CSZjyc3x4dg/P3ju2qy60ixElQ1La4z1bpFU43PTQ1b6tnHiNwRVbFEoFjYsOdlYe5ORFvjcdE6MIQkRafdm4U0y1SD7l7+5WQfN0qyDp1Zgk0qmYrGh1Ncf/NT9rb4FCj+Yyoams4w1KzT+xhPj8ST9OCn38g3dP8/HHXSy01+Kp26U9DfTbM0zMj9zXOeyR+7/+Z/8CC+dSIjImGO/UvVeY722VCJ1jLRnB5uDFCoKT7gNL2lTsZHY/5lbNPOf2s7mObNsdVRLS2TG9tjnJXOdpKlc9ayzci4d6L73v/2ODRNT09JSYrfHv2ilf9MUxtBID6Q8c2nQh/5OBgkRGbfwazUNiXjie17SO6S4vFgHvGf8jW/2FMyEElp6/7n3v5KBMOGDypOX7qeQd5mki4xUNIGPPGlllw10d/wi3bFhYvaM4e6t4CIT+MhT1thrs61gZiJIiAjMcTcs/JyXsLfMPWy/maWzRymwsVJ8OP5casg764HPdXHUWI6qPG3p+5yUvd7KnqV9/e5YvSSZ5YfNCt/Z1taWynyEGM8EiqdeljXX5fIYkhARrFaFFs488a65fzX7Y+Gi8F/+Hq3VyODITsX0kXWf7Wa2kCdq6pdUWuudZ2UqZTRD0u9lTVuyKPWfG9asGQo6Poxvd/HUeZIqZTVLRs8aa9qGNLTqdz09g0HHNx0kRGSNRd+tvdCVs8iz3lYTd+769YUPFswJBQAAAAAAAAAAAAAAAAAAAAAAAAAAAAAAAAAAAAAAAAAAAAAAAAAAAAAAAAAAAAAAAAAAAAAAAAAAAAAAAAAAAAAAAAAAAAAAAAAAAAAAAAAAAAAAAAAAAAAAAAAAAAAAAAAAAAAAAAAAAAAAAAAAAAAAAAAAAAAAAAAAAAAAAAAAAAAAAAAAAAAAAAAAAAAAAAAAAAAAAAAAAAAAAAAAAAAAAAAAAAAAAAAAAAAAAAAAAAAAAAAAAAAAAAAAAAAAAAAAAAAAAAAAAAAAAAAAAAAAAAAAAAAAAAAAAAAAAAAAAAAAAAAAAAAAAAAAAAAAAAAAAAAAAAAAAAAAAAAAAAAAAAAAAAAAAAAAAAAAAAAAAAAAAAAAAAAAAAAAAAAAAAAAAAAAAAAAAAAAAAAAAAAAAAAAAAAAAAAAAAAAAAAAAAAAAAAAAAAAAAAAAAAAAAAAAAAAAAAAAAAAAAAAAAAAAAAAAAAAAAAAAAAAAAAAAAAAAAAAAAAAAAAAAAAAAAAAAAAAAAAAAAAAAAAAAAAAAAAAAAAAAAAAAAAAAAAAAAAApNH/B0Jk97BbUJ4dAAAAAElFTkSuQmCC;" parent="1" vertex="1">
                    <mxGeometry x="430" y="36" width="50" height="50" as="geometry"/>
                </mxCell>
            </root>
        </mxGraphModel>
    </diagram>
</mxfile>
